RedHatDisplay-Bold.ufo
<glyph name="exclam" format="2">
  <advance width="241"/>
  <unicode hex="0021"/>
  <outline>
    <contour>
      <point x="68" y="210" type="line"/>
      <point x="173" y="210" type="line"/>
      <point x="190" y="705" type="line"/>
      <point x="51" y="705" type="line"/>
    </contour>
    <contour>
      <point x="120" y="-10" type="curve" smooth="yes"/>
      <point x="165" y="-10"/>
      <point x="202" y="27"/>
      <point x="202" y="71" type="curve" smooth="yes"/>
      <point x="202" y="116"/>
      <point x="165" y="153"/>
      <point x="120" y="153" type="curve" smooth="yes"/>
      <point x="76" y="153"/>
      <point x="39" y="116"/>
      <point x="39" y="71" type="curve" smooth="yes"/>
      <point x="39" y="27"/>
      <point x="76" y="-10"/>
    </contour>
  </outline>
</glyph>
<glyph name="numbersign" format="2">
  <advance width="739"/>
  <unicode hex="0023"/>
  <outline>
    <contour>
      <point x="70" y="0" type="line"/>
      <point x="194" y="0" type="line"/>
      <point x="249" y="194" type="line"/>
      <point x="401" y="194" type="line"/>
      <point x="345" y="0" type="line"/>
      <point x="467" y="0" type="line"/>
      <point x="523" y="194" type="line"/>
      <point x="659" y="194" type="line"/>
      <point x="659" y="292" type="line"/>
      <point x="551" y="292" type="line"/>
      <point x="584" y="408" type="line"/>
      <point x="709" y="408" type="line"/>
      <point x="709" y="506" type="line"/>
      <point x="612" y="506" type="line"/>
      <point x="667" y="700" type="line"/>
      <point x="545" y="700" type="line"/>
      <point x="489" y="506" type="line"/>
      <point x="338" y="506" type="line"/>
      <point x="394" y="700" type="line"/>
      <point x="270" y="700" type="line"/>
      <point x="215" y="506" type="line"/>
      <point x="79" y="506" type="line"/>
      <point x="79" y="408" type="line"/>
      <point x="187" y="408" type="line"/>
      <point x="154" y="292" type="line"/>
      <point x="29" y="292" type="line"/>
      <point x="29" y="194" type="line"/>
      <point x="126" y="194" type="line"/>
    </contour>
    <contour>
      <point x="277" y="292" type="line"/>
      <point x="310" y="408" type="line"/>
      <point x="462" y="408" type="line"/>
      <point x="428" y="292" type="line"/>
    </contour>
  </outline>
</glyph>
<glyph name="dollar" format="2">
  <advance width="601"/>
  <unicode hex="0024"/>
  <outline>
    <contour>
      <point x="257" y="-66" type="line"/>
      <point x="324" y="-66" type="line"/>
      <point x="324" y="18" type="line"/>
      <point x="480" y="25"/>
      <point x="575" y="103"/>
      <point x="575" y="222" type="curve" smooth="yes"/>
      <point x="575" y="321"/>
      <point x="516" y="372"/>
      <point x="378" y="399" type="curve" smooth="yes"/>
      <point x="324" y="408" type="line"/>
      <point x="324" y="567" type="line"/>
      <point x="379" y="558"/>
      <point x="436" y="535"/>
      <point x="498" y="498" type="curve"/>
      <point x="556" y="603" type="line"/>
      <point x="487" y="646"/>
      <point x="405" y="674"/>
      <point x="324" y="682" type="curve"/>
      <point x="324" y="768" type="line"/>
      <point x="257" y="768" type="line"/>
      <point x="257" y="685" type="line" smooth="yes"/>
      <point x="112" y="681"/>
      <point x="21" y="605"/>
      <point x="21" y="485" type="curve" smooth="yes"/>
      <point x="21" y="380"/>
      <point x="73" y="329"/>
      <point x="203" y="305" type="curve" smooth="yes"/>
      <point x="257" y="294" type="line"/>
      <point x="257" y="133" type="line"/>
      <point x="191" y="143"/>
      <point x="128" y="175"/>
      <point x="77" y="224" type="curve"/>
      <point x="6" y="127" type="line"/>
      <point x="71" y="66"/>
      <point x="160" y="28"/>
      <point x="257" y="20" type="curve"/>
    </contour>
    <contour>
      <point x="257" y="416" type="line"/>
      <point x="244" y="417" type="line" smooth="yes"/>
      <point x="172" y="427"/>
      <point x="148" y="447"/>
      <point x="148" y="496" type="curve" smooth="yes"/>
      <point x="148" y="541"/>
      <point x="190" y="570"/>
      <point x="257" y="572" type="curve" smooth="yes"/>
    </contour>
    <contour>
      <point x="324" y="128" type="curve"/>
      <point x="324" y="288" type="line"/>
      <point x="338" y="285" type="line" smooth="yes"/>
      <point x="422" y="272"/>
      <point x="443" y="256"/>
      <point x="443" y="210" type="curve" smooth="yes"/>
      <point x="443" y="164"/>
      <point x="396" y="133"/>
    </contour>
  </outline>
</glyph>
<glyph name="ampersand" format="2">
  <advance width="684"/>
  <unicode hex="0026"/>
  <outline>
    <contour>
      <point x="271" y="-11" type="curve" smooth="yes"/>
      <point x="351" y="-11"/>
      <point x="422" y="13"/>
      <point x="478" y="58" type="curve"/>
      <point x="511" y="30"/>
      <point x="545" y="3"/>
      <point x="577" y="-21" type="curve"/>
      <point x="659" y="76" type="line"/>
      <point x="623" y="103"/>
      <point x="593" y="126"/>
      <point x="559" y="155" type="curve"/>
      <point x="597" y="212"/>
      <point x="624" y="283"/>
      <point x="644" y="371" type="curve"/>
      <point x="526" y="390" type="line"/>
      <point x="513" y="330"/>
      <point x="495" y="276"/>
      <point x="471" y="233" type="curve"/>
      <point x="423" y="276"/>
      <point x="376" y="321"/>
      <point x="337" y="363" type="curve"/>
      <point x="388" y="394" type="line" smooth="yes"/>
      <point x="455" y="434"/>
      <point x="487" y="485"/>
      <point x="487" y="546" type="curve" smooth="yes"/>
      <point x="487" y="641"/>
      <point x="407" y="711"/>
      <point x="297" y="711" type="curve" smooth="yes"/>
      <point x="185" y="711"/>
      <point x="102" y="636"/>
      <point x="102" y="535" type="curve" smooth="yes"/>
      <point x="102" y="480"/>
      <point x="118" y="437"/>
      <point x="160" y="382" type="curve"/>
      <point x="60" y="325"/>
      <point x="25" y="274"/>
      <point x="25" y="189" type="curve" smooth="yes"/>
      <point x="25" y="70"/>
      <point x="124" y="-11"/>
    </contour>
    <contour>
      <point x="271" y="441" type="line"/>
      <point x="236" y="483"/>
      <point x="225" y="508"/>
      <point x="225" y="537" type="curve" smooth="yes"/>
      <point x="225" y="579"/>
      <point x="254" y="609"/>
      <point x="294" y="609" type="curve" smooth="yes"/>
      <point x="333" y="609"/>
      <point x="363" y="580"/>
      <point x="363" y="542" type="curve" smooth="yes"/>
      <point x="363" y="510"/>
      <point x="348" y="487"/>
      <point x="312" y="465" type="curve" smooth="yes"/>
    </contour>
    <contour>
      <point x="281" y="97" type="curve" smooth="yes"/>
      <point x="201" y="97"/>
      <point x="151" y="136"/>
      <point x="151" y="199" type="curve" smooth="yes"/>
      <point x="151" y="240"/>
      <point x="170" y="269"/>
      <point x="226" y="301" type="curve"/>
      <point x="275" y="245"/>
      <point x="331" y="188"/>
      <point x="391" y="134" type="curve"/>
      <point x="360" y="109"/>
      <point x="323" y="97"/>
    </contour>
  </outline>
</glyph>
<glyph name="parenleft" format="2">
  <advance width="412"/>
  <unicode hex="0028"/>
  <outline>
    <contour>
      <point x="312" y="-219" type="curve"/>
      <point x="388" y="-133" type="line"/>
      <point x="252" y="-51"/>
      <point x="180" y="83"/>
      <point x="180" y="248" type="curve" smooth="yes"/>
      <point x="180" y="412"/>
      <point x="252" y="545"/>
      <point x="388" y="629" type="curve"/>
      <point x="312" y="714" type="line"/>
      <point x="145" y="616"/>
      <point x="53" y="452"/>
      <point x="53" y="248" type="curve" smooth="yes"/>
      <point x="53" y="44"/>
      <point x="145" y="-121"/>
    </contour>
  </outline>
</glyph>
<glyph name="asterisk" format="2">
  <advance width="475"/>
  <unicode hex="002A"/>
  <outline>
    <contour>
      <point x="194" y="316" type="line"/>
      <point x="283" y="316" type="line"/>
      <point x="281" y="431" type="line"/>
      <point x="384" y="367" type="line"/>
      <point x="434" y="442" type="line"/>
      <point x="321" y="508" type="line"/>
      <point x="434" y="575" type="line"/>
      <point x="385" y="649" type="line"/>
      <point x="281" y="584" type="line"/>
      <point x="283" y="700" type="line"/>
      <point x="194" y="700" type="line"/>
      <point x="196" y="583" type="line"/>
      <point x="92" y="649" type="line"/>
      <point x="43" y="575" type="line"/>
      <point x="156" y="508" type="line"/>
      <point x="43" y="442" type="line"/>
      <point x="91" y="367" type="line"/>
      <point x="196" y="432" type="line"/>
    </contour>
  </outline>
</glyph>
<glyph name="plus" format="2">
  <advance width="600"/>
  <unicode hex="002B"/>
  <outline>
    <contour>
      <point x="247" y="129" type="line"/>
      <point x="353" y="129" type="line"/>
      <point x="353" y="305" type="line"/>
      <point x="517" y="305" type="line"/>
      <point x="517" y="408" type="line"/>
      <point x="353" y="408" type="line"/>
      <point x="353" y="584" type="line"/>
      <point x="247" y="584" type="line"/>
      <point x="247" y="408" type="line"/>
      <point x="83" y="408" type="line"/>
      <point x="83" y="305" type="line"/>
      <point x="247" y="305" type="line"/>
    </contour>
  </outline>
</glyph>
<glyph name="comma" format="2">
  <advance width="250"/>
  <unicode hex="002C"/>
  <outline>
    <contour>
      <point x="2" y="-151" type="line"/>
      <point x="106" y="-151" type="line"/>
      <point x="213" y="112" type="line"/>
      <point x="71" y="112" type="line"/>
    </contour>
  </outline>
</glyph>
<glyph name="hyphen" format="2">
  <advance width="458"/>
  <unicode hex="002D"/>
  <outline>
    <contour>
      <point x="41" y="227" type="line"/>
      <point x="417" y="227" type="line"/>
      <point x="417" y="343" type="line"/>
      <point x="41" y="343" type="line"/>
    </contour>
  </outline>
</glyph>
<glyph name="period" format="2">
  <advance width="250"/>
  <unicode hex="002E"/>
  <outline>
    <contour>
      <point x="125" y="-10" type="curve" smooth="yes"/>
      <point x="169" y="-10"/>
      <point x="206" y="27"/>
      <point x="206" y="71" type="curve" smooth="yes"/>
      <point x="206" y="116"/>
      <point x="169" y="153"/>
      <point x="125" y="153" type="curve" smooth="yes"/>
      <point x="81" y="153"/>
      <point x="44" y="116"/>
      <point x="44" y="71" type="curve" smooth="yes"/>
      <point x="44" y="27"/>
      <point x="81" y="-10"/>
    </contour>
  </outline>
</glyph>
<glyph name="slash" format="2">
  <advance width="512"/>
  <unicode hex="002F"/>
  <outline>
    <contour>
      <point x="-57" y="-208" type="line"/>
      <point x="75" y="-208" type="line"/>
      <point x="482" y="700" type="line"/>
      <point x="350" y="700" type="line"/>
    </contour>
  </outline>
</glyph>
<glyph name="zero" format="2">
  <advance width="685"/>
  <unicode hex="0030"/>
  <outline>
    <contour>
      <point x="342" y="-11" type="curve" smooth="yes"/>
      <point x="526" y="-11"/>
      <point x="650" y="134"/>
      <point x="650" y="350" type="curve" smooth="yes"/>
      <point x="650" y="566"/>
      <point x="526" y="711"/>
      <point x="342" y="711" type="curve" smooth="yes"/>
      <point x="159" y="711"/>
      <point x="35" y="566"/>
      <point x="35" y="350" type="curve" smooth="yes"/>
      <point x="35" y="134"/>
      <point x="159" y="-11"/>
    </contour>
    <contour>
      <point x="342" y="108" type="curve" smooth="yes"/>
      <point x="236" y="108"/>
      <point x="168" y="201"/>
      <point x="168" y="350" type="curve" smooth="yes"/>
      <point x="168" y="499"/>
      <point x="236" y="592"/>
      <point x="342" y="592" type="curve" smooth="yes"/>
      <point x="449" y="592"/>
      <point x="517" y="499"/>
      <point x="517" y="350" type="curve" smooth="yes"/>
      <point x="517" y="201"/>
      <point x="449" y="108"/>
    </contour>
  </outline>
</glyph>
<glyph name="one" format="2">
  <advance width="349"/>
  <unicode hex="0031"/>
  <outline>
    <contour>
      <point x="158" y="0" type="line"/>
      <point x="295" y="0" type="line"/>
      <point x="295" y="700" type="line"/>
      <point x="209" y="700" type="line"/>
      <point x="21" y="624" type="line"/>
      <point x="21" y="504" type="line"/>
      <point x="158" y="561" type="line"/>
    </contour>
  </outline>
</glyph>
<glyph name="four" format="2">
  <advance width="673"/>
  <unicode hex="0034"/>
  <outline>
    <contour>
      <point x="422" y="0" type="line"/>
      <point x="559" y="0" type="line"/>
      <point x="559" y="164" type="line"/>
      <point x="645" y="164" type="line"/>
      <point x="645" y="279" type="line"/>
      <point x="559" y="279" type="line"/>
      <point x="559" y="700" type="line"/>
      <point x="401" y="700" type="line"/>
      <point x="27" y="274" type="line"/>
      <point x="27" y="164" type="line"/>
      <point x="422" y="164" type="line"/>
    </contour>
    <contour>
      <point x="186" y="279" type="line"/>
      <point x="422" y="547" type="line"/>
      <point x="422" y="279" type="line"/>
    </contour>
  </outline>
</glyph>
<glyph name="nine" format="2">
  <advance width="636"/>
  <unicode hex="0039"/>
  <outline>
    <contour>
      <point x="295" y="711" type="curve" smooth="yes"/>
      <point x="150" y="711"/>
      <point x="42" y="612"/>
      <point x="42" y="479" type="curve" smooth="yes"/>
      <point x="42" y="354"/>
      <point x="140" y="265"/>
      <point x="277" y="265" type="curve" smooth="yes"/>
      <point x="349" y="265"/>
      <point x="417" y="302"/>
      <point x="463" y="366" type="curve"/>
      <point x="463" y="201"/>
      <point x="394" y="106"/>
      <point x="271" y="106" type="curve" smooth="yes"/>
      <point x="218" y="106"/>
      <point x="175" y="121"/>
      <point x="136" y="151" type="curve"/>
      <point x="62" y="57" type="line"/>
      <point x="110" y="15"/>
      <point x="189" y="-11"/>
      <point x="261" y="-11" type="curve" smooth="yes"/>
      <point x="461" y="-11"/>
      <point x="593" y="139"/>
      <point x="593" y="365" type="curve" smooth="yes"/>
      <point x="593" y="570"/>
      <point x="473" y="711"/>
    </contour>
    <contour>
      <point x="299" y="368" type="curve" smooth="yes"/>
      <point x="223" y="368"/>
      <point x="171" y="415"/>
      <point x="171" y="482" type="curve" smooth="yes"/>
      <point x="171" y="549"/>
      <point x="227" y="598"/>
      <point x="301" y="598" type="curve" smooth="yes"/>
      <point x="380" y="598"/>
      <point x="438" y="537"/>
      <point x="456" y="441" type="curve"/>
      <point x="416" y="395"/>
      <point x="360" y="368"/>
    </contour>
  </outline>
</glyph>
<glyph name="less" format="2">
  <advance width="600"/>
  <unicode hex="003C"/>
  <outline>
    <contour>
      <point x="419" y="60" type="line"/>
      <point x="490" y="142" type="line"/>
      <point x="237" y="349" type="line"/>
      <point x="490" y="556" type="line"/>
      <point x="421" y="636" type="line"/>
      <point x="76" y="348" type="line"/>
    </contour>
  </outline>
</glyph>
<glyph name="question" format="2">
  <advance width="526"/>
  <unicode hex="003F"/>
  <outline>
    <contour>
      <point x="179" y="213" type="curve"/>
      <point x="294" y="213" type="line"/>
      <point x="292" y="267"/>
      <point x="307" y="297"/>
      <point x="349" y="326" type="curve" smooth="yes"/>
      <point x="376" y="345" type="line" smooth="yes"/>
      <point x="469" y="408"/>
      <point x="500" y="452"/>
      <point x="500" y="524" type="curve" smooth="yes"/>
      <point x="500" y="631"/>
      <point x="398" y="711"/>
      <point x="264" y="711" type="curve"/>
      <point x="149" y="711"/>
      <point x="52" y="652"/>
      <point x="8" y="556" type="curve"/>
      <point x="118" y="511" type="line"/>
      <point x="145" y="564"/>
      <point x="198" y="596"/>
      <point x="259" y="596" type="curve" smooth="yes"/>
      <point x="320" y="596"/>
      <point x="366" y="562"/>
      <point x="366" y="517" type="curve" smooth="yes"/>
      <point x="366" y="488"/>
      <point x="348" y="464"/>
      <point x="308" y="434" type="curve" smooth="yes"/>
      <point x="256" y="397" type="line" smooth="yes"/>
      <point x="193" y="350"/>
      <point x="174" y="305"/>
    </contour>
    <contour>
      <point x="237" y="-10" type="curve" smooth="yes"/>
      <point x="282" y="-10"/>
      <point x="318" y="27"/>
      <point x="318" y="71" type="curve" smooth="yes"/>
      <point x="318" y="116"/>
      <point x="282" y="153"/>
      <point x="237" y="153" type="curve" smooth="yes"/>
      <point x="193" y="153"/>
      <point x="156" y="116"/>
      <point x="156" y="71" type="curve" smooth="yes"/>
      <point x="156" y="27"/>
      <point x="193" y="-10"/>
    </contour>
  </outline>
</glyph>
<glyph name="at" format="2">
  <advance width="787"/>
  <unicode hex="0040"/>
  <outline>
    <contour>
      <point x="410" y="-144" type="curve" smooth="yes"/>
      <point x="477" y="-144"/>
      <point x="538" y="-129"/>
      <point x="600" y="-100" type="curve"/>
      <point x="575" y="-44" type="line"/>
      <point x="527" y="-69"/>
      <point x="471" y="-81"/>
      <point x="410" y="-81" type="curve" smooth="yes"/>
      <point x="233" y="-81"/>
      <point x="109" y="40"/>
      <point x="109" y="213" type="curve" smooth="yes"/>
      <point x="109" y="388"/>
      <point x="238" y="523"/>
      <point x="407" y="523" type="curve"/>
      <point x="562" y="523"/>
      <point x="679" y="415"/>
      <point x="679" y="271" type="curve" smooth="yes"/>
      <point x="679" y="178"/>
      <point x="635" y="113"/>
      <point x="572" y="113" type="curve" smooth="yes"/>
      <point x="537" y="113"/>
      <point x="520" y="133"/>
      <point x="528" y="169" type="curve" smooth="yes"/>
      <point x="571" y="372" type="line"/>
      <point x="481" y="372" type="line"/>
      <point x="477" y="352" type="line"/>
      <point x="453" y="374"/>
      <point x="419" y="385"/>
      <point x="384" y="385" type="curve" smooth="yes"/>
      <point x="285" y="385"/>
      <point x="207" y="305"/>
      <point x="207" y="203" type="curve" smooth="yes"/>
      <point x="207" y="116"/>
      <point x="270" y="48"/>
      <point x="352" y="48" type="curve" smooth="yes"/>
      <point x="389" y="48"/>
      <point x="426" y="63"/>
      <point x="457" y="90" type="curve"/>
      <point x="476" y="63"/>
      <point x="511" y="49"/>
      <point x="559" y="49" type="curve" smooth="yes"/>
      <point x="669" y="49"/>
      <point x="748" y="143"/>
      <point x="748" y="276" type="curve" smooth="yes"/>
      <point x="748" y="448"/>
      <point x="600" y="581"/>
      <point x="410" y="581" type="curve"/>
      <point x="198" y="581"/>
      <point x="41" y="421"/>
      <point x="41" y="207" type="curve" smooth="yes"/>
      <point x="41" y="5"/>
      <point x="197" y="-144"/>
    </contour>
    <contour>
      <point x="373" y="122" type="curve" smooth="yes"/>
      <point x="326" y="122"/>
      <point x="293" y="158"/>
      <point x="293" y="210" type="curve" smooth="yes"/>
      <point x="293" y="265"/>
      <point x="336" y="310"/>
      <point x="386" y="310" type="curve" smooth="yes"/>
      <point x="419" y="310"/>
      <point x="445" y="297"/>
      <point x="461" y="274" type="curve"/>
      <point x="443" y="181" type="line" smooth="yes"/>
      <point x="440" y="169"/>
      <point x="439" y="158"/>
      <point x="440" y="148" type="curve"/>
      <point x="420" y="130"/>
      <point x="398" y="122"/>
    </contour>
  </outline>
</glyph>
<glyph name="A" format="2">
  <advance width="732"/>
  <unicode hex="0041"/>
  <anchor x="366" y="700" name="top"/>
  <anchor x="736" y="0" name="bottom"/>
  <outline>
    <contour>
      <point x="-4" y="0" type="line"/>
      <point x="147" y="0" type="line"/>
      <point x="219" y="183" type="line"/>
      <point x="508" y="183" type="line"/>
      <point x="579" y="0" type="line"/>
      <point x="736" y="0" type="line"/>
      <point x="451" y="700" type="line"/>
      <point x="284" y="700" type="line"/>
    </contour>
    <contour>
      <point x="264" y="300" type="line"/>
      <point x="364" y="558" type="line"/>
      <point x="464" y="300" type="line"/>
    </contour>
  </outline>
</glyph>
<glyph name="B" format="2">
  <advance width="691"/>
  <unicode hex="0042"/>
  <outline>
    <contour>
      <point x="63" y="0" type="line"/>
      <point x="408" y="0" type="line" smooth="yes"/>
      <point x="555" y="0"/>
      <point x="653" y="81"/>
      <point x="653" y="203" type="curve" smooth="yes"/>
      <point x="653" y="272"/>
      <point x="610" y="330"/>
      <point x="542" y="361" type="curve"/>
      <point x="596" y="394"/>
      <point x="629" y="446"/>
      <point x="629" y="508" type="curve" smooth="yes"/>
      <point x="629" y="622"/>
      <point x="533" y="700"/>
      <point x="392" y="700" type="curve" smooth="yes"/>
      <point x="63" y="700" type="line"/>
    </contour>
    <contour>
      <point x="208" y="414" type="line"/>
      <point x="208" y="580" type="line"/>
      <point x="383" y="580" type="line" smooth="yes"/>
      <point x="445" y="580"/>
      <point x="485" y="548"/>
      <point x="485" y="497" type="curve" smooth="yes"/>
      <point x="485" y="446"/>
      <point x="445" y="414"/>
      <point x="383" y="414" type="curve" smooth="yes"/>
    </contour>
    <contour>
      <point x="208" y="120" type="line"/>
      <point x="208" y="301" type="line"/>
      <point x="397" y="301" type="line" smooth="yes"/>
      <point x="464" y="301"/>
      <point x="507" y="265"/>
      <point x="507" y="210" type="curve" smooth="yes"/>
      <point x="507" y="156"/>
      <point x="464" y="120"/>
      <point x="397" y="120" type="curve" smooth="yes"/>
    </contour>
  </outline>
</glyph>
<glyph name="C" format="2">
  <advance width="718"/>
  <unicode hex="0043"/>
  <anchor x="407" y="700" name="top"/>
  <anchor x="409" y="0" name="bottom"/>
  <outline>
    <contour>
      <point x="408" y="-10" type="curve" smooth="yes"/>
      <point x="519" y="-10"/>
      <point x="629" y="40"/>
      <point x="696" y="119" type="curve"/>
      <point x="601" y="213" type="line"/>
      <point x="552" y="155"/>
      <point x="487" y="124"/>
      <point x="413" y="124" type="curve" smooth="yes"/>
      <point x="283" y="124"/>
      <point x="185" y="222"/>
      <point x="185" y="350" type="curve" smooth="yes"/>
      <point x="185" y="480"/>
      <point x="282" y="578"/>
      <point x="408" y="578" type="curve" smooth="yes"/>
      <point x="484" y="578"/>
      <point x="552" y="545"/>
      <point x="602" y="483" type="curve"/>
      <point x="700" y="580" type="line"/>
      <point x="635" y="660"/>
      <point x="522" y="711"/>
      <point x="408" y="711" type="curve" smooth="yes"/>
      <point x="199" y="711"/>
      <point x="36" y="553"/>
      <point x="36" y="350" type="curve" smooth="yes"/>
      <point x="36" y="147"/>
      <point x="198" y="-10"/>
    </contour>
  </outline>
</glyph>
<glyph name="D" format="2">
  <advance width="738"/>
  <unicode hex="0044"/>
  <anchor x="369" y="700" name="top"/>
  <outline>
    <contour>
      <point x="208" y="129" type="line"/>
      <point x="208" y="571" type="line"/>
      <point x="331" y="571" type="line" smooth="yes"/>
      <point x="455" y="571"/>
      <point x="552" y="474"/>
      <point x="552" y="349" type="curve" smooth="yes"/>
      <point x="552" y="225"/>
      <point x="455" y="129"/>
      <point x="331" y="129" type="curve" smooth="yes"/>
    </contour>
    <contour>
      <point x="63" y="0" type="line"/>
      <point x="332" y="0" type="line" smooth="yes"/>
      <point x="541" y="0"/>
      <point x="702" y="152"/>
      <point x="702" y="349" type="curve" smooth="yes"/>
      <point x="702" y="547"/>
      <point x="541" y="700"/>
      <point x="332" y="700" type="curve" smooth="yes"/>
      <point x="63" y="700" type="line"/>
    </contour>
  </outline>
</glyph>
<glyph name="E" format="2">
  <advance width="645"/>
  <unicode hex="0045"/>
  <anchor x="344" y="700" name="top"/>
  <anchor x="605" y="0" name="bottom"/>
  <outline>
    <contour>
      <point x="63" y="0" type="line"/>
      <point x="605" y="0" type="line"/>
      <point x="605" y="126" type="line"/>
      <point x="208" y="126" type="line"/>
      <point x="208" y="292" type="line"/>
      <point x="467" y="292" type="line"/>
      <point x="467" y="414" type="line"/>
      <point x="208" y="414" type="line"/>
      <point x="208" y="574" type="line"/>
      <point x="601" y="574" type="line"/>
      <point x="601" y="700" type="line"/>
      <point x="63" y="700" type="line"/>
    </contour>
  </outline>
</glyph>
<glyph name="G" format="2">
  <advance width="794"/>
  <unicode hex="0047"/>
  <anchor x="405" y="700" name="top"/>
  <anchor x="410" y="0" name="bottom"/>
  <outline>
    <contour>
      <point x="407" y="-11" type="curve" smooth="yes"/>
      <point x="609" y="-11"/>
      <point x="758" y="142"/>
      <point x="758" y="349" type="curve" smooth="yes"/>
      <point x="758" y="393" type="line"/>
      <point x="396" y="393" type="line"/>
      <point x="396" y="267" type="line"/>
      <point x="603" y="267" type="line"/>
      <point x="585" y="182"/>
      <point x="508" y="121"/>
      <point x="409" y="121" type="curve" smooth="yes"/>
      <point x="282" y="121"/>
      <point x="185" y="220"/>
      <point x="185" y="350" type="curve" smooth="yes"/>
      <point x="185" y="480"/>
      <point x="279" y="578"/>
      <point x="405" y="578" type="curve" smooth="yes"/>
      <point x="480" y="578"/>
      <point x="546" y="546"/>
      <point x="595" y="487" type="curve"/>
      <point x="696" y="580" type="line"/>
      <point x="629" y="662"/>
      <point x="521" y="711"/>
      <point x="405" y="711" type="curve" smooth="yes"/>
      <point x="198" y="711"/>
      <point x="36" y="552"/>
      <point x="36" y="350" type="curve" smooth="yes"/>
      <point x="36" y="148"/>
      <point x="199" y="-11"/>
    </contour>
  </outline>
</glyph>
<glyph name="H" format="2">
  <advance width="739"/>
  <unicode hex="0048"/>
  <anchor x="369" y="700" name="top"/>
  <outline>
    <contour>
      <point x="63" y="0" type="line"/>
      <point x="208" y="0" type="line"/>
      <point x="208" y="287" type="line"/>
      <point x="530" y="287" type="line"/>
      <point x="530" y="0" type="line"/>
      <point x="675" y="0" type="line"/>
      <point x="675" y="700" type="line"/>
      <point x="530" y="700" type="line"/>
      <point x="530" y="418" type="line"/>
      <point x="208" y="418" type="line"/>
      <point x="208" y="700" type="line"/>
      <point x="63" y="700" type="line"/>
    </contour>
  </outline>
</glyph>
<glyph name="I" format="2">
  <advance width="272"/>
  <unicode hex="0049"/>
  <anchor x="136" y="700" name="top"/>
  <anchor x="208" y="0" name="bottom"/>
  <outline>
    <contour>
      <point x="63" y="0" type="line"/>
      <point x="208" y="0" type="line"/>
      <point x="208" y="700" type="line"/>
      <point x="63" y="700" type="line"/>
    </contour>
  </outline>
</glyph>
<glyph name="J" format="2">
  <advance width="642"/>
  <unicode hex="004A"/>
  <anchor x="519" y="700" name="top"/>
  <outline>
    <contour>
      <point x="300" y="-10" type="curve" smooth="yes"/>
      <point x="474" y="-10"/>
      <point x="589" y="102"/>
      <point x="589" y="272" type="curve" smooth="yes"/>
      <point x="589" y="700" type="line"/>
      <point x="444" y="700" type="line"/>
      <point x="444" y="276" type="line" smooth="yes"/>
      <point x="444" y="183"/>
      <point x="387" y="122"/>
      <point x="301" y="122" type="curve" smooth="yes"/>
      <point x="228" y="122"/>
      <point x="180" y="161"/>
      <point x="151" y="246" type="curve"/>
      <point x="17" y="195" type="line"/>
      <point x="59" y="63"/>
      <point x="160" y="-10"/>
    </contour>
  </outline>
</glyph>
<glyph name="K" format="2">
  <advance width="697"/>
  <unicode hex="004B"/>
  <anchor x="359" y="0" name="bottom"/>
  <outline>
    <contour>
      <point x="63" y="0" type="line"/>
      <point x="208" y="0" type="line"/>
      <point x="208" y="325" type="line"/>
      <point x="513" y="0" type="line"/>
      <point x="707" y="0" type="line"/>
      <point x="352" y="367" type="line"/>
      <point x="691" y="700" type="line"/>
      <point x="514" y="700" type="line"/>
      <point x="208" y="387" type="line"/>
      <point x="208" y="700" type="line"/>
      <point x="63" y="700" type="line"/>
    </contour>
  </outline>
</glyph>
<glyph name="L" format="2">
  <advance width="628"/>
  <unicode hex="004C"/>
  <anchor x="135" y="700" name="top"/>
  <anchor x="349" y="0" name="bottom"/>
  <outline>
    <contour>
      <point x="63" y="0" type="line"/>
      <point x="591" y="0" type="line"/>
      <point x="591" y="128" type="line"/>
      <point x="208" y="128" type="line"/>
      <point x="208" y="700" type="line"/>
      <point x="63" y="700" type="line"/>
    </contour>
  </outline>
</glyph>
<glyph name="M" format="2">
  <advance width="882"/>
  <unicode hex="004D"/>
  <outline>
    <contour>
      <point x="63" y="0" type="line"/>
      <point x="197" y="0" type="line"/>
      <point x="197" y="517" type="line"/>
      <point x="439" y="50" type="line"/>
      <point x="682" y="515" type="line"/>
      <point x="682" y="0" type="line"/>
      <point x="819" y="0" type="line"/>
      <point x="819" y="700" type="line"/>
      <point x="633" y="700" type="line"/>
      <point x="441" y="323" type="line"/>
      <point x="249" y="700" type="line"/>
      <point x="63" y="700" type="line"/>
    </contour>
  </outline>
</glyph>
<glyph name="N" format="2">
  <advance width="749"/>
  <unicode hex="004E"/>
  <anchor x="374" y="700" name="top"/>
  <anchor x="374" y="0" name="bottom"/>
  <outline>
    <contour>
      <point x="63" y="0" type="line"/>
      <point x="200" y="0" type="line"/>
      <point x="200" y="468" type="line"/>
      <point x="557" y="0" type="line"/>
      <point x="685" y="0" type="line"/>
      <point x="685" y="700" type="line"/>
      <point x="549" y="700" type="line"/>
      <point x="549" y="248" type="line"/>
      <point x="201" y="700" type="line"/>
      <point x="63" y="700" type="line"/>
    </contour>
  </outline>
</glyph>
<glyph name="O" format="2">
  <advance width="813"/>
  <unicode hex="004F"/>
  <anchor x="406" y="700" name="top"/>
  <outline>
    <contour>
      <point x="406" y="-11" type="curve" smooth="yes"/>
      <point x="614" y="-11"/>
      <point x="776" y="148"/>
      <point x="776" y="350" type="curve" smooth="yes"/>
      <point x="776" y="552"/>
      <point x="614" y="711"/>
      <point x="406" y="711" type="curve" smooth="yes"/>
      <point x="199" y="711"/>
      <point x="36" y="552"/>
      <point x="36" y="350" type="curve" smooth="yes"/>
      <point x="36" y="148"/>
      <point x="199" y="-11"/>
    </contour>
    <contour>
      <point x="406" y="122" type="curve" smooth="yes"/>
      <point x="281" y="122"/>
      <point x="185" y="221"/>
      <point x="185" y="350" type="curve" smooth="yes"/>
      <point x="185" y="480"/>
      <point x="281" y="578"/>
      <point x="406" y="578" type="curve" smooth="yes"/>
      <point x="532" y="578"/>
      <point x="628" y="480"/>
      <point x="628" y="350" type="curve" smooth="yes"/>
      <point x="628" y="221"/>
      <point x="532" y="122"/>
    </contour>
  </outline>
</glyph>
<glyph name="P" format="2">
  <advance width="681"/>
  <unicode hex="0050"/>
  <outline>
    <contour>
      <point x="63" y="0" type="line"/>
      <point x="208" y="0" type="line"/>
      <point x="208" y="264" type="line"/>
      <point x="414" y="264" type="line" smooth="yes"/>
      <point x="550" y="264"/>
      <point x="649" y="355"/>
      <point x="649" y="480" type="curve" smooth="yes"/>
      <point x="649" y="609"/>
      <point x="552" y="700"/>
      <point x="414" y="700" type="curve" smooth="yes"/>
      <point x="63" y="700" type="line"/>
    </contour>
    <contour>
      <point x="208" y="384" type="line"/>
      <point x="208" y="575" type="line"/>
      <point x="398" y="575" type="line" smooth="yes"/>
      <point x="461" y="575"/>
      <point x="502" y="537"/>
      <point x="502" y="479" type="curve" smooth="yes"/>
      <point x="502" y="422"/>
      <point x="461" y="384"/>
      <point x="398" y="384" type="curve" smooth="yes"/>
    </contour>
  </outline>
</glyph>
<glyph name="Q" format="2">
  <advance width="813"/>
  <unicode hex="0051"/>
  <outline>
    <contour>
      <point x="613" y="-34" type="line"/>
      <point x="740" y="8" type="line"/>
      <point x="670" y="95" type="line"/>
      <point x="736" y="160"/>
      <point x="776" y="250"/>
      <point x="776" y="350" type="curve" smooth="yes"/>
      <point x="776" y="552"/>
      <point x="614" y="711"/>
      <point x="406" y="711" type="curve" smooth="yes"/>
      <point x="199" y="711"/>
      <point x="36" y="552"/>
      <point x="36" y="350" type="curve" smooth="yes"/>
      <point x="36" y="148"/>
      <point x="199" y="-11"/>
      <point x="406" y="-11" type="curve" smooth="yes"/>
      <point x="464" y="-11"/>
      <point x="518" y="2"/>
      <point x="566" y="24" type="curve"/>
    </contour>
    <contour>
      <point x="406" y="122" type="curve" smooth="yes"/>
      <point x="281" y="122"/>
      <point x="185" y="221"/>
      <point x="185" y="350" type="curve" smooth="yes"/>
      <point x="185" y="480"/>
      <point x="281" y="578"/>
      <point x="406" y="578" type="curve" smooth="yes"/>
      <point x="532" y="578"/>
      <point x="628" y="480"/>
      <point x="628" y="350" type="curve" smooth="yes"/>
      <point x="628" y="296"/>
      <point x="610" y="246"/>
      <point x="580" y="208" type="curve"/>
      <point x="528" y="272" type="line"/>
      <point x="401" y="230" type="line"/>
      <point x="477" y="136" type="line"/>
      <point x="455" y="127"/>
      <point x="432" y="122"/>
    </contour>
  </outline>
</glyph>
<glyph name="R" format="2">
  <advance width="679"/>
  <unicode hex="0052"/>
  <anchor x="338" y="700" name="top"/>
  <anchor x="347" y="0" name="bottom"/>
  <outline>
    <contour>
      <point x="63" y="0" type="line"/>
      <point x="208" y="0" type="line"/>
      <point x="208" y="268" type="line"/>
      <point x="366" y="268" type="line"/>
      <point x="503" y="0" type="line"/>
      <point x="665" y="0" type="line"/>
      <point x="510" y="289" type="line"/>
      <point x="593" y="322"/>
      <point x="647" y="394"/>
      <point x="647" y="483" type="curve" smooth="yes"/>
      <point x="647" y="611"/>
      <point x="547" y="700"/>
      <point x="405" y="700" type="curve" smooth="yes"/>
      <point x="63" y="700" type="line"/>
    </contour>
    <contour>
      <point x="208" y="387" type="line"/>
      <point x="208" y="575" type="line"/>
      <point x="392" y="575" type="line" smooth="yes"/>
      <point x="457" y="575"/>
      <point x="500" y="537"/>
      <point x="500" y="481" type="curve" smooth="yes"/>
      <point x="500" y="424"/>
      <point x="457" y="387"/>
      <point x="392" y="387" type="curve" smooth="yes"/>
    </contour>
  </outline>
</glyph>
<glyph name="T" format="2">
  <advance width="652"/>
  <unicode hex="0054"/>
  <anchor x="326" y="700" name="top"/>
  <anchor x="326" y="0" name="bottom"/>
  <outline>
    <contour>
      <point x="254" y="0" type="line"/>
      <point x="399" y="0" type="line"/>
      <point x="399" y="572" type="line"/>
      <point x="634" y="572" type="line"/>
      <point x="634" y="700" type="line"/>
      <point x="18" y="700" type="line"/>
      <point x="18" y="572" type="line"/>
      <point x="254" y="572" type="line"/>
    </contour>
  </outline>
</glyph>
<glyph name="U" format="2">
  <advance width="725"/>
  <unicode hex="0055"/>
  <anchor x="363" y="700" name="top"/>
  <anchor x="445" y="0" name="bottom"/>
  <outline>
    <contour>
      <point x="362" y="-10" type="curve" smooth="yes"/>
      <point x="550" y="-10"/>
      <point x="672" y="112"/>
      <point x="672" y="302" type="curve" smooth="yes"/>
      <point x="672" y="700" type="line"/>
      <point x="527" y="700" type="line"/>
      <point x="527" y="302" type="line" smooth="yes"/>
      <point x="527" y="194"/>
      <point x="463" y="124"/>
      <point x="363" y="124" type="curve" smooth="yes"/>
      <point x="262" y="124"/>
      <point x="197" y="194"/>
      <point x="197" y="302" type="curve" smooth="yes"/>
      <point x="197" y="700" type="line"/>
      <point x="52" y="700" type="line"/>
      <point x="52" y="302" type="line" smooth="yes"/>
      <point x="52" y="111"/>
      <point x="173" y="-10"/>
    </contour>
  </outline>
</glyph>
<glyph name="V" format="2">
  <advance width="732"/>
  <unicode hex="0056"/>
  <outline>
    <contour>
      <point x="280" y="0" type="line"/>
      <point x="448" y="0" type="line"/>
      <point x="736" y="700" type="line"/>
      <point x="586" y="700" type="line"/>
      <point x="367" y="149" type="line"/>
      <point x="153" y="700" type="line"/>
      <point x="-4" y="700" type="line"/>
    </contour>
  </outline>
</glyph>
<glyph name="W" format="2">
  <advance width="944"/>
  <unicode hex="0057"/>
  <anchor x="470" y="700" name="top"/>
  <outline>
    <contour>
      <point x="181" y="0" type="line"/>
      <point x="333" y="0" type="line"/>
      <point x="473" y="488" type="line"/>
      <point x="611" y="0" type="line"/>
      <point x="764" y="0" type="line"/>
      <point x="918" y="700" type="line"/>
      <point x="774" y="700" type="line"/>
      <point x="679" y="227" type="line"/>
      <point x="543" y="700" type="line"/>
      <point x="406" y="700" type="line"/>
      <point x="270" y="227" type="line"/>
      <point x="175" y="700" type="line"/>
      <point x="26" y="700" type="line"/>
    </contour>
  </outline>
</glyph>
<glyph name="X" format="2">
  <advance width="700"/>
  <unicode hex="0058"/>
  <outline>
    <contour>
      <point x="-3" y="0" type="line"/>
      <point x="164" y="0" type="line"/>
      <point x="347" y="254" type="line"/>
      <point x="530" y="0" type="line"/>
      <point x="703" y="0" type="line"/>
      <point x="433" y="362" type="line"/>
      <point x="682" y="700" type="line"/>
      <point x="515" y="700" type="line"/>
      <point x="350" y="470" type="line"/>
      <point x="184" y="700" type="line"/>
      <point x="11" y="700" type="line"/>
      <point x="264" y="362" type="line"/>
    </contour>
  </outline>
</glyph>
<glyph name="bracketleft" format="2">
  <advance width="394"/>
  <unicode hex="005B"/>
  <outline>
    <contour>
      <point x="56" y="-213" type="line"/>
      <point x="356" y="-213" type="line"/>
      <point x="356" y="-105" type="line"/>
      <point x="186" y="-105" type="line"/>
      <point x="186" y="593" type="line"/>
      <point x="356" y="593" type="line"/>
      <point x="356" y="700" type="line"/>
      <point x="56" y="700" type="line"/>
    </contour>
  </outline>
</glyph>
<glyph name="backslash" format="2">
  <advance width="520"/>
  <unicode hex="005C"/>
  <outline>
    <contour>
      <point x="439" y="-208" type="line"/>
      <point x="577" y="-208" type="line"/>
      <point x="169" y="700" type="line"/>
      <point x="31" y="700" type="line"/>
    </contour>
  </outline>
</glyph>
<glyph name="asciicircum" format="2">
  <advance width="582"/>
  <unicode hex="005E"/>
  <outline>
    <contour>
      <point x="57" y="350" type="line"/>
      <point x="166" y="350" type="line"/>
      <point x="291" y="598" type="line"/>
      <point x="416" y="350" type="line"/>
      <point x="525" y="350" type="line"/>
      <point x="348" y="700" type="line"/>
      <point x="235" y="700" type="line"/>
    </contour>
  </outline>
</glyph>
<glyph name="underscore" format="2">
  <advance width="494"/>
  <unicode hex="005F"/>
  <outline>
    <contour>
      <point x="-1" y="-176" type="line"/>
      <point x="495" y="-176" type="line"/>
      <point x="495" y="-80" type="line"/>
      <point x="-1" y="-80" type="line"/>
    </contour>
  </outline>
</glyph>
<glyph name="grave" format="2">
  <advance width="600"/>
  <unicode hex="0060"/>
  <outline>
    <contour>
      <point x="266" y="608" type="line"/>
      <point x="378" y="608" type="line"/>
      <point x="289" y="738" type="line"/>
      <point x="132" y="738" type="line"/>
    </contour>
  </outline>
</glyph>
<glyph name="a" format="2">
  <advance width="555"/>
  <unicode hex="0061"/>
  <note>
Version created Mon Aug  6 16:22:34 2018
</note>
  <anchor x="270" y="521" name="top"/>
  <anchor x="505" y="0" name="bottom"/>
  <outline>
    <contour>
      <point x="220" y="-9" type="curve" smooth="yes"/>
      <point x="278" y="-9"/>
      <point x="327" y="5"/>
      <point x="370" y="37" type="curve"/>
      <point x="370" y="0" type="line"/>
      <point x="505" y="0" type="line"/>
      <point x="505" y="338" type="line" smooth="yes"/>
      <point x="505" y="461"/>
      <point x="424" y="531"/>
      <point x="283" y="531" type="curve" smooth="yes"/>
      <point x="207" y="531"/>
      <point x="133" y="513"/>
      <point x="51" y="475" type="curve"/>
      <point x="101" y="374" type="line"/>
      <point x="167" y="404"/>
      <point x="216" y="417"/>
      <point x="260" y="417" type="curve" smooth="yes"/>
      <point x="333" y="417"/>
      <point x="370" y="386"/>
      <point x="370" y="326" type="curve" smooth="yes"/>
      <point x="370" y="288" type="line"/>
      <point x="330" y="302"/>
      <point x="287" y="309"/>
      <point x="242" y="309" type="curve" smooth="yes"/>
      <point x="109" y="309"/>
      <point x="30" y="250"/>
      <point x="30" y="151" type="curve" smooth="yes"/>
      <point x="30" y="56"/>
      <point x="107" y="-9"/>
    </contour>
    <contour>
      <point x="160" y="154" type="curve" smooth="yes"/>
      <point x="160" y="194"/>
      <point x="197" y="219"/>
      <point x="260" y="219" type="curve" smooth="yes"/>
      <point x="300" y="219"/>
      <point x="336" y="213"/>
      <point x="370" y="199" type="curve"/>
      <point x="370" y="123" type="line"/>
      <point x="339" y="100"/>
      <point x="300" y="89"/>
      <point x="255" y="89" type="curve" smooth="yes"/>
      <point x="197" y="89"/>
      <point x="160" y="114"/>
    </contour>
  </outline>
</glyph>
<glyph name="b" format="2">
  <advance width="632"/>
  <unicode hex="0062"/>
  <outline>
    <contour>
      <point x="54" y="0" type="line"/>
      <point x="189" y="0" type="line"/>
      <point x="189" y="36" type="line"/>
      <point x="230" y="8"/>
      <point x="280" y="-7"/>
      <point x="333" y="-7" type="curve" smooth="yes"/>
      <point x="484" y="-7"/>
      <point x="602" y="110"/>
      <point x="602" y="260" type="curve" smooth="yes"/>
      <point x="602" y="410"/>
      <point x="485" y="528"/>
      <point x="337" y="528" type="curve" smooth="yes"/>
      <point x="282" y="528"/>
      <point x="232" y="512"/>
      <point x="191" y="479" type="curve"/>
      <point x="191" y="723" type="line"/>
      <point x="54" y="700" type="line"/>
    </contour>
    <contour>
      <point x="315" y="109" type="curve" smooth="yes"/>
      <point x="266" y="109"/>
      <point x="221" y="127"/>
      <point x="191" y="158" type="curve"/>
      <point x="191" y="361" type="line"/>
      <point x="221" y="394"/>
      <point x="265" y="411"/>
      <point x="315" y="411" type="curve" smooth="yes"/>
      <point x="400" y="411"/>
      <point x="467" y="346"/>
      <point x="467" y="260" type="curve" smooth="yes"/>
      <point x="467" y="174"/>
      <point x="401" y="109"/>
    </contour>
  </outline>
</glyph>
<glyph name="c" format="2">
  <advance width="532"/>
  <unicode hex="0063"/>
  <anchor x="301" y="521" name="top"/>
  <anchor x="305" y="0" name="bottom"/>
  <outline>
    <contour>
      <point x="303" y="-10" type="curve" smooth="yes"/>
      <point x="383" y="-10"/>
      <point x="461" y="24"/>
      <point x="515" y="82" type="curve"/>
      <point x="433" y="168" type="line"/>
      <point x="396" y="128"/>
      <point x="356" y="110"/>
      <point x="309" y="110" type="curve" smooth="yes"/>
      <point x="228" y="110"/>
      <point x="166" y="174"/>
      <point x="166" y="260" type="curve" smooth="yes"/>
      <point x="166" y="346"/>
      <point x="227" y="412"/>
      <point x="306" y="412" type="curve" smooth="yes"/>
      <point x="355" y="412"/>
      <point x="397" y="391"/>
      <point x="435" y="349" type="curve"/>
      <point x="519" y="438" type="line"/>
      <point x="465" y="497"/>
      <point x="386" y="531"/>
      <point x="303" y="531" type="curve" smooth="yes"/>
      <point x="149" y="531"/>
      <point x="30" y="412"/>
      <point x="30" y="260" type="curve" smooth="yes"/>
      <point x="30" y="108"/>
      <point x="149" y="-10"/>
    </contour>
  </outline>
</glyph>
<glyph name="d" format="2">
  <advance width="632"/>
  <unicode hex="0064"/>
  <outline>
    <contour>
      <point x="295" y="-7" type="curve" smooth="yes"/>
      <point x="350" y="-7"/>
      <point x="401" y="10"/>
      <point x="443" y="43" type="curve"/>
      <point x="443" y="0" type="line"/>
      <point x="578" y="0" type="line"/>
      <point x="578" y="723" type="line"/>
      <point x="441" y="700" type="line"/>
      <point x="441" y="487" type="line"/>
      <point x="399" y="514"/>
      <point x="350" y="528"/>
      <point x="299" y="528" type="curve" smooth="yes"/>
      <point x="148" y="528"/>
      <point x="30" y="411"/>
      <point x="30" y="261" type="curve" smooth="yes"/>
      <point x="30" y="111"/>
      <point x="147" y="-7"/>
    </contour>
    <contour>
      <point x="317" y="110" type="curve" smooth="yes"/>
      <point x="231" y="110"/>
      <point x="165" y="176"/>
      <point x="165" y="261" type="curve" smooth="yes"/>
      <point x="165" y="347"/>
      <point x="231" y="412"/>
      <point x="317" y="412" type="curve" smooth="yes"/>
      <point x="366" y="412"/>
      <point x="411" y="394"/>
      <point x="441" y="363" type="curve"/>
      <point x="441" y="160" type="line"/>
      <point x="410" y="127"/>
      <point x="367" y="110"/>
    </contour>
  </outline>
</glyph>
<glyph name="e" format="2">
  <advance width="586"/>
  <unicode hex="0065"/>
  <anchor x="296" y="521" name="top"/>
  <anchor x="394" y="0" name="bottom"/>
  <outline>
    <contour>
      <point x="309" y="-10" type="curve" smooth="yes"/>
      <point x="393" y="-10"/>
      <point x="457" y="13"/>
      <point x="521" y="65" type="curve"/>
      <point x="431" y="147" type="line"/>
      <point x="404" y="120"/>
      <point x="362" y="105"/>
      <point x="316" y="105" type="curve" smooth="yes"/>
      <point x="244" y="105"/>
      <point x="188" y="150"/>
      <point x="170" y="214" type="curve"/>
      <point x="556" y="214" type="line"/>
      <point x="556" y="250" type="line" smooth="yes"/>
      <point x="556" y="410"/>
      <point x="446" y="530"/>
      <point x="298" y="530" type="curve" smooth="yes"/>
      <point x="148" y="530"/>
      <point x="30" y="411"/>
      <point x="30" y="260" type="curve" smooth="yes"/>
      <point x="30" y="108"/>
      <point x="152" y="-10"/>
    </contour>
    <contour>
      <point x="168" y="312" type="line"/>
      <point x="183" y="376"/>
      <point x="232" y="417"/>
      <point x="295" y="417" type="curve" smooth="yes"/>
      <point x="356" y="417"/>
      <point x="406" y="374"/>
      <point x="421" y="312" type="curve"/>
    </contour>
  </outline>
</glyph>
<glyph name="f" format="2">
  <advance width="431"/>
  <unicode hex="0066"/>
  <outline>
    <contour>
      <point x="134" y="0" type="line"/>
      <point x="271" y="0" type="line"/>
      <point x="271" y="407" type="line"/>
      <point x="413" y="407" type="line"/>
      <point x="413" y="521" type="line"/>
      <point x="271" y="521" type="line"/>
      <point x="271" y="568" type="line" smooth="yes"/>
      <point x="271" y="614"/>
      <point x="297" y="636"/>
      <point x="349" y="636" type="curve" smooth="yes"/>
      <point x="371" y="636"/>
      <point x="388" y="633"/>
      <point x="413" y="628" type="curve"/>
      <point x="413" y="743" type="line"/>
      <point x="391" y="749"/>
      <point x="360" y="752"/>
      <point x="332" y="752" type="curve" smooth="yes"/>
      <point x="204" y="752"/>
      <point x="134" y="688"/>
      <point x="134" y="571" type="curve" smooth="yes"/>
      <point x="134" y="521" type="line"/>
      <point x="18" y="521" type="line"/>
      <point x="18" y="407" type="line"/>
      <point x="134" y="407" type="line"/>
    </contour>
  </outline>
</glyph>
<glyph name="g" format="2">
  <advance width="628"/>
  <unicode hex="0067"/>
  <note>
Version created Sun Jan 13 16:53:00 2019
</note>
  <anchor x="312" y="521" name="top"/>
  <outline>
    <contour>
      <point x="316" y="-214" type="curve" smooth="yes"/>
      <point x="483" y="-214"/>
      <point x="574" y="-137"/>
      <point x="574" y="1" type="curve" smooth="yes"/>
      <point x="574" y="521" type="line"/>
      <point x="439" y="521" type="line"/>
      <point x="439" y="487" type="line"/>
      <point x="398" y="514"/>
      <point x="349" y="529"/>
      <point x="298" y="529" type="curve" smooth="yes"/>
      <point x="148" y="529"/>
      <point x="30" y="412"/>
      <point x="30" y="264" type="curve" smooth="yes"/>
      <point x="30" y="114"/>
      <point x="147" y="-3"/>
      <point x="294" y="-3" type="curve" smooth="yes"/>
      <point x="346" y="-3"/>
      <point x="395" y="14"/>
      <point x="437" y="44" type="curve"/>
      <point x="437" y="3" type="line" smooth="yes"/>
      <point x="437" y="-66"/>
      <point x="395" y="-101"/>
      <point x="313" y="-101" type="curve" smooth="yes"/>
      <point x="258" y="-101"/>
      <point x="204" y="-88"/>
      <point x="147" y="-60" type="curve"/>
      <point x="99" y="-166" type="line"/>
      <point x="160" y="-197"/>
      <point x="236" y="-214"/>
    </contour>
    <contour>
      <point x="315" y="113" type="curve" smooth="yes"/>
      <point x="230" y="113"/>
      <point x="165" y="179"/>
      <point x="165" y="264" type="curve" smooth="yes"/>
      <point x="165" y="347"/>
      <point x="231" y="412"/>
      <point x="316" y="412" type="curve" smooth="yes"/>
      <point x="364" y="412"/>
      <point x="407" y="394"/>
      <point x="437" y="365" type="curve"/>
      <point x="437" y="161" type="line"/>
      <point x="407" y="130"/>
      <point x="365" y="113"/>
    </contour>
  </outline>
</glyph>
<glyph name="h" format="2">
  <advance width="593"/>
  <unicode hex="0068"/>
  <anchor x="121" y="700" name="top"/>
  <outline>
    <contour>
      <point x="54" y="0" type="line"/>
      <point x="191" y="0" type="line"/>
      <point x="191" y="361" type="line"/>
      <point x="215" y="394"/>
      <point x="252" y="413"/>
      <point x="298" y="413" type="curve" smooth="yes"/>
      <point x="364" y="413"/>
      <point x="406" y="370"/>
      <point x="406" y="303" type="curve" smooth="yes"/>
      <point x="406" y="0" type="line"/>
      <point x="543" y="0" type="line"/>
      <point x="543" y="323" type="line" smooth="yes"/>
      <point x="543" y="446"/>
      <point x="458" y="531"/>
      <point x="337" y="531" type="curve" smooth="yes"/>
      <point x="280" y="531"/>
      <point x="230" y="513"/>
      <point x="191" y="479" type="curve"/>
      <point x="191" y="730" type="line"/>
      <point x="54" y="700" type="line"/>
    </contour>
  </outline>
</glyph>
<glyph name="i" format="2">
  <advance width="244"/>
  <unicode hex="0069"/>
  <anchor x="122" y="521" name="top"/>
  <anchor x="191" y="0" name="bottom"/>
  <outline>
    <contour>
      <point x="54" y="0" type="line"/>
      <point x="191" y="0" type="line"/>
      <point x="191" y="521" type="line"/>
      <point x="54" y="521" type="line"/>
    </contour>
    <contour>
      <point x="122" y="583" type="curve" smooth="yes"/>
      <point x="165" y="583"/>
      <point x="200" y="619"/>
      <point x="200" y="661" type="curve" smooth="yes"/>
      <point x="200" y="704"/>
      <point x="165" y="739"/>
      <point x="122" y="739" type="curve" smooth="yes"/>
      <point x="79" y="739"/>
      <point x="44" y="704"/>
      <point x="44" y="661" type="curve" smooth="yes"/>
      <point x="44" y="619"/>
      <point x="79" y="583"/>
    </contour>
  </outline>
</glyph>
<glyph name="j" format="2">
  <advance width="244"/>
  <unicode hex="006A"/>
  <outline>
    <contour>
      <point x="122" y="583" type="curve" smooth="yes"/>
      <point x="165" y="583"/>
      <point x="200" y="619"/>
      <point x="200" y="661" type="curve" smooth="yes"/>
      <point x="200" y="704"/>
      <point x="165" y="739"/>
      <point x="122" y="739" type="curve" smooth="yes"/>
      <point x="79" y="739"/>
      <point x="44" y="704"/>
      <point x="44" y="661" type="curve" smooth="yes"/>
      <point x="44" y="619"/>
      <point x="79" y="583"/>
    </contour>
    <contour>
      <point x="22" y="-214" type="curve" smooth="yes"/>
      <point x="129" y="-214"/>
      <point x="191" y="-158"/>
      <point x="191" y="-59" type="curve" smooth="yes"/>
      <point x="191" y="521" type="line"/>
      <point x="54" y="521" type="line"/>
      <point x="54" y="-51" type="line" smooth="yes"/>
      <point x="54" y="-88"/>
      <point x="36" y="-104"/>
      <point x="-5" y="-104" type="curve" smooth="yes"/>
      <point x="-23" y="-104"/>
      <point x="-35" y="-103"/>
      <point x="-49" y="-100" type="curve"/>
      <point x="-49" y="-205" type="line"/>
      <point x="-33" y="-210"/>
      <point x="-4" y="-214"/>
    </contour>
  </outline>
</glyph>
<glyph name="l" format="2">
  <advance width="244"/>
  <unicode hex="006C"/>
  <anchor x="122" y="700" name="top"/>
  <anchor x="122" y="0" name="bottom"/>
  <outline>
    <contour>
      <point x="54" y="0" type="line"/>
      <point x="191" y="0" type="line"/>
      <point x="191" y="723" type="line"/>
      <point x="54" y="700" type="line"/>
    </contour>
  </outline>
</glyph>
<glyph name="m" format="2">
  <advance width="906"/>
  <unicode hex="006D"/>
  <outline>
    <contour>
      <point x="54" y="0" type="line"/>
      <point x="191" y="0" type="line"/>
      <point x="191" y="365" type="line"/>
      <point x="214" y="397"/>
      <point x="247" y="413"/>
      <point x="288" y="413" type="curve" smooth="yes"/>
      <point x="348" y="413"/>
      <point x="386" y="370"/>
      <point x="386" y="303" type="curve" smooth="yes"/>
      <point x="386" y="0" type="line"/>
      <point x="523" y="0" type="line"/>
      <point x="523" y="323" type="line" smooth="yes"/>
      <point x="523" y="337"/>
      <point x="522" y="349"/>
      <point x="520" y="361" type="curve"/>
      <point x="544" y="395"/>
      <point x="579" y="413"/>
      <point x="620" y="413" type="curve" smooth="yes"/>
      <point x="680" y="413"/>
      <point x="719" y="370"/>
      <point x="719" y="303" type="curve" smooth="yes"/>
      <point x="719" y="0" type="line"/>
      <point x="855" y="0" type="line"/>
      <point x="855" y="323" type="line" smooth="yes"/>
      <point x="855" y="446"/>
      <point x="773" y="531"/>
      <point x="656" y="531" type="curve" smooth="yes"/>
      <point x="585" y="531"/>
      <point x="527" y="504"/>
      <point x="484" y="453" type="curve"/>
      <point x="450" y="502"/>
      <point x="394" y="531"/>
      <point x="327" y="531" type="curve" smooth="yes"/>
      <point x="274" y="531"/>
      <point x="228" y="514"/>
      <point x="191" y="481" type="curve"/>
      <point x="191" y="521" type="line"/>
      <point x="54" y="521" type="line"/>
    </contour>
  </outline>
</glyph>
<glyph name="n" format="2">
  <advance width="593"/>
  <unicode hex="006E"/>
  <anchor x="299" y="521" name="top"/>
  <anchor x="299" y="0" name="bottom"/>
  <outline>
    <contour>
      <point x="54" y="0" type="line"/>
      <point x="191" y="0" type="line"/>
      <point x="191" y="361" type="line"/>
      <point x="215" y="394"/>
      <point x="252" y="413"/>
      <point x="298" y="413" type="curve" smooth="yes"/>
      <point x="364" y="413"/>
      <point x="406" y="370"/>
      <point x="406" y="303" type="curve"/>
      <point x="406" y="0" type="line"/>
      <point x="543" y="0" type="line"/>
      <point x="543" y="323" type="line" smooth="yes"/>
      <point x="543" y="446"/>
      <point x="458" y="531"/>
      <point x="337" y="531" type="curve"/>
      <point x="280" y="531"/>
      <point x="230" y="513"/>
      <point x="191" y="479" type="curve"/>
      <point x="191" y="521" type="line"/>
      <point x="54" y="521" type="line"/>
    </contour>
  </outline>
</glyph>
<glyph name="o" format="2">
  <advance width="616"/>
  <unicode hex="006F"/>
  <anchor x="308" y="521" name="top"/>
  <outline>
    <contour>
      <point x="308" y="-10" type="curve" smooth="yes"/>
      <point x="464" y="-10"/>
      <point x="586" y="108"/>
      <point x="586" y="260" type="curve" smooth="yes"/>
      <point x="586" y="412"/>
      <point x="464" y="531"/>
      <point x="308" y="531" type="curve" smooth="yes"/>
      <point x="152" y="531"/>
      <point x="30" y="412"/>
      <point x="30" y="260" type="curve" smooth="yes"/>
      <point x="30" y="108"/>
      <point x="152" y="-10"/>
    </contour>
    <contour>
      <point x="308" y="109" type="curve" smooth="yes"/>
      <point x="227" y="109"/>
      <point x="164" y="175"/>
      <point x="164" y="260" type="curve" smooth="yes"/>
      <point x="164" y="345"/>
      <point x="228" y="412"/>
      <point x="308" y="412" type="curve" smooth="yes"/>
      <point x="389" y="412"/>
      <point x="453" y="345"/>
      <point x="453" y="260" type="curve" smooth="yes"/>
      <point x="453" y="175"/>
      <point x="389" y="109"/>
    </contour>
  </outline>
</glyph>
<glyph name="p" format="2">
  <advance width="632"/>
  <unicode hex="0070"/>
  <outline>
    <contour>
      <point x="54" y="-204" type="line"/>
      <point x="191" y="-204" type="line"/>
      <point x="191" y="34" type="line"/>
      <point x="232" y="7"/>
      <point x="281" y="-7"/>
      <point x="333" y="-7" type="curve" smooth="yes"/>
      <point x="484" y="-7"/>
      <point x="602" y="110"/>
      <point x="602" y="260" type="curve" smooth="yes"/>
      <point x="602" y="410"/>
      <point x="485" y="528"/>
      <point x="337" y="528" type="curve" smooth="yes"/>
      <point x="282" y="528"/>
      <point x="231" y="511"/>
      <point x="189" y="478" type="curve"/>
      <point x="189" y="521" type="line"/>
      <point x="54" y="521" type="line"/>
    </contour>
    <contour>
      <point x="315" y="109" type="curve" smooth="yes"/>
      <point x="266" y="109"/>
      <point x="221" y="127"/>
      <point x="191" y="158" type="curve"/>
      <point x="191" y="361" type="line"/>
      <point x="221" y="394"/>
      <point x="265" y="411"/>
      <point x="315" y="411" type="curve" smooth="yes"/>
      <point x="400" y="411"/>
      <point x="467" y="346"/>
      <point x="467" y="260" type="curve" smooth="yes"/>
      <point x="467" y="174"/>
      <point x="401" y="109"/>
    </contour>
  </outline>
</glyph>
<glyph name="q" format="2">
  <advance width="632"/>
  <unicode hex="0071"/>
  <outline>
    <contour>
      <point x="441" y="-204" type="line"/>
      <point x="578" y="-204" type="line"/>
      <point x="578" y="521" type="line"/>
      <point x="443" y="521" type="line"/>
      <point x="443" y="486" type="line"/>
      <point x="401" y="513"/>
      <point x="352" y="528"/>
      <point x="299" y="528" type="curve" smooth="yes"/>
      <point x="148" y="528"/>
      <point x="30" y="411"/>
      <point x="30" y="261" type="curve" smooth="yes"/>
      <point x="30" y="111"/>
      <point x="147" y="-7"/>
      <point x="295" y="-7" type="curve" smooth="yes"/>
      <point x="349" y="-7"/>
      <point x="399" y="9"/>
      <point x="441" y="41" type="curve"/>
    </contour>
    <contour>
      <point x="317" y="110" type="curve" smooth="yes"/>
      <point x="231" y="110"/>
      <point x="165" y="176"/>
      <point x="165" y="261" type="curve" smooth="yes"/>
      <point x="165" y="347"/>
      <point x="231" y="412"/>
      <point x="317" y="412" type="curve" smooth="yes"/>
      <point x="366" y="412"/>
      <point x="411" y="394"/>
      <point x="441" y="363" type="curve"/>
      <point x="441" y="160" type="line"/>
      <point x="410" y="127"/>
      <point x="367" y="110"/>
    </contour>
  </outline>
</glyph>
<glyph name="r" format="2">
  <advance width="408"/>
  <unicode hex="0072"/>
  <anchor x="231" y="521" name="top"/>
  <anchor x="119" y="0" name="bottom"/>
  <outline>
    <contour>
      <point x="54" y="0" type="line"/>
      <point x="191" y="0" type="line"/>
      <point x="191" y="338" type="line"/>
      <point x="217" y="387"/>
      <point x="263" y="415"/>
      <point x="317" y="415" type="curve" smooth="yes"/>
      <point x="342" y="415"/>
      <point x="367" y="410"/>
      <point x="387" y="401" type="curve"/>
      <point x="387" y="521" type="line"/>
      <point x="373" y="529"/>
      <point x="358" y="532"/>
      <point x="330" y="533" type="curve" smooth="yes"/>
      <point x="272" y="533"/>
      <point x="224" y="508"/>
      <point x="191" y="463" type="curve"/>
      <point x="191" y="521" type="line"/>
      <point x="54" y="521" type="line"/>
    </contour>
  </outline>
</glyph>
<glyph name="s" format="2">
  <advance width="491"/>
  <unicode hex="0073"/>
  <note>
Version created Fri Aug  3 17:49:29 2018
</note>
  <anchor x="241" y="521" name="top"/>
  <anchor x="250" y="0" name="bottom"/>
  <outline>
    <contour>
      <point x="249" y="-10" type="curve" smooth="yes"/>
      <point x="380" y="-10"/>
      <point x="477" y="63"/>
      <point x="477" y="162" type="curve" smooth="yes"/>
      <point x="477" y="243"/>
      <point x="420" y="296"/>
      <point x="318" y="311" type="curve" smooth="yes"/>
      <point x="218" y="326" type="line" smooth="yes"/>
      <point x="167" y="333"/>
      <point x="147" y="347"/>
      <point x="147" y="376" type="curve" smooth="yes"/>
      <point x="147" y="406"/>
      <point x="180" y="427"/>
      <point x="229" y="427" type="curve" smooth="yes"/>
      <point x="282" y="427"/>
      <point x="333" y="411"/>
      <point x="390" y="376" type="curve"/>
      <point x="456" y="465" type="line"/>
      <point x="391" y="508"/>
      <point x="318" y="530"/>
      <point x="242" y="530" type="curve" smooth="yes"/>
      <point x="109" y="530"/>
      <point x="25" y="465"/>
      <point x="25" y="365" type="curve" smooth="yes"/>
      <point x="25" y="281"/>
      <point x="80" y="228"/>
      <point x="183" y="213" type="curve" smooth="yes"/>
      <point x="283" y="198" type="line" smooth="yes"/>
      <point x="328" y="191"/>
      <point x="348" y="176"/>
      <point x="348" y="149" type="curve" smooth="yes"/>
      <point x="348" y="115"/>
      <point x="308" y="93"/>
      <point x="247" y="93" type="curve" smooth="yes"/>
      <point x="192" y="93"/>
      <point x="139" y="112"/>
      <point x="78" y="153" type="curve"/>
      <point x="10" y="62" type="line"/>
      <point x="69" y="15"/>
      <point x="154" y="-10"/>
    </contour>
  </outline>
</glyph>
<glyph name="t" format="2">
  <advance width="424"/>
  <unicode hex="0074"/>
  <anchor x="258" y="0" name="bottom"/>
  <outline>
    <contour>
      <point x="301" y="-8" type="curve" smooth="yes"/>
      <point x="331" y="-8"/>
      <point x="378" y="-2"/>
      <point x="407" y="7" type="curve"/>
      <point x="407" y="120" type="line"/>
      <point x="380" y="111"/>
      <point x="360" y="108"/>
      <point x="334" y="108" type="curve" smooth="yes"/>
      <point x="281" y="108"/>
      <point x="262" y="126"/>
      <point x="262" y="175" type="curve" smooth="yes"/>
      <point x="262" y="407" type="line"/>
      <point x="411" y="407" type="line"/>
      <point x="411" y="521" type="line"/>
      <point x="262" y="521" type="line"/>
      <point x="262" y="685" type="line"/>
      <point x="125" y="654" type="line"/>
      <point x="125" y="521" type="line"/>
      <point x="18" y="521" type="line"/>
      <point x="18" y="407" type="line"/>
      <point x="125" y="407" type="line"/>
      <point x="125" y="147" type="line" smooth="yes"/>
      <point x="125" y="45"/>
      <point x="185" y="-8"/>
    </contour>
  </outline>
</glyph>
<glyph name="u" format="2">
  <advance width="593"/>
  <unicode hex="0075"/>
  <anchor x="297" y="521" name="top"/>
  <anchor x="541" y="0" name="bottom"/>
  <outline>
    <contour>
      <point x="256" y="-10" type="curve" smooth="yes"/>
      <point x="314" y="-10"/>
      <point x="364" y="8"/>
      <point x="403" y="42" type="curve"/>
      <point x="403" y="0" type="line"/>
      <point x="540" y="0" type="line"/>
      <point x="540" y="521" type="line"/>
      <point x="403" y="521" type="line"/>
      <point x="403" y="160" type="line"/>
      <point x="378" y="127"/>
      <point x="342" y="108"/>
      <point x="295" y="108" type="curve" smooth="yes"/>
      <point x="230" y="108"/>
      <point x="187" y="151"/>
      <point x="187" y="218" type="curve" smooth="yes"/>
      <point x="187" y="521" type="line"/>
      <point x="50" y="521" type="line"/>
      <point x="50" y="198" type="line" smooth="yes"/>
      <point x="50" y="75"/>
      <point x="135" y="-10"/>
    </contour>
  </outline>
</glyph>
<glyph name="v" format="2">
  <advance width="580"/>
  <unicode hex="0076"/>
  <outline>
    <contour>
      <point x="223" y="0" type="line"/>
      <point x="356" y="0" type="line"/>
      <point x="580" y="521" type="line"/>
      <point x="434" y="521" type="line"/>
      <point x="292" y="174" type="line"/>
      <point x="149" y="521" type="line"/>
      <point x="0" y="521" type="line"/>
    </contour>
  </outline>
</glyph>
<glyph name="w" format="2">
  <advance width="772"/>
  <unicode hex="0077"/>
  <anchor x="386" y="521" name="top"/>
  <outline>
    <contour>
      <point x="153" y="0" type="line"/>
      <point x="285" y="0" type="line"/>
      <point x="386" y="333" type="line"/>
      <point x="487" y="0" type="line"/>
      <point x="618" y="0" type="line"/>
      <point x="762" y="521" type="line"/>
      <point x="634" y="521" type="line"/>
      <point x="548" y="184" type="line"/>
      <point x="445" y="521" type="line"/>
      <point x="330" y="521" type="line"/>
      <point x="226" y="185" type="line"/>
      <point x="140" y="521" type="line"/>
      <point x="10" y="521" type="line"/>
    </contour>
  </outline>
</glyph>
<glyph name="y" format="2">
  <advance width="577"/>
  <unicode hex="0079"/>
  <anchor x="287" y="521" name="top"/>
  <outline>
    <contour>
      <point x="105" y="-215" type="curve" smooth="yes"/>
      <point x="218" y="-215"/>
      <point x="281" y="-168"/>
      <point x="336" y="-41" type="curve" smooth="yes"/>
      <point x="576" y="521" type="line"/>
      <point x="428" y="521" type="line"/>
      <point x="281" y="166" type="line"/>
      <point x="151" y="521" type="line"/>
      <point x="0" y="521" type="line"/>
      <point x="203" y="-5" type="line"/>
      <point x="195" y="-25" type="line" smooth="yes"/>
      <point x="175" y="-72"/>
      <point x="140" y="-96"/>
      <point x="91" y="-96" type="curve" smooth="yes"/>
      <point x="71" y="-96"/>
      <point x="58" y="-95"/>
      <point x="43" y="-92" type="curve"/>
      <point x="43" y="-210" type="line"/>
      <point x="58" y="-213"/>
      <point x="81" y="-215"/>
    </contour>
  </outline>
</glyph>
<glyph name="z" format="2">
  <advance width="500"/>
  <unicode hex="007A"/>
  <anchor x="245" y="521" name="top"/>
  <outline>
    <contour>
      <point x="27" y="0" type="line"/>
      <point x="471" y="0" type="line"/>
      <point x="471" y="115" type="line"/>
      <point x="202" y="115" type="line"/>
      <point x="465" y="424" type="line"/>
      <point x="465" y="521" type="line"/>
      <point x="29" y="521" type="line"/>
      <point x="29" y="406" type="line"/>
      <point x="289" y="406" type="line"/>
      <point x="27" y="97" type="line"/>
    </contour>
  </outline>
</glyph>
<glyph name="braceleft" format="2">
  <advance width="429"/>
  <unicode hex="007B"/>
  <outline>
    <contour>
      <point x="290" y="-218" type="curve" smooth="yes"/>
      <point x="324" y="-218"/>
      <point x="355" y="-213"/>
      <point x="389" y="-201" type="curve"/>
      <point x="369" y="-103" type="line"/>
      <point x="348" y="-110"/>
      <point x="328" y="-114"/>
      <point x="307" y="-114" type="curve" smooth="yes"/>
      <point x="254" y="-113"/>
      <point x="231" y="-72"/>
      <point x="252" y="-15" type="curve" smooth="yes"/>
      <point x="289" y="85" type="line" smooth="yes"/>
      <point x="316" y="161"/>
      <point x="274" y="228"/>
      <point x="191" y="246" type="curve"/>
      <point x="274" y="264"/>
      <point x="316" y="331"/>
      <point x="289" y="407" type="curve" smooth="yes"/>
      <point x="252" y="507" type="line" smooth="yes"/>
      <point x="231" y="563"/>
      <point x="254" y="605"/>
      <point x="307" y="606" type="curve" smooth="yes"/>
      <point x="328" y="606"/>
      <point x="348" y="602"/>
      <point x="369" y="595" type="curve"/>
      <point x="389" y="693" type="line"/>
      <point x="355" y="705"/>
      <point x="324" y="710"/>
      <point x="290" y="710" type="curve" smooth="yes"/>
      <point x="156" y="710"/>
      <point x="88" y="621"/>
      <point x="132" y="502" type="curve" smooth="yes"/>
      <point x="166" y="411" type="line" smooth="yes"/>
      <point x="190" y="346"/>
      <point x="163" y="297"/>
      <point x="99" y="297" type="curve" smooth="yes"/>
      <point x="16" y="297" type="line"/>
      <point x="16" y="195" type="line"/>
      <point x="99" y="195" type="line" smooth="yes"/>
      <point x="163" y="195"/>
      <point x="190" y="146"/>
      <point x="166" y="81" type="curve" smooth="yes"/>
      <point x="132" y="-10" type="line" smooth="yes"/>
      <point x="88" y="-129"/>
      <point x="156" y="-218"/>
    </contour>
  </outline>
</glyph>
<glyph name="bar" format="2">
  <advance width="333"/>
  <unicode hex="007C"/>
  <outline>
    <contour>
      <point x="105" y="-208" type="line"/>
      <point x="228" y="-208" type="line"/>
      <point x="228" y="700" type="line"/>
      <point x="105" y="700" type="line"/>
    </contour>
  </outline>
</glyph>
<glyph name="asciitilde" format="2">
  <advance width="594"/>
  <unicode hex="007E"/>
  <outline>
    <contour>
      <point x="123" y="285" type="line"/>
      <point x="129" y="338"/>
      <point x="149" y="364"/>
      <point x="185" y="364" type="curve" smooth="yes"/>
      <point x="199" y="364"/>
      <point x="214" y="359"/>
      <point x="244" y="345" type="curve" smooth="yes"/>
      <point x="329" y="303" type="line" smooth="yes"/>
      <point x="360" y="286"/>
      <point x="393" y="278"/>
      <point x="422" y="278" type="curve" smooth="yes"/>
      <point x="499" y="278"/>
      <point x="550" y="339"/>
      <point x="563" y="448" type="curve"/>
      <point x="471" y="459" type="line"/>
      <point x="464" y="406"/>
      <point x="444" y="380"/>
      <point x="408" y="380" type="curve" smooth="yes"/>
      <point x="394" y="380"/>
      <point x="378" y="385"/>
      <point x="349" y="399" type="curve" smooth="yes"/>
      <point x="264" y="441" type="line" smooth="yes"/>
      <point x="232" y="458"/>
      <point x="201" y="466"/>
      <point x="171" y="466" type="curve" smooth="yes"/>
      <point x="94" y="466"/>
      <point x="43" y="405"/>
      <point x="31" y="296" type="curve"/>
    </contour>
  </outline>
</glyph>
<glyph name="cent" format="2">
  <advance width="532"/>
  <unicode hex="00A2"/>
  <outline>
    <contour>
      <point x="272" y="-112" type="line"/>
      <point x="334" y="-112" type="line"/>
      <point x="334" y="-8" type="line"/>
      <point x="403" y="0"/>
      <point x="468" y="32"/>
      <point x="515" y="82" type="curve"/>
      <point x="433" y="168" type="line"/>
      <point x="403" y="136"/>
      <point x="370" y="117"/>
      <point x="334" y="112" type="curve"/>
      <point x="334" y="409" type="line"/>
      <point x="371" y="403"/>
      <point x="404" y="383"/>
      <point x="435" y="349" type="curve"/>
      <point x="519" y="438" type="line"/>
      <point x="472" y="489"/>
      <point x="405" y="522"/>
      <point x="334" y="529" type="curve"/>
      <point x="334" y="620" type="line"/>
      <point x="272" y="620" type="line"/>
      <point x="272" y="530" type="line"/>
      <point x="134" y="514"/>
      <point x="30" y="402"/>
      <point x="30" y="260" type="curve" smooth="yes"/>
      <point x="30" y="118"/>
      <point x="134" y="6"/>
      <point x="272" y="-8" type="curve"/>
    </contour>
    <contour>
      <point x="166" y="260" type="curve" smooth="yes"/>
      <point x="166" y="333"/>
      <point x="210" y="392"/>
      <point x="272" y="407" type="curve"/>
      <point x="272" y="115" type="line"/>
      <point x="210" y="131"/>
      <point x="166" y="188"/>
    </contour>
  </outline>
</glyph>
<glyph name="sterling" format="2">
  <advance width="648"/>
  <unicode hex="00A3"/>
  <outline>
    <contour>
      <point x="471" y="-26" type="curve" smooth="yes"/>
      <point x="545" y="-26"/>
      <point x="599" y="9"/>
      <point x="640" y="83" type="curve"/>
      <point x="540" y="143" type="line"/>
      <point x="519" y="102"/>
      <point x="492" y="84"/>
      <point x="454" y="84" type="curve" smooth="yes"/>
      <point x="442" y="84"/>
      <point x="429" y="85"/>
      <point x="414" y="89" type="curve" smooth="yes"/>
      <point x="251" y="128" type="line"/>
      <point x="270" y="148"/>
      <point x="279" y="175"/>
      <point x="279" y="208" type="curve" smooth="yes"/>
      <point x="279" y="220"/>
      <point x="277" y="232"/>
      <point x="268" y="286" type="curve"/>
      <point x="438" y="286" type="line"/>
      <point x="438" y="375" type="line"/>
      <point x="249" y="375" type="line"/>
      <point x="235" y="450"/>
      <point x="233" y="465"/>
      <point x="233" y="480" type="curve" smooth="yes"/>
      <point x="233" y="554"/>
      <point x="276" y="598"/>
      <point x="353" y="598" type="curve" smooth="yes"/>
      <point x="422" y="598"/>
      <point x="466" y="561"/>
      <point x="488" y="492" type="curve"/>
      <point x="601" y="528" type="line"/>
      <point x="566" y="649"/>
      <point x="480" y="710"/>
      <point x="348" y="710" type="curve" smooth="yes"/>
      <point x="199" y="710"/>
      <point x="106" y="618"/>
      <point x="106" y="480" type="curve" smooth="yes"/>
      <point x="106" y="460"/>
      <point x="108" y="438"/>
      <point x="120" y="375" type="curve"/>
      <point x="40" y="375" type="line"/>
      <point x="40" y="286" type="line"/>
      <point x="137" y="286" type="line"/>
      <point x="155" y="195"/>
      <point x="156" y="188"/>
      <point x="156" y="182" type="curve" smooth="yes"/>
      <point x="156" y="164"/>
      <point x="150" y="149"/>
      <point x="138" y="139" type="curve"/>
      <point x="74" y="132"/>
      <point x="27" y="96"/>
      <point x="-10" y="29" type="curve"/>
      <point x="93" y="-36" type="line"/>
      <point x="116" y="10"/>
      <point x="142" y="30"/>
      <point x="182" y="30" type="curve" smooth="yes"/>
      <point x="193" y="30"/>
      <point x="206" y="29"/>
      <point x="220" y="26" type="curve" smooth="yes"/>
      <point x="398" y="-17" type="line" smooth="yes"/>
      <point x="424" y="-23"/>
      <point x="448" y="-26"/>
    </contour>
  </outline>
</glyph>
<glyph name="uni00A4" format="2">
  <advance width="686"/>
  <unicode hex="00A4"/>
  <outline>
    <contour>
      <point x="94" y="45" type="line"/>
      <point x="190" y="142" type="line"/>
      <point x="233" y="113"/>
      <point x="286" y="96"/>
      <point x="343" y="96" type="curve" smooth="yes"/>
      <point x="401" y="96"/>
      <point x="453" y="112"/>
      <point x="496" y="142" type="curve"/>
      <point x="595" y="44" type="line"/>
      <point x="660" y="110" type="line"/>
      <point x="563" y="206" type="line"/>
      <point x="595" y="249"/>
      <point x="614" y="304"/>
      <point x="614" y="363" type="curve" smooth="yes"/>
      <point x="614" y="423"/>
      <point x="595" y="477"/>
      <point x="563" y="520" type="curve"/>
      <point x="659" y="617" type="line"/>
      <point x="594" y="682" type="line"/>
      <point x="496" y="584" type="line"/>
      <point x="453" y="614"/>
      <point x="401" y="630"/>
      <point x="343" y="630" type="curve" smooth="yes"/>
      <point x="286" y="630"/>
      <point x="234" y="614"/>
      <point x="191" y="585" type="curve"/>
      <point x="93" y="683" type="line"/>
      <point x="27" y="617" type="line"/>
      <point x="122" y="519" type="line"/>
      <point x="91" y="476"/>
      <point x="72" y="422"/>
      <point x="72" y="363" type="curve" smooth="yes"/>
      <point x="72" y="304"/>
      <point x="91" y="250"/>
      <point x="122" y="207" type="curve"/>
      <point x="27" y="111" type="line"/>
    </contour>
    <contour>
      <point x="343" y="211" type="curve" smooth="yes"/>
      <point x="263" y="211"/>
      <point x="199" y="278"/>
      <point x="199" y="363" type="curve" smooth="yes"/>
      <point x="199" y="449"/>
      <point x="263" y="515"/>
      <point x="343" y="515" type="curve" smooth="yes"/>
      <point x="424" y="515"/>
      <point x="487" y="449"/>
      <point x="487" y="363" type="curve" smooth="yes"/>
      <point x="487" y="278"/>
      <point x="424" y="211"/>
    </contour>
  </outline>
</glyph>
<glyph name="yen" format="2">
  <advance width="710"/>
  <unicode hex="00A5"/>
  <outline>
    <contour>
      <point x="286" y="0" type="line"/>
      <point x="431" y="0" type="line"/>
      <point x="431" y="131" type="line"/>
      <point x="604" y="131" type="line"/>
      <point x="604" y="204" type="line"/>
      <point x="431" y="204" type="line"/>
      <point x="431" y="264" type="line"/>
      <point x="604" y="264" type="line"/>
      <point x="604" y="337" type="line"/>
      <point x="473" y="337" type="line"/>
      <point x="709" y="700" type="line"/>
      <point x="550" y="700" type="line"/>
      <point x="363" y="396" type="line"/>
      <point x="169" y="700" type="line"/>
      <point x="2" y="700" type="line"/>
      <point x="245" y="337" type="line"/>
      <point x="106" y="337" type="line"/>
      <point x="106" y="264" type="line"/>
      <point x="286" y="264" type="line"/>
      <point x="286" y="204" type="line"/>
      <point x="106" y="204" type="line"/>
      <point x="106" y="131" type="line"/>
      <point x="286" y="131" type="line"/>
    </contour>
  </outline>
</glyph>
<glyph name="uni00A6" format="2">
  <advance width="337"/>
  <unicode hex="00A6"/>
  <outline>
    <contour>
      <point x="105" y="288" type="line"/>
      <point x="232" y="288" type="line"/>
      <point x="232" y="700" type="line"/>
      <point x="105" y="700" type="line"/>
    </contour>
    <contour>
      <point x="105" y="-208" type="line"/>
      <point x="232" y="-208" type="line"/>
      <point x="232" y="204" type="line"/>
      <point x="105" y="204" type="line"/>
    </contour>
  </outline>
</glyph>
<glyph name="section" format="2">
  <advance width="579"/>
  <unicode hex="00A7"/>
  <outline>
    <contour>
      <point x="279" y="-54" type="curve" smooth="yes"/>
      <point x="399" y="-54"/>
      <point x="478" y="8"/>
      <point x="478" y="100" type="curve" smooth="yes"/>
      <point x="478" y="136"/>
      <point x="468" y="164"/>
      <point x="445" y="187" type="curve"/>
      <point x="506" y="212"/>
      <point x="541" y="258"/>
      <point x="541" y="320" type="curve" smooth="yes"/>
      <point x="541" y="396"/>
      <point x="501" y="435"/>
      <point x="388" y="473" type="curve" smooth="yes"/>
      <point x="284" y="508" type="line" smooth="yes"/>
      <point x="242" y="522"/>
      <point x="224" y="538"/>
      <point x="224" y="565" type="curve" smooth="yes"/>
      <point x="224" y="600"/>
      <point x="252" y="621"/>
      <point x="299" y="621" type="curve" smooth="yes"/>
      <point x="342" y="621"/>
      <point x="392" y="605"/>
      <point x="449" y="571" type="curve"/>
      <point x="502" y="654" type="line"/>
      <point x="438" y="691"/>
      <point x="369" y="710"/>
      <point x="301" y="710" type="curve" smooth="yes"/>
      <point x="180" y="710"/>
      <point x="100" y="648"/>
      <point x="100" y="554" type="curve" smooth="yes"/>
      <point x="100" y="519"/>
      <point x="111" y="490"/>
      <point x="134" y="467" type="curve"/>
      <point x="75" y="444"/>
      <point x="38" y="397"/>
      <point x="38" y="335" type="curve" smooth="yes"/>
      <point x="38" y="259"/>
      <point x="77" y="220"/>
      <point x="190" y="183" type="curve" smooth="yes"/>
      <point x="296" y="148" type="line" smooth="yes"/>
      <point x="339" y="133"/>
      <point x="355" y="116"/>
      <point x="355" y="90" type="curve" smooth="yes"/>
      <point x="355" y="56"/>
      <point x="327" y="35"/>
      <point x="281" y="35" type="curve" smooth="yes"/>
      <point x="237" y="34"/>
      <point x="188" y="50"/>
      <point x="131" y="84" type="curve"/>
      <point x="78" y="2" type="line"/>
      <point x="138" y="-34"/>
      <point x="208" y="-54"/>
    </contour>
    <contour>
      <point x="357" y="239" type="curve"/>
      <point x="351" y="241"/>
      <point x="345" y="243"/>
      <point x="339" y="245" type="curve" smooth="yes"/>
      <point x="220" y="283" type="line" smooth="yes"/>
      <point x="171" y="300"/>
      <point x="152" y="319"/>
      <point x="152" y="350" type="curve" smooth="yes"/>
      <point x="152" y="385"/>
      <point x="178" y="410"/>
      <point x="222" y="416" type="curve"/>
      <point x="228" y="414"/>
      <point x="233" y="412"/>
      <point x="240" y="410" type="curve" smooth="yes"/>
      <point x="358" y="373" type="line" smooth="yes"/>
      <point x="406" y="357"/>
      <point x="427" y="336"/>
      <point x="427" y="305" type="curve" smooth="yes"/>
      <point x="427" y="270"/>
      <point x="400" y="245"/>
    </contour>
  </outline>
</glyph>
<glyph name="dieresis" format="2">
  <advance width="600"/>
  <unicode hex="00A8"/>
  <outline>
    <contour>
      <point x="188" y="605" type="curve" smooth="yes"/>
      <point x="229" y="605"/>
      <point x="260" y="635"/>
      <point x="260" y="677" type="curve" smooth="yes"/>
      <point x="260" y="719"/>
      <point x="229" y="749"/>
      <point x="188" y="749" type="curve" smooth="yes"/>
      <point x="147" y="749"/>
      <point x="116" y="719"/>
      <point x="116" y="677" type="curve" smooth="yes"/>
      <point x="116" y="635"/>
      <point x="147" y="605"/>
    </contour>
    <contour>
      <point x="412" y="605" type="curve" smooth="yes"/>
      <point x="453" y="605"/>
      <point x="484" y="635"/>
      <point x="484" y="677" type="curve" smooth="yes"/>
      <point x="484" y="719"/>
      <point x="453" y="749"/>
      <point x="412" y="749" type="curve" smooth="yes"/>
      <point x="371" y="749"/>
      <point x="340" y="719"/>
      <point x="340" y="677" type="curve" smooth="yes"/>
      <point x="340" y="635"/>
      <point x="371" y="605"/>
    </contour>
  </outline>
</glyph>
<glyph name="copyright" format="2">
  <advance width="789"/>
  <unicode hex="00A9"/>
  <outline>
    <contour>
      <point x="402" y="161" type="curve" smooth="yes"/>
      <point x="459" y="161"/>
      <point x="514" y="185"/>
      <point x="553" y="228" type="curve"/>
      <point x="488" y="295" type="line"/>
      <point x="464" y="267"/>
      <point x="438" y="254"/>
      <point x="406" y="254" type="curve" smooth="yes"/>
      <point x="355" y="254"/>
      <point x="315" y="296"/>
      <point x="315" y="351" type="curve" smooth="yes"/>
      <point x="315" y="407"/>
      <point x="354" y="449"/>
      <point x="405" y="449" type="curve" smooth="yes"/>
      <point x="438" y="449"/>
      <point x="463" y="436"/>
      <point x="490" y="406" type="curve"/>
      <point x="555" y="474" type="line"/>
      <point x="518" y="517"/>
      <point x="461" y="541"/>
      <point x="402" y="541" type="curve" smooth="yes"/>
      <point x="293" y="541"/>
      <point x="208" y="459"/>
      <point x="208" y="351" type="curve" smooth="yes"/>
      <point x="208" y="244"/>
      <point x="293" y="161"/>
    </contour>
    <contour>
      <point x="394" y="-11" type="curve" smooth="yes"/>
      <point x="595" y="-11"/>
      <point x="752" y="148"/>
      <point x="752" y="350" type="curve" smooth="yes"/>
      <point x="752" y="552"/>
      <point x="595" y="711"/>
      <point x="394" y="711" type="curve" smooth="yes"/>
      <point x="193" y="711"/>
      <point x="36" y="552"/>
      <point x="36" y="350" type="curve" smooth="yes"/>
      <point x="36" y="148"/>
      <point x="193" y="-11"/>
    </contour>
    <contour>
      <point x="394" y="54" type="curve" smooth="yes"/>
      <point x="234" y="54"/>
      <point x="106" y="186"/>
      <point x="106" y="350" type="curve" smooth="yes"/>
      <point x="106" y="514"/>
      <point x="234" y="646"/>
      <point x="394" y="646" type="curve" smooth="yes"/>
      <point x="555" y="646"/>
      <point x="683" y="514"/>
      <point x="683" y="350" type="curve" smooth="yes"/>
      <point x="683" y="186"/>
      <point x="555" y="54"/>
    </contour>
  </outline>
</glyph>
<glyph name="ordfeminine" format="2">
  <advance width="438"/>
  <unicode hex="00AA"/>
  <outline>
    <contour>
      <point x="172" y="304" type="curve" smooth="yes"/>
      <point x="216" y="304"/>
      <point x="251" y="314"/>
      <point x="284" y="337" type="curve"/>
      <point x="284" y="311" type="line"/>
      <point x="391" y="311" type="line"/>
      <point x="391" y="564" type="line" smooth="yes"/>
      <point x="391" y="657"/>
      <point x="329" y="711"/>
      <point x="222" y="711" type="curve" smooth="yes"/>
      <point x="165" y="711"/>
      <point x="108" y="697"/>
      <point x="45" y="669" type="curve"/>
      <point x="84" y="589" type="line"/>
      <point x="135" y="610"/>
      <point x="171" y="620"/>
      <point x="203" y="620" type="curve" smooth="yes"/>
      <point x="257" y="620"/>
      <point x="284" y="598"/>
      <point x="284" y="555" type="curve" smooth="yes"/>
      <point x="284" y="529" type="line"/>
      <point x="254" y="538"/>
      <point x="223" y="543"/>
      <point x="190" y="543" type="curve" smooth="yes"/>
      <point x="88" y="543"/>
      <point x="29" y="499"/>
      <point x="29" y="425" type="curve" smooth="yes"/>
      <point x="29" y="354"/>
      <point x="87" y="304"/>
    </contour>
    <contour>
      <point x="201" y="381" type="curve"/>
      <point x="159" y="381"/>
      <point x="132" y="399"/>
      <point x="132" y="427" type="curve" smooth="yes"/>
      <point x="132" y="456"/>
      <point x="159" y="473"/>
      <point x="204" y="473" type="curve" smooth="yes"/>
      <point x="233" y="473"/>
      <point x="259" y="469"/>
      <point x="284" y="459" type="curve"/>
      <point x="284" y="405" type="line"/>
      <point x="261" y="389"/>
      <point x="233" y="381"/>
    </contour>
  </outline>
</glyph>
<glyph name="uni00AC" format="2">
  <advance width="594"/>
  <unicode hex="00AC"/>
  <outline>
    <contour>
      <point x="431" y="0" type="line"/>
      <point x="537" y="0" type="line"/>
      <point x="537" y="343" type="line"/>
      <point x="59" y="343" type="line"/>
      <point x="59" y="240" type="line"/>
      <point x="431" y="240" type="line"/>
    </contour>
  </outline>
</glyph>
<glyph name="registered" format="2">
  <advance width="487"/>
  <unicode hex="00AE"/>
  <outline>
    <contour>
      <point x="243" y="306" type="curve" smooth="yes"/>
      <point x="357" y="306"/>
      <point x="448" y="398"/>
      <point x="448" y="513" type="curve" smooth="yes"/>
      <point x="448" y="628"/>
      <point x="357" y="719"/>
      <point x="243" y="719" type="curve" smooth="yes"/>
      <point x="129" y="719"/>
      <point x="39" y="629"/>
      <point x="39" y="513" type="curve" smooth="yes"/>
      <point x="39" y="397"/>
      <point x="129" y="306"/>
    </contour>
    <contour>
      <point x="243" y="351" type="curve" smooth="yes"/>
      <point x="152" y="351"/>
      <point x="87" y="419"/>
      <point x="87" y="513" type="curve" smooth="yes"/>
      <point x="87" y="607"/>
      <point x="152" y="675"/>
      <point x="243" y="675" type="curve" smooth="yes"/>
      <point x="335" y="675"/>
      <point x="400" y="607"/>
      <point x="400" y="513" type="curve" smooth="yes"/>
      <point x="400" y="419"/>
      <point x="335" y="351"/>
    </contour>
    <contour>
      <point x="171" y="420" type="line"/>
      <point x="218" y="420" type="line"/>
      <point x="218" y="486" type="line"/>
      <point x="244" y="486" type="line"/>
      <point x="279" y="420" type="line"/>
      <point x="331" y="420" type="line"/>
      <point x="287" y="496" type="line"/>
      <point x="308" y="507"/>
      <point x="320" y="526"/>
      <point x="320" y="549" type="curve" smooth="yes"/>
      <point x="320" y="585"/>
      <point x="296" y="608"/>
      <point x="256" y="608" type="curve" smooth="yes"/>
      <point x="171" y="608" type="line"/>
    </contour>
    <contour>
      <point x="247" y="571" type="line" smooth="yes"/>
      <point x="264" y="571"/>
      <point x="273" y="562"/>
      <point x="273" y="546" type="curve" smooth="yes"/>
      <point x="273" y="530"/>
      <point x="263" y="520"/>
      <point x="246" y="520" type="curve" smooth="yes"/>
      <point x="218" y="520" type="line"/>
      <point x="218" y="571" type="line"/>
    </contour>
  </outline>
</glyph>
<glyph name="macron" format="2">
  <advance width="600"/>
  <unicode hex="00AF"/>
  <outline>
    <contour>
      <point x="140" y="625" type="line"/>
      <point x="460" y="625" type="line"/>
      <point x="460" y="711" type="line"/>
      <point x="140" y="711" type="line"/>
    </contour>
  </outline>
</glyph>
<glyph name="degree" format="2">
  <advance width="403"/>
  <unicode hex="00B0"/>
  <outline>
    <contour>
      <point x="201" y="414" type="curve" smooth="yes"/>
      <point x="287" y="414"/>
      <point x="353" y="482"/>
      <point x="353" y="563" type="curve" smooth="yes"/>
      <point x="353" y="643"/>
      <point x="287" y="711"/>
      <point x="201" y="711" type="curve" smooth="yes"/>
      <point x="115" y="711"/>
      <point x="50" y="643"/>
      <point x="50" y="563" type="curve" smooth="yes"/>
      <point x="50" y="482"/>
      <point x="115" y="414"/>
    </contour>
    <contour>
      <point x="201" y="486" type="curve" smooth="yes"/>
      <point x="158" y="486"/>
      <point x="123" y="521"/>
      <point x="123" y="563" type="curve" smooth="yes"/>
      <point x="123" y="605"/>
      <point x="158" y="639"/>
      <point x="201" y="639" type="curve" smooth="yes"/>
      <point x="244" y="639"/>
      <point x="279" y="605"/>
      <point x="279" y="563" type="curve" smooth="yes"/>
      <point x="279" y="521"/>
      <point x="244" y="486"/>
    </contour>
  </outline>
</glyph>
<glyph name="plusminus" format="2">
  <advance width="600"/>
  <unicode hex="00B1"/>
  <outline>
    <contour>
      <point x="83" y="-1" type="line"/>
      <point x="517" y="-1" type="line"/>
      <point x="517" y="101" type="line"/>
      <point x="83" y="101" type="line"/>
    </contour>
    <contour>
      <point x="248" y="199" type="line"/>
      <point x="352" y="199" type="line"/>
      <point x="352" y="357" type="line"/>
      <point x="517" y="357" type="line"/>
      <point x="517" y="459" type="line"/>
      <point x="352" y="459" type="line"/>
      <point x="352" y="616" type="line"/>
      <point x="248" y="616" type="line"/>
      <point x="248" y="459" type="line"/>
      <point x="83" y="459" type="line"/>
      <point x="83" y="357" type="line"/>
      <point x="248" y="357" type="line"/>
    </contour>
  </outline>
</glyph>
<glyph name="twosuperior" format="2">
  <advance width="307"/>
  <unicode hex="00B2"/>
  <outline>
    <contour>
      <point x="27" y="350" type="line"/>
      <point x="288" y="350" type="line"/>
      <point x="288" y="420" type="line"/>
      <point x="150" y="420" type="line"/>
      <point x="220" y="482" type="line" smooth="yes"/>
      <point x="266" y="520"/>
      <point x="285" y="553"/>
      <point x="285" y="593" type="curve" smooth="yes"/>
      <point x="285" y="660"/>
      <point x="230" y="704"/>
      <point x="151" y="705" type="curve" smooth="yes"/>
      <point x="99" y="704"/>
      <point x="51" y="684"/>
      <point x="8" y="646" type="curve"/>
      <point x="55" y="590" type="line"/>
      <point x="89" y="620"/>
      <point x="115" y="633"/>
      <point x="148" y="633" type="curve" smooth="yes"/>
      <point x="180" y="633"/>
      <point x="203" y="614"/>
      <point x="203" y="588" type="curve" smooth="yes"/>
      <point x="203" y="569"/>
      <point x="191" y="551"/>
      <point x="168" y="531" type="curve" smooth="yes"/>
      <point x="27" y="410" type="line"/>
    </contour>
  </outline>
</glyph>
<glyph name="threesuperior" format="2">
  <advance width="329"/>
  <unicode hex="00B3"/>
  <outline>
    <contour>
      <point x="159" y="345" type="curve" smooth="yes"/>
      <point x="244" y="345"/>
      <point x="306" y="388"/>
      <point x="306" y="449" type="curve" smooth="yes"/>
      <point x="306" y="484"/>
      <point x="283" y="511"/>
      <point x="248" y="524" type="curve"/>
      <point x="278" y="543"/>
      <point x="297" y="571"/>
      <point x="296" y="605" type="curve" smooth="yes"/>
      <point x="297" y="665"/>
      <point x="241" y="706"/>
      <point x="161" y="706" type="curve" smooth="yes"/>
      <point x="107" y="706"/>
      <point x="52" y="682"/>
      <point x="18" y="644" type="curve"/>
      <point x="75" y="592" type="line"/>
      <point x="104" y="622"/>
      <point x="124" y="632"/>
      <point x="158" y="632" type="curve" smooth="yes"/>
      <point x="189" y="632"/>
      <point x="211" y="617"/>
      <point x="211" y="595" type="curve" smooth="yes"/>
      <point x="211" y="571"/>
      <point x="189" y="554"/>
      <point x="156" y="554" type="curve" smooth="yes"/>
      <point x="132" y="554" type="line"/>
      <point x="132" y="487" type="line"/>
      <point x="165" y="487" type="line" smooth="yes"/>
      <point x="200" y="487"/>
      <point x="220" y="475"/>
      <point x="220" y="456" type="curve" smooth="yes"/>
      <point x="220" y="433"/>
      <point x="196" y="417"/>
      <point x="158" y="417" type="curve" smooth="yes"/>
      <point x="119" y="417"/>
      <point x="99" y="426"/>
      <point x="72" y="454" type="curve"/>
      <point x="15" y="402" type="line"/>
      <point x="47" y="366"/>
      <point x="101" y="345"/>
    </contour>
  </outline>
</glyph>
<glyph name="acute" format="2">
  <advance width="600"/>
  <unicode hex="00B4"/>
  <anchor x="300" y="521" name="_top"/>
  <outline>
    <contour>
      <point x="211" y="608" type="line"/>
      <point x="322" y="608" type="line"/>
      <point x="457" y="738" type="line"/>
      <point x="301" y="738" type="line"/>
    </contour>
  </outline>
</glyph>
<glyph name="uni00B5" format="2">
  <advance width="615"/>
  <unicode hex="00B5"/>
  <outline>
    <contour>
      <point x="63" y="-204" type="line"/>
      <point x="200" y="-204" type="line"/>
      <point x="200" y="5" type="line"/>
      <point x="217" y="-4"/>
      <point x="239" y="-9"/>
      <point x="261" y="-9" type="curve" smooth="yes"/>
      <point x="326" y="-9"/>
      <point x="377" y="24"/>
      <point x="415" y="85" type="curve"/>
      <point x="415" y="0" type="line"/>
      <point x="552" y="0" type="line"/>
      <point x="552" y="521" type="line"/>
      <point x="415" y="521" type="line"/>
      <point x="415" y="163" type="line"/>
      <point x="389" y="122"/>
      <point x="353" y="101"/>
      <point x="307" y="101" type="curve" smooth="yes"/>
      <point x="242" y="101"/>
      <point x="200" y="144"/>
      <point x="200" y="210" type="curve"/>
      <point x="200" y="521" type="line"/>
      <point x="63" y="521" type="line"/>
    </contour>
  </outline>
</glyph>
<glyph name="paragraph" format="2">
  <advance width="700"/>
  <unicode hex="00B6"/>
  <outline>
    <contour>
      <point x="314" y="0" type="line"/>
      <point x="426" y="0" type="line"/>
      <point x="426" y="252" type="line"/>
      <point x="522" y="252" type="line"/>
      <point x="522" y="0" type="line"/>
      <point x="636" y="0" type="line"/>
      <point x="636" y="700" type="line"/>
      <point x="276" y="700" type="line" smooth="yes"/>
      <point x="127" y="700"/>
      <point x="27" y="610"/>
      <point x="27" y="473" type="curve" smooth="yes"/>
      <point x="27" y="343"/>
      <point x="129" y="252"/>
      <point x="276" y="252" type="curve" smooth="yes"/>
      <point x="314" y="252" type="line"/>
    </contour>
    <contour>
      <point x="426" y="361" type="line"/>
      <point x="426" y="589" type="line"/>
      <point x="522" y="589" type="line"/>
      <point x="522" y="361" type="line"/>
    </contour>
    <contour>
      <point x="271" y="361" type="line" smooth="yes"/>
      <point x="198" y="361"/>
      <point x="149" y="407"/>
      <point x="149" y="476" type="curve" smooth="yes"/>
      <point x="149" y="543"/>
      <point x="198" y="589"/>
      <point x="271" y="589" type="curve" smooth="yes"/>
      <point x="314" y="589" type="line"/>
      <point x="314" y="361" type="line"/>
    </contour>
  </outline>
</glyph>
<glyph name="periodcentered" format="2">
  <advance width="250"/>
  <unicode hex="00B7"/>
  <outline>
    <contour>
      <point x="125" y="204" type="curve" smooth="yes"/>
      <point x="169" y="204"/>
      <point x="206" y="241"/>
      <point x="206" y="285" type="curve" smooth="yes"/>
      <point x="206" y="330"/>
      <point x="169" y="367"/>
      <point x="125" y="367" type="curve" smooth="yes"/>
      <point x="81" y="367"/>
      <point x="44" y="330"/>
      <point x="44" y="285" type="curve" smooth="yes"/>
      <point x="44" y="241"/>
      <point x="81" y="204"/>
    </contour>
  </outline>
</glyph>
<glyph name="cedilla" format="2">
  <advance width="600"/>
  <unicode hex="00B8"/>
  <outline>
    <contour>
      <point x="305" y="-236" type="curve" smooth="yes"/>
      <point x="381" y="-236"/>
      <point x="437" y="-192"/>
      <point x="437" y="-135" type="curve" smooth="yes"/>
      <point x="437" y="-85"/>
      <point x="401" y="-51"/>
      <point x="342" y="-46" type="curve"/>
      <point x="356" y="0" type="line"/>
      <point x="289" y="0" type="line"/>
      <point x="261" y="-97" type="line"/>
      <point x="303" y="-97" type="line" smooth="yes"/>
      <point x="337" y="-97"/>
      <point x="358" y="-111"/>
      <point x="358" y="-134" type="curve" smooth="yes"/>
      <point x="358" y="-158"/>
      <point x="338" y="-172"/>
      <point x="303" y="-172" type="curve" smooth="yes"/>
      <point x="276" y="-172"/>
      <point x="249" y="-162"/>
      <point x="225" y="-143" type="curve"/>
      <point x="180" y="-191" type="line"/>
      <point x="214" y="-221"/>
      <point x="255" y="-236"/>
    </contour>
  </outline>
</glyph>
<glyph name="onesuperior" format="2">
  <advance width="195"/>
  <unicode hex="00B9"/>
  <outline>
    <contour>
      <point x="89" y="350" type="line"/>
      <point x="174" y="350" type="line"/>
      <point x="174" y="700" type="line"/>
      <point x="121" y="700" type="line"/>
      <point x="16" y="658" type="line"/>
      <point x="16" y="586" type="line"/>
      <point x="89" y="615" type="line"/>
    </contour>
  </outline>
</glyph>
<glyph name="ordmasculine" format="2">
  <advance width="483"/>
  <unicode hex="00BA"/>
  <outline>
    <contour>
      <point x="241" y="301" type="curve" smooth="yes"/>
      <point x="359" y="301"/>
      <point x="452" y="391"/>
      <point x="452" y="506" type="curve" smooth="yes"/>
      <point x="452" y="621"/>
      <point x="359" y="711"/>
      <point x="241" y="711" type="curve" smooth="yes"/>
      <point x="124" y="711"/>
      <point x="31" y="621"/>
      <point x="31" y="506" type="curve" smooth="yes"/>
      <point x="31" y="391"/>
      <point x="124" y="301"/>
    </contour>
    <contour>
      <point x="241" y="396" type="curve" smooth="yes"/>
      <point x="183" y="396"/>
      <point x="137" y="444"/>
      <point x="137" y="506" type="curve" smooth="yes"/>
      <point x="137" y="568"/>
      <point x="183" y="617"/>
      <point x="241" y="617" type="curve" smooth="yes"/>
      <point x="300" y="617"/>
      <point x="345" y="568"/>
      <point x="345" y="506" type="curve" smooth="yes"/>
      <point x="345" y="444"/>
      <point x="300" y="396"/>
    </contour>
  </outline>
</glyph>
<glyph name="AE" format="2">
  <advance width="982"/>
  <unicode hex="00C6"/>
  <outline>
    <contour>
      <point x="-4" y="0" type="line"/>
      <point x="147" y="0" type="line"/>
      <point x="219" y="183" type="line"/>
      <point x="508" y="183" type="line"/>
      <point x="579" y="0" type="line"/>
      <point x="942" y="0" type="line"/>
      <point x="942" y="126" type="line"/>
      <point x="679" y="126" type="line"/>
      <point x="614" y="292" type="line"/>
      <point x="814" y="292" type="line"/>
      <point x="814" y="414" type="line"/>
      <point x="567" y="414" type="line"/>
      <point x="505" y="574" type="line"/>
      <point x="942" y="574" type="line"/>
      <point x="942" y="700" type="line"/>
      <point x="284" y="700" type="line"/>
    </contour>
    <contour>
      <point x="264" y="300" type="line"/>
      <point x="365" y="558" type="line"/>
      <point x="464" y="300" type="line"/>
    </contour>
  </outline>
</glyph>
<glyph name="Ccedilla" format="2">
  <advance width="718"/>
  <unicode hex="00C7"/>
  <outline>
    <contour>
      <point x="389" y="-236" type="curve" smooth="yes"/>
      <point x="465" y="-236"/>
      <point x="522" y="-192"/>
      <point x="522" y="-135" type="curve" smooth="yes"/>
      <point x="522" y="-85"/>
      <point x="485" y="-51"/>
      <point x="427" y="-46" type="curve"/>
      <point x="437" y="-9" type="line"/>
      <point x="538" y="-1"/>
      <point x="635" y="46"/>
      <point x="696" y="119" type="curve"/>
      <point x="601" y="213" type="line"/>
      <point x="552" y="155"/>
      <point x="487" y="124"/>
      <point x="413" y="124" type="curve" smooth="yes"/>
      <point x="283" y="124"/>
      <point x="185" y="222"/>
      <point x="185" y="350" type="curve" smooth="yes"/>
      <point x="185" y="480"/>
      <point x="282" y="578"/>
      <point x="408" y="578" type="curve" smooth="yes"/>
      <point x="484" y="578"/>
      <point x="552" y="545"/>
      <point x="602" y="483" type="curve"/>
      <point x="700" y="580" type="line"/>
      <point x="635" y="660"/>
      <point x="522" y="711"/>
      <point x="408" y="711" type="curve" smooth="yes"/>
      <point x="199" y="711"/>
      <point x="36" y="553"/>
      <point x="36" y="350" type="curve" smooth="yes"/>
      <point x="36" y="160"/>
      <point x="179" y="8"/>
      <point x="371" y="-9" type="curve"/>
      <point x="345" y="-97" type="line"/>
      <point x="387" y="-97" type="line" smooth="yes"/>
      <point x="421" y="-97"/>
      <point x="442" y="-111"/>
      <point x="442" y="-134" type="curve" smooth="yes"/>
      <point x="442" y="-158"/>
      <point x="422" y="-172"/>
      <point x="387" y="-172" type="curve" smooth="yes"/>
      <point x="360" y="-172"/>
      <point x="334" y="-162"/>
      <point x="309" y="-143" type="curve"/>
      <point x="264" y="-191" type="line"/>
      <point x="298" y="-221"/>
      <point x="340" y="-236"/>
    </contour>
  </outline>
</glyph>
<glyph name="multiply" format="2">
  <advance width="600"/>
  <unicode hex="00D7"/>
  <outline>
    <contour>
      <point x="158" y="141" type="line"/>
      <point x="299" y="292" type="line"/>
      <point x="442" y="140" type="line"/>
      <point x="505" y="207" type="line"/>
      <point x="362" y="360" type="line"/>
      <point x="505" y="512" type="line"/>
      <point x="443" y="577" type="line"/>
      <point x="301" y="425" type="line"/>
      <point x="158" y="578" type="line"/>
      <point x="95" y="511" type="line"/>
      <point x="237" y="358" type="line"/>
      <point x="96" y="206" type="line"/>
    </contour>
  </outline>
</glyph>
<glyph name="Oslash" format="2">
  <advance width="813"/>
  <unicode hex="00D8"/>
  <outline>
    <contour>
      <point x="406" y="-11" type="curve" smooth="yes"/>
      <point x="614" y="-11"/>
      <point x="776" y="148"/>
      <point x="776" y="350" type="curve" smooth="yes"/>
      <point x="776" y="449"/>
      <point x="738" y="537"/>
      <point x="674" y="601" type="curve"/>
      <point x="756" y="700" type="line"/>
      <point x="627" y="700" type="line"/>
      <point x="595" y="662" type="line"/>
      <point x="540" y="693"/>
      <point x="476" y="711"/>
      <point x="406" y="711" type="curve" smooth="yes"/>
      <point x="199" y="711"/>
      <point x="36" y="552"/>
      <point x="36" y="350" type="curve" smooth="yes"/>
      <point x="36" y="254"/>
      <point x="73" y="167"/>
      <point x="134" y="103" type="curve"/>
      <point x="49" y="0" type="line"/>
      <point x="177" y="0" type="line"/>
      <point x="212" y="42" type="line"/>
      <point x="268" y="8"/>
      <point x="334" y="-11"/>
    </contour>
    <contour>
      <point x="227" y="215" type="line"/>
      <point x="200" y="252"/>
      <point x="185" y="298"/>
      <point x="185" y="350" type="curve" smooth="yes"/>
      <point x="185" y="480"/>
      <point x="281" y="578"/>
      <point x="406" y="578" type="curve" smooth="yes"/>
      <point x="443" y="578"/>
      <point x="476" y="569"/>
      <point x="506" y="554" type="curve"/>
    </contour>
    <contour>
      <point x="406" y="122" type="curve" smooth="yes"/>
      <point x="368" y="122"/>
      <point x="331" y="132"/>
      <point x="300" y="149" type="curve"/>
      <point x="582" y="490" type="line"/>
      <point x="611" y="452"/>
      <point x="628" y="404"/>
      <point x="628" y="350" type="curve" smooth="yes"/>
      <point x="628" y="221"/>
      <point x="532" y="122"/>
    </contour>
  </outline>
</glyph>
<glyph name="Thorn" format="2">
  <advance width="679"/>
  <unicode hex="00DE"/>
  <outline>
    <contour>
      <point x="63" y="0" type="line"/>
      <point x="208" y="0" type="line"/>
      <point x="208" y="131" type="line"/>
      <point x="414" y="131" type="line" smooth="yes"/>
      <point x="547" y="131"/>
      <point x="646" y="224"/>
      <point x="646" y="348" type="curve" smooth="yes"/>
      <point x="646" y="476"/>
      <point x="548" y="570"/>
      <point x="414" y="570" type="curve" smooth="yes"/>
      <point x="208" y="570" type="line"/>
      <point x="208" y="700" type="line"/>
      <point x="63" y="700" type="line"/>
    </contour>
    <contour>
      <point x="208" y="251" type="line"/>
      <point x="208" y="446" type="line"/>
      <point x="398" y="446" type="line" smooth="yes"/>
      <point x="457" y="446"/>
      <point x="499" y="405"/>
      <point x="499" y="348" type="curve" smooth="yes"/>
      <point x="499" y="291"/>
      <point x="457" y="251"/>
      <point x="398" y="251" type="curve" smooth="yes"/>
    </contour>
  </outline>
</glyph>
<glyph name="germandbls" format="2">
  <advance width="685"/>
  <unicode hex="00DF"/>
  <outline>
    <contour>
      <point x="471" y="-11" type="curve" smooth="yes"/>
      <point x="595" y="-11"/>
      <point x="674" y="52"/>
      <point x="674" y="151" type="curve" smooth="yes"/>
      <point x="674" y="220"/>
      <point x="638" y="261"/>
      <point x="549" y="293" type="curve" smooth="yes"/>
      <point x="469" y="320" type="line" smooth="yes"/>
      <point x="431" y="334"/>
      <point x="421" y="343"/>
      <point x="421" y="363" type="curve" smooth="yes"/>
      <point x="421" y="418"/>
      <point x="593" y="429"/>
      <point x="593" y="561" type="curve" smooth="yes"/>
      <point x="593" y="662"/>
      <point x="490" y="728"/>
      <point x="331" y="728" type="curve" smooth="yes"/>
      <point x="157" y="728"/>
      <point x="54" y="632"/>
      <point x="54" y="471" type="curve" smooth="yes"/>
      <point x="54" y="0" type="line"/>
      <point x="190" y="0" type="line"/>
      <point x="190" y="468" type="line" smooth="yes"/>
      <point x="190" y="566"/>
      <point x="240" y="619"/>
      <point x="334" y="619" type="curve" smooth="yes"/>
      <point x="406" y="619"/>
      <point x="460" y="586"/>
      <point x="460" y="542" type="curve" smooth="yes"/>
      <point x="460" y="465"/>
      <point x="291" y="460"/>
      <point x="291" y="344" type="curve" smooth="yes"/>
      <point x="291" y="292"/>
      <point x="323" y="258"/>
      <point x="400" y="233" type="curve" smooth="yes"/>
      <point x="485" y="204" type="line" smooth="yes"/>
      <point x="533" y="189"/>
      <point x="549" y="173"/>
      <point x="549" y="141" type="curve" smooth="yes"/>
      <point x="549" y="106"/>
      <point x="517" y="83"/>
      <point x="465" y="83" type="curve" smooth="yes"/>
      <point x="416" y="83"/>
      <point x="370" y="103"/>
      <point x="326" y="144" type="curve"/>
      <point x="257" y="70" type="line"/>
      <point x="317" y="15"/>
      <point x="386" y="-11"/>
    </contour>
  </outline>
</glyph>
<glyph name="ae" format="2">
  <advance width="926"/>
  <unicode hex="00E6"/>
  <anchor x="270" y="521" name="top"/>
  <anchor x="505" y="0" name="bottom"/>
  <outline>
    <contour>
      <point x="220" y="-9" type="curve" smooth="yes"/>
      <point x="309" y="-9"/>
      <point x="378" y="19"/>
      <point x="441" y="80" type="curve"/>
      <point x="491" y="24"/>
      <point x="565" y="-10"/>
      <point x="650" y="-10" type="curve" smooth="yes"/>
      <point x="733" y="-10"/>
      <point x="797" y="13"/>
      <point x="861" y="65" type="curve"/>
      <point x="771" y="147" type="line"/>
      <point x="744" y="120"/>
      <point x="702" y="105"/>
      <point x="656" y="105" type="curve" smooth="yes"/>
      <point x="584" y="105"/>
      <point x="528" y="150"/>
      <point x="510" y="214" type="curve"/>
      <point x="896" y="214" type="line"/>
      <point x="896" y="250" type="line"/>
      <point x="896" y="410"/>
      <point x="787" y="530"/>
      <point x="638" y="530" type="curve" smooth="yes"/>
      <point x="569" y="530"/>
      <point x="508" y="504"/>
      <point x="463" y="458" type="curve"/>
      <point x="428" y="506"/>
      <point x="366" y="531"/>
      <point x="283" y="531" type="curve" smooth="yes"/>
      <point x="207" y="531"/>
      <point x="133" y="513"/>
      <point x="51" y="475" type="curve"/>
      <point x="101" y="374" type="line"/>
      <point x="167" y="404"/>
      <point x="216" y="417"/>
      <point x="260" y="417" type="curve" smooth="yes"/>
      <point x="333" y="417"/>
      <point x="370" y="386"/>
      <point x="370" y="326" type="curve" smooth="yes"/>
      <point x="370" y="289" type="line"/>
      <point x="330" y="302"/>
      <point x="287" y="309"/>
      <point x="243" y="309" type="curve" smooth="yes"/>
      <point x="112" y="309"/>
      <point x="33" y="250"/>
      <point x="33" y="151" type="curve" smooth="yes"/>
      <point x="33" y="56"/>
      <point x="110" y="-9"/>
    </contour>
    <contour>
      <point x="508" y="312" type="line"/>
      <point x="524" y="376"/>
      <point x="572" y="417"/>
      <point x="635" y="417" type="curve" smooth="yes"/>
      <point x="696" y="417"/>
      <point x="746" y="374"/>
      <point x="762" y="312" type="curve"/>
    </contour>
    <contour>
      <point x="255" y="89" type="curve" smooth="yes"/>
      <point x="199" y="89"/>
      <point x="164" y="114"/>
      <point x="164" y="154" type="curve" smooth="yes"/>
      <point x="164" y="194"/>
      <point x="200" y="219"/>
      <point x="261" y="219" type="curve" smooth="yes"/>
      <point x="303" y="219"/>
      <point x="342" y="212"/>
      <point x="378" y="197" type="curve"/>
      <point x="382" y="180"/>
      <point x="388" y="163"/>
      <point x="394" y="148" type="curve"/>
      <point x="354" y="109"/>
      <point x="307" y="89"/>
    </contour>
  </outline>
</glyph>
<glyph name="ccedilla" format="2">
  <advance width="532"/>
  <unicode hex="00E7"/>
  <outline>
    <contour>
      <point x="286" y="-236" type="curve" smooth="yes"/>
      <point x="361" y="-236"/>
      <point x="418" y="-192"/>
      <point x="418" y="-135" type="curve" smooth="yes"/>
      <point x="418" y="-85"/>
      <point x="381" y="-51"/>
      <point x="323" y="-46" type="curve"/>
      <point x="334" y="-8" type="line"/>
      <point x="404" y="0"/>
      <point x="468" y="32"/>
      <point x="515" y="82" type="curve"/>
      <point x="433" y="168" type="line"/>
      <point x="396" y="128"/>
      <point x="356" y="110"/>
      <point x="309" y="110" type="curve" smooth="yes"/>
      <point x="228" y="110"/>
      <point x="166" y="174"/>
      <point x="166" y="260" type="curve" smooth="yes"/>
      <point x="166" y="346"/>
      <point x="227" y="412"/>
      <point x="306" y="412" type="curve" smooth="yes"/>
      <point x="355" y="412"/>
      <point x="397" y="391"/>
      <point x="435" y="349" type="curve"/>
      <point x="519" y="438" type="line"/>
      <point x="465" y="497"/>
      <point x="386" y="531"/>
      <point x="303" y="531" type="curve" smooth="yes"/>
      <point x="149" y="531"/>
      <point x="30" y="412"/>
      <point x="30" y="260" type="curve" smooth="yes"/>
      <point x="30" y="119"/>
      <point x="131" y="9"/>
      <point x="268" y="-7" type="curve"/>
      <point x="242" y="-97" type="line"/>
      <point x="283" y="-97" type="line" smooth="yes"/>
      <point x="317" y="-97"/>
      <point x="338" y="-111"/>
      <point x="338" y="-134" type="curve" smooth="yes"/>
      <point x="338" y="-158"/>
      <point x="318" y="-172"/>
      <point x="283" y="-172" type="curve" smooth="yes"/>
      <point x="256" y="-172"/>
      <point x="230" y="-162"/>
      <point x="205" y="-143" type="curve"/>
      <point x="160" y="-191" type="line"/>
      <point x="194" y="-221"/>
      <point x="236" y="-236"/>
    </contour>
  </outline>
</glyph>
<glyph name="eth" format="2">
  <advance width="597"/>
  <unicode hex="00F0"/>
  <outline>
    <contour>
      <point x="288" y="-9" type="curve" smooth="yes"/>
      <point x="457" y="-9"/>
      <point x="562" y="115"/>
      <point x="562" y="312" type="curve" smooth="yes"/>
      <point x="562" y="437"/>
      <point x="517" y="548"/>
      <point x="434" y="634" type="curve"/>
      <point x="515" y="686" type="line"/>
      <point x="464" y="757" type="line"/>
      <point x="366" y="694" type="line"/>
      <point x="331" y="719"/>
      <point x="292" y="741"/>
      <point x="248" y="760" type="curve"/>
      <point x="178" y="668" type="line"/>
      <point x="208" y="657"/>
      <point x="235" y="644"/>
      <point x="260" y="627" type="curve"/>
      <point x="193" y="583" type="line"/>
      <point x="244" y="512" type="line"/>
      <point x="332" y="568" type="line"/>
      <point x="372" y="527"/>
      <point x="401" y="480"/>
      <point x="413" y="431" type="curve"/>
      <point x="378" y="465"/>
      <point x="330" y="484"/>
      <point x="271" y="484" type="curve" smooth="yes"/>
      <point x="141" y="484"/>
      <point x="30" y="374"/>
      <point x="30" y="246" type="curve" smooth="yes"/>
      <point x="30" y="102"/>
      <point x="143" y="-9"/>
    </contour>
    <contour>
      <point x="292" y="111" type="curve" smooth="yes"/>
      <point x="220" y="111"/>
      <point x="162" y="168"/>
      <point x="162" y="241" type="curve" smooth="yes"/>
      <point x="162" y="313"/>
      <point x="220" y="370"/>
      <point x="292" y="370" type="curve" smooth="yes"/>
      <point x="363" y="370"/>
      <point x="420" y="313"/>
      <point x="420" y="241" type="curve" smooth="yes"/>
      <point x="420" y="168"/>
      <point x="363" y="111"/>
    </contour>
  </outline>
</glyph>
<glyph name="divide" format="2">
  <advance width="600"/>
  <unicode hex="00F7"/>
  <outline>
    <contour>
      <point x="300" y="495" type="curve" smooth="yes"/>
      <point x="344" y="495"/>
      <point x="380" y="532"/>
      <point x="380" y="576" type="curve" smooth="yes"/>
      <point x="380" y="620"/>
      <point x="344" y="657"/>
      <point x="300" y="657" type="curve" smooth="yes"/>
      <point x="256" y="657"/>
      <point x="220" y="620"/>
      <point x="220" y="576" type="curve" smooth="yes"/>
      <point x="220" y="532"/>
      <point x="256" y="495"/>
    </contour>
    <contour>
      <point x="300" y="60" type="curve" smooth="yes"/>
      <point x="344" y="60"/>
      <point x="380" y="97"/>
      <point x="380" y="141" type="curve" smooth="yes"/>
      <point x="380" y="185"/>
      <point x="344" y="222"/>
      <point x="300" y="222" type="curve" smooth="yes"/>
      <point x="256" y="222"/>
      <point x="220" y="185"/>
      <point x="220" y="141" type="curve" smooth="yes"/>
      <point x="220" y="97"/>
      <point x="256" y="60"/>
    </contour>
    <contour>
      <point x="83" y="307" type="line"/>
      <point x="517" y="307" type="line"/>
      <point x="517" y="410" type="line"/>
      <point x="83" y="410" type="line"/>
    </contour>
  </outline>
</glyph>
<glyph name="oslash" format="2">
  <advance width="616"/>
  <unicode hex="00F8"/>
  <outline>
    <contour>
      <point x="308" y="-10" type="curve" smooth="yes"/>
      <point x="464" y="-10"/>
      <point x="586" y="108"/>
      <point x="586" y="260" type="curve" smooth="yes"/>
      <point x="586" y="334"/>
      <point x="557" y="400"/>
      <point x="510" y="449" type="curve"/>
      <point x="570" y="521" type="line"/>
      <point x="476" y="521" type="line"/>
      <point x="452" y="492" type="line"/>
      <point x="411" y="517"/>
      <point x="361" y="531"/>
      <point x="308" y="531" type="curve" smooth="yes"/>
      <point x="152" y="531"/>
      <point x="30" y="412"/>
      <point x="30" y="260" type="curve" smooth="yes"/>
      <point x="30" y="187"/>
      <point x="58" y="121"/>
      <point x="106" y="73" type="curve"/>
      <point x="46" y="0" type="line"/>
      <point x="139" y="0" type="line"/>
      <point x="163" y="29" type="line"/>
      <point x="205" y="4"/>
      <point x="255" y="-10"/>
    </contour>
    <contour>
      <point x="189" y="174" type="line"/>
      <point x="173" y="198"/>
      <point x="164" y="228"/>
      <point x="164" y="260" type="curve" smooth="yes"/>
      <point x="164" y="346"/>
      <point x="228" y="412"/>
      <point x="308" y="412" type="curve" smooth="yes"/>
      <point x="332" y="412"/>
      <point x="354" y="406"/>
      <point x="373" y="396" type="curve"/>
    </contour>
    <contour>
      <point x="308" y="109" type="curve" smooth="yes"/>
      <point x="284" y="109"/>
      <point x="262" y="115"/>
      <point x="243" y="126" type="curve"/>
      <point x="426" y="347" type="line"/>
      <point x="443" y="323"/>
      <point x="452" y="293"/>
      <point x="452" y="260" type="curve" smooth="yes"/>
      <point x="452" y="176"/>
      <point x="389" y="109"/>
    </contour>
  </outline>
</glyph>
<glyph name="thorn" format="2">
  <advance width="634"/>
  <unicode hex="00FE"/>
  <outline>
    <contour>
      <point x="54" y="-209" type="line"/>
      <point x="191" y="-209" type="line"/>
      <point x="191" y="34" type="line"/>
      <point x="232" y="7"/>
      <point x="281" y="-7"/>
      <point x="333" y="-7" type="curve" smooth="yes"/>
      <point x="484" y="-7"/>
      <point x="602" y="110"/>
      <point x="602" y="260" type="curve" smooth="yes"/>
      <point x="602" y="410"/>
      <point x="485" y="528"/>
      <point x="337" y="528" type="curve" smooth="yes"/>
      <point x="282" y="528"/>
      <point x="232" y="512"/>
      <point x="191" y="479" type="curve"/>
      <point x="191" y="730" type="line"/>
      <point x="54" y="700" type="line"/>
    </contour>
    <contour>
      <point x="315" y="411" type="curve" smooth="yes"/>
      <point x="400" y="411"/>
      <point x="467" y="346"/>
      <point x="467" y="260" type="curve" smooth="yes"/>
      <point x="467" y="174"/>
      <point x="401" y="109"/>
      <point x="315" y="109" type="curve" smooth="yes"/>
      <point x="266" y="109"/>
      <point x="221" y="127"/>
      <point x="191" y="158" type="curve"/>
      <point x="191" y="361" type="line"/>
      <point x="221" y="394"/>
      <point x="265" y="411"/>
    </contour>
  </outline>
</glyph>
<glyph name="Aogonek" format="2">
  <advance width="732"/>
  <unicode hex="0104"/>
  <outline>
    <contour>
      <point x="671" y="-221" type="curve" smooth="yes"/>
      <point x="702" y="-221"/>
      <point x="732" y="-213"/>
      <point x="755" y="-199" type="curve"/>
      <point x="735" y="-137" type="line"/>
      <point x="724" y="-145"/>
      <point x="709" y="-149"/>
      <point x="696" y="-149" type="curve" smooth="yes"/>
      <point x="665" y="-149"/>
      <point x="646" y="-133"/>
      <point x="646" y="-105" type="curve" smooth="yes"/>
      <point x="646" y="-70"/>
      <point x="674" y="-37"/>
      <point x="736" y="0" type="curve"/>
      <point x="452" y="700" type="line"/>
      <point x="284" y="700" type="line"/>
      <point x="-4" y="0" type="line"/>
      <point x="147" y="0" type="line"/>
      <point x="219" y="183" type="line"/>
      <point x="508" y="183" type="line"/>
      <point x="579" y="0" type="line"/>
      <point x="657" y="0" type="line"/>
      <point x="594" y="-41"/>
      <point x="566" y="-81"/>
      <point x="566" y="-129" type="curve" smooth="yes"/>
      <point x="566" y="-184"/>
      <point x="608" y="-221"/>
    </contour>
    <contour>
      <point x="264" y="300" type="line"/>
      <point x="365" y="558" type="line"/>
      <point x="464" y="300" type="line"/>
    </contour>
  </outline>
</glyph>
<glyph name="Dcroat" format="2">
  <advance width="770"/>
  <unicode hex="0110"/>
  <outline>
    <contour>
      <point x="95" y="0" type="line"/>
      <point x="364" y="0" type="line" smooth="yes"/>
      <point x="573" y="0"/>
      <point x="733" y="152"/>
      <point x="733" y="349" type="curve" smooth="yes"/>
      <point x="733" y="547"/>
      <point x="573" y="700"/>
      <point x="364" y="700" type="curve" smooth="yes"/>
      <point x="95" y="700" type="line"/>
      <point x="95" y="408" type="line"/>
      <point x="17" y="408" type="line"/>
      <point x="17" y="293" type="line"/>
      <point x="95" y="293" type="line"/>
    </contour>
    <contour>
      <point x="240" y="129" type="line"/>
      <point x="240" y="293" type="line"/>
      <point x="405" y="293" type="line"/>
      <point x="405" y="408" type="line"/>
      <point x="240" y="408" type="line"/>
      <point x="240" y="571" type="line"/>
      <point x="362" y="571" type="line" smooth="yes"/>
      <point x="487" y="571"/>
      <point x="584" y="474"/>
      <point x="584" y="349" type="curve" smooth="yes"/>
      <point x="584" y="225"/>
      <point x="487" y="129"/>
      <point x="362" y="129" type="curve" smooth="yes"/>
    </contour>
  </outline>
</glyph>
<glyph name="Eogonek" format="2">
  <advance width="645"/>
  <unicode hex="0118"/>
  <outline>
    <contour>
      <point x="623" y="-199" type="curve"/>
      <point x="604" y="-137" type="line"/>
      <point x="593" y="-145"/>
      <point x="578" y="-149"/>
      <point x="565" y="-149" type="curve" smooth="yes"/>
      <point x="534" y="-149"/>
      <point x="515" y="-133"/>
      <point x="515" y="-105" type="curve" smooth="yes"/>
      <point x="515" y="-70"/>
      <point x="543" y="-37"/>
      <point x="605" y="0" type="curve"/>
      <point x="605" y="126" type="line"/>
      <point x="208" y="126" type="line"/>
      <point x="208" y="292" type="line"/>
      <point x="467" y="292" type="line"/>
      <point x="467" y="414" type="line"/>
      <point x="208" y="414" type="line"/>
      <point x="208" y="574" type="line"/>
      <point x="601" y="574" type="line"/>
      <point x="601" y="700" type="line"/>
      <point x="63" y="700" type="line"/>
      <point x="63" y="0" type="line"/>
      <point x="525" y="0" type="line"/>
      <point x="463" y="-41"/>
      <point x="435" y="-81"/>
      <point x="435" y="-129" type="curve" smooth="yes"/>
      <point x="435" y="-184"/>
      <point x="477" y="-221"/>
      <point x="540" y="-221" type="curve" smooth="yes"/>
      <point x="571" y="-221"/>
      <point x="601" y="-213"/>
    </contour>
  </outline>
</glyph>
<glyph name="eogonek" format="2">
  <advance width="586"/>
  <unicode hex="0119"/>
  <outline>
    <contour>
      <point x="329" y="-221" type="curve" smooth="yes"/>
      <point x="360" y="-221"/>
      <point x="390" y="-213"/>
      <point x="413" y="-199" type="curve"/>
      <point x="393" y="-137" type="line"/>
      <point x="382" y="-145"/>
      <point x="367" y="-149"/>
      <point x="354" y="-149" type="curve" smooth="yes"/>
      <point x="323" y="-149"/>
      <point x="304" y="-133"/>
      <point x="304" y="-105" type="curve" smooth="yes"/>
      <point x="304" y="-70"/>
      <point x="332" y="-37"/>
      <point x="393" y="0" type="curve"/>
      <point x="439" y="10"/>
      <point x="480" y="32"/>
      <point x="521" y="65" type="curve"/>
      <point x="431" y="147" type="line"/>
      <point x="404" y="120"/>
      <point x="362" y="105"/>
      <point x="316" y="105" type="curve" smooth="yes"/>
      <point x="244" y="105"/>
      <point x="188" y="150"/>
      <point x="170" y="214" type="curve"/>
      <point x="556" y="214" type="line"/>
      <point x="556" y="250" type="line" smooth="yes"/>
      <point x="556" y="410"/>
      <point x="446" y="530"/>
      <point x="298" y="530" type="curve" smooth="yes"/>
      <point x="148" y="530"/>
      <point x="30" y="411"/>
      <point x="30" y="260" type="curve" smooth="yes"/>
      <point x="30" y="110"/>
      <point x="147" y="-4"/>
      <point x="302" y="-10" type="curve"/>
      <point x="248" y="-47"/>
      <point x="224" y="-85"/>
      <point x="224" y="-129" type="curve" smooth="yes"/>
      <point x="224" y="-184"/>
      <point x="266" y="-221"/>
    </contour>
    <contour>
      <point x="168" y="312" type="line"/>
      <point x="183" y="376"/>
      <point x="232" y="417"/>
      <point x="295" y="417" type="curve" smooth="yes"/>
      <point x="356" y="417"/>
      <point x="406" y="374"/>
      <point x="421" y="312" type="curve"/>
    </contour>
  </outline>
</glyph>
<glyph name="Hbar" format="2">
  <advance width="756"/>
  <unicode hex="0126"/>
  <outline>
    <contour>
      <point x="72" y="0" type="line"/>
      <point x="217" y="0" type="line"/>
      <point x="217" y="287" type="line"/>
      <point x="539" y="287" type="line"/>
      <point x="539" y="0" type="line"/>
      <point x="684" y="0" type="line"/>
      <point x="684" y="498" type="line"/>
      <point x="746" y="498" type="line"/>
      <point x="746" y="612" type="line"/>
      <point x="684" y="612" type="line"/>
      <point x="684" y="700" type="line"/>
      <point x="539" y="700" type="line"/>
      <point x="539" y="612" type="line"/>
      <point x="217" y="612" type="line"/>
      <point x="217" y="700" type="line"/>
      <point x="72" y="700" type="line"/>
      <point x="72" y="612" type="line"/>
      <point x="10" y="612" type="line"/>
      <point x="10" y="498" type="line"/>
      <point x="72" y="498" type="line"/>
    </contour>
    <contour>
      <point x="217" y="418" type="line"/>
      <point x="217" y="498" type="line"/>
      <point x="539" y="498" type="line"/>
      <point x="539" y="418" type="line"/>
    </contour>
  </outline>
</glyph>
<glyph name="hbar" format="2">
  <advance width="593"/>
  <unicode hex="0127"/>
  <outline>
    <contour>
      <point x="54" y="0" type="line"/>
      <point x="191" y="0" type="line"/>
      <point x="191" y="361" type="line"/>
      <point x="215" y="394"/>
      <point x="252" y="413"/>
      <point x="298" y="413" type="curve" smooth="yes"/>
      <point x="364" y="413"/>
      <point x="406" y="370"/>
      <point x="406" y="303" type="curve" smooth="yes"/>
      <point x="406" y="0" type="line"/>
      <point x="543" y="0" type="line"/>
      <point x="543" y="323" type="line" smooth="yes"/>
      <point x="543" y="446"/>
      <point x="458" y="531"/>
      <point x="337" y="531" type="curve" smooth="yes"/>
      <point x="280" y="531"/>
      <point x="230" y="513"/>
      <point x="191" y="479" type="curve"/>
      <point x="191" y="579" type="line"/>
      <point x="329" y="579" type="line"/>
      <point x="329" y="663" type="line"/>
      <point x="191" y="663" type="line"/>
      <point x="191" y="730" type="line"/>
      <point x="54" y="700" type="line"/>
      <point x="54" y="663" type="line"/>
      <point x="-4" y="663" type="line"/>
      <point x="-4" y="579" type="line"/>
      <point x="54" y="579" type="line"/>
    </contour>
  </outline>
</glyph>
<glyph name="Iogonek" format="2">
  <advance width="272"/>
  <unicode hex="012E"/>
  <outline>
    <contour>
      <point x="144" y="-221" type="curve" smooth="yes"/>
      <point x="175" y="-221"/>
      <point x="204" y="-213"/>
      <point x="227" y="-199" type="curve"/>
      <point x="208" y="-137" type="line"/>
      <point x="197" y="-145"/>
      <point x="182" y="-149"/>
      <point x="168" y="-149" type="curve" smooth="yes"/>
      <point x="137" y="-149"/>
      <point x="118" y="-133"/>
      <point x="118" y="-105" type="curve" smooth="yes"/>
      <point x="118" y="-70"/>
      <point x="146" y="-37"/>
      <point x="208" y="0" type="curve"/>
      <point x="208" y="700" type="line"/>
      <point x="63" y="700" type="line"/>
      <point x="63" y="0" type="line"/>
      <point x="129" y="0" type="line"/>
      <point x="66" y="-41"/>
      <point x="39" y="-81"/>
      <point x="39" y="-129" type="curve" smooth="yes"/>
      <point x="39" y="-184"/>
      <point x="80" y="-221"/>
    </contour>
  </outline>
</glyph>
<glyph name="iogonek" format="2">
  <advance width="244"/>
  <unicode hex="012F"/>
  <outline>
    <contour>
      <point x="122" y="583" type="curve" smooth="yes"/>
      <point x="165" y="583"/>
      <point x="200" y="619"/>
      <point x="200" y="661" type="curve" smooth="yes"/>
      <point x="200" y="704"/>
      <point x="165" y="739"/>
      <point x="122" y="739" type="curve" smooth="yes"/>
      <point x="79" y="739"/>
      <point x="44" y="704"/>
      <point x="44" y="661" type="curve" smooth="yes"/>
      <point x="44" y="619"/>
      <point x="79" y="583"/>
    </contour>
    <contour>
      <point x="126" y="-221" type="curve" smooth="yes"/>
      <point x="157" y="-221"/>
      <point x="187" y="-213"/>
      <point x="209" y="-199" type="curve"/>
      <point x="190" y="-137" type="line"/>
      <point x="179" y="-145"/>
      <point x="164" y="-149"/>
      <point x="151" y="-149" type="curve" smooth="yes"/>
      <point x="119" y="-149"/>
      <point x="100" y="-133"/>
      <point x="100" y="-105" type="curve" smooth="yes"/>
      <point x="100" y="-70"/>
      <point x="128" y="-37"/>
      <point x="191" y="0" type="curve"/>
      <point x="191" y="521" type="line"/>
      <point x="54" y="521" type="line"/>
      <point x="54" y="0" type="line"/>
      <point x="111" y="0" type="line"/>
      <point x="48" y="-41"/>
      <point x="21" y="-81"/>
      <point x="21" y="-129" type="curve" smooth="yes"/>
      <point x="21" y="-184"/>
      <point x="63" y="-221"/>
    </contour>
  </outline>
</glyph>
<glyph name="dotlessi" format="2">
  <advance width="244"/>
  <unicode hex="0131"/>
  <anchor x="122" y="521" name="top"/>
  <anchor x="128" y="0" name="bottom"/>
  <outline>
    <contour>
      <point x="54" y="0" type="line"/>
      <point x="191" y="0" type="line"/>
      <point x="191" y="521" type="line"/>
      <point x="54" y="521" type="line"/>
    </contour>
  </outline>
</glyph>
<glyph name="kgreenlandic" format="2">
  <advance width="568"/>
  <unicode hex="0138"/>
  <outline>
    <contour>
      <point x="54" y="0" type="line"/>
      <point x="191" y="0" type="line"/>
      <point x="191" y="238" type="line"/>
      <point x="411" y="0" type="line"/>
      <point x="586" y="0" type="line"/>
      <point x="325" y="282" type="line"/>
      <point x="571" y="521" type="line"/>
      <point x="416" y="521" type="line"/>
      <point x="191" y="302" type="line"/>
      <point x="191" y="521" type="line"/>
      <point x="54" y="521" type="line"/>
    </contour>
  </outline>
</glyph>
<glyph name="Lslash" format="2">
  <advance width="648"/>
  <unicode hex="0141"/>
  <outline>
    <contour>
      <point x="89" y="0" type="line"/>
      <point x="616" y="0" type="line"/>
      <point x="616" y="128" type="line"/>
      <point x="234" y="128" type="line"/>
      <point x="234" y="298" type="line"/>
      <point x="411" y="412" type="line"/>
      <point x="411" y="535" type="line"/>
      <point x="234" y="421" type="line"/>
      <point x="234" y="700" type="line"/>
      <point x="89" y="700" type="line"/>
      <point x="89" y="332" type="line"/>
      <point x="11" y="282" type="line"/>
      <point x="11" y="159" type="line"/>
      <point x="89" y="209" type="line"/>
    </contour>
  </outline>
</glyph>
<glyph name="lslash" format="2">
  <advance width="289"/>
  <unicode hex="0142"/>
  <outline>
    <contour>
      <point x="78" y="0" type="line"/>
      <point x="215" y="0" type="line"/>
      <point x="215" y="355" type="line"/>
      <point x="285" y="405" type="line"/>
      <point x="285" y="530" type="line"/>
      <point x="215" y="480" type="line"/>
      <point x="215" y="730" type="line"/>
      <point x="78" y="700" type="line"/>
      <point x="78" y="384" type="line"/>
      <point x="8" y="334" type="line"/>
      <point x="8" y="209" type="line"/>
      <point x="78" y="259" type="line"/>
    </contour>
  </outline>
</glyph>
<glyph name="Eng" format="2">
  <advance width="749"/>
  <unicode hex="014A"/>
  <outline>
    <contour>
      <point x="517" y="-212" type="curve" smooth="yes"/>
      <point x="624" y="-212"/>
      <point x="685" y="-157"/>
      <point x="685" y="-58" type="curve" smooth="yes"/>
      <point x="685" y="700" type="line"/>
      <point x="549" y="700" type="line"/>
      <point x="549" y="241" type="line"/>
      <point x="196" y="700" type="line"/>
      <point x="63" y="700" type="line"/>
      <point x="63" y="0" type="line"/>
      <point x="200" y="0" type="line"/>
      <point x="200" y="462" type="line"/>
      <point x="549" y="4" type="line"/>
      <point x="549" y="-49" type="line" smooth="yes"/>
      <point x="549" y="-86"/>
      <point x="530" y="-102"/>
      <point x="490" y="-102" type="curve" smooth="yes"/>
      <point x="471" y="-102"/>
      <point x="460" y="-101"/>
      <point x="445" y="-98" type="curve"/>
      <point x="445" y="-203" type="line"/>
      <point x="461" y="-209"/>
      <point x="493" y="-212"/>
    </contour>
  </outline>
</glyph>
<glyph name="eng" format="2">
  <advance width="593"/>
  <unicode hex="014B"/>
  <outline>
    <contour>
      <point x="375" y="-215" type="curve" smooth="yes"/>
      <point x="482" y="-215"/>
      <point x="543" y="-159"/>
      <point x="543" y="-61" type="curve" smooth="yes"/>
      <point x="543" y="323" type="line" smooth="yes"/>
      <point x="543" y="446"/>
      <point x="458" y="531"/>
      <point x="337" y="531" type="curve" smooth="yes"/>
      <point x="280" y="531"/>
      <point x="230" y="513"/>
      <point x="191" y="479" type="curve"/>
      <point x="191" y="521" type="line"/>
      <point x="54" y="521" type="line"/>
      <point x="54" y="0" type="line"/>
      <point x="191" y="0" type="line"/>
      <point x="191" y="361" type="line"/>
      <point x="215" y="394"/>
      <point x="252" y="413"/>
      <point x="298" y="413" type="curve" smooth="yes"/>
      <point x="364" y="413"/>
      <point x="406" y="370"/>
      <point x="406" y="303" type="curve" smooth="yes"/>
      <point x="406" y="-52" type="line" smooth="yes"/>
      <point x="406" y="-89"/>
      <point x="388" y="-105"/>
      <point x="348" y="-105" type="curve" smooth="yes"/>
      <point x="330" y="-105"/>
      <point x="318" y="-104"/>
      <point x="303" y="-101" type="curve"/>
      <point x="303" y="-206" type="line"/>
      <point x="320" y="-211"/>
      <point x="350" y="-215"/>
    </contour>
  </outline>
</glyph>
<glyph name="OE" format="2">
  <advance width="1100"/>
  <unicode hex="0152"/>
  <outline>
    <contour>
      <point x="400" y="0" type="curve" smooth="yes"/>
      <point x="1059" y="0" type="line"/>
      <point x="1059" y="126" type="line"/>
      <point x="670" y="126" type="line"/>
      <point x="713" y="170"/>
      <point x="743" y="228"/>
      <point x="753" y="292" type="curve"/>
      <point x="935" y="292" type="line"/>
      <point x="935" y="414" type="line"/>
      <point x="752" y="414" type="line"/>
      <point x="741" y="476"/>
      <point x="712" y="532"/>
      <point x="669" y="574" type="curve"/>
      <point x="1059" y="574" type="line"/>
      <point x="1059" y="700" type="line"/>
      <point x="400" y="700" type="line" smooth="yes"/>
      <point x="199" y="700"/>
      <point x="40" y="545"/>
      <point x="40" y="350" type="curve" smooth="yes"/>
      <point x="40" y="155"/>
      <point x="199" y="0"/>
    </contour>
    <contour>
      <point x="400" y="129" type="curve" smooth="yes"/>
      <point x="281" y="129"/>
      <point x="189" y="225"/>
      <point x="189" y="350" type="curve" smooth="yes"/>
      <point x="189" y="475"/>
      <point x="281" y="571"/>
      <point x="400" y="571" type="curve" smooth="yes"/>
      <point x="518" y="571"/>
      <point x="611" y="475"/>
      <point x="611" y="350" type="curve" smooth="yes"/>
      <point x="611" y="225"/>
      <point x="518" y="129"/>
    </contour>
  </outline>
</glyph>
<glyph name="oe" format="2">
  <advance width="1010"/>
  <unicode hex="0153"/>
  <outline>
    <contour>
      <point x="308" y="-10" type="curve" smooth="yes"/>
      <point x="394" y="-10"/>
      <point x="470" y="29"/>
      <point x="518" y="91" type="curve"/>
      <point x="567" y="29"/>
      <point x="644" y="-10"/>
      <point x="733" y="-10" type="curve" smooth="yes"/>
      <point x="817" y="-10"/>
      <point x="881" y="13"/>
      <point x="945" y="65" type="curve"/>
      <point x="855" y="147" type="line"/>
      <point x="827" y="120"/>
      <point x="786" y="105"/>
      <point x="740" y="105" type="curve" smooth="yes"/>
      <point x="668" y="105"/>
      <point x="612" y="150"/>
      <point x="594" y="214" type="curve"/>
      <point x="980" y="214" type="line"/>
      <point x="980" y="250" type="line"/>
      <point x="980" y="410"/>
      <point x="870" y="530"/>
      <point x="722" y="530" type="curve" smooth="yes"/>
      <point x="637" y="530"/>
      <point x="564" y="492"/>
      <point x="517" y="431" type="curve"/>
      <point x="469" y="492"/>
      <point x="394" y="531"/>
      <point x="308" y="531" type="curve" smooth="yes"/>
      <point x="152" y="531"/>
      <point x="30" y="412"/>
      <point x="30" y="260" type="curve" smooth="yes"/>
      <point x="30" y="108"/>
      <point x="152" y="-10"/>
    </contour>
    <contour>
      <point x="308" y="109" type="curve" smooth="yes"/>
      <point x="227" y="109"/>
      <point x="164" y="176"/>
      <point x="164" y="260" type="curve" smooth="yes"/>
      <point x="164" y="346"/>
      <point x="228" y="412"/>
      <point x="308" y="412" type="curve" smooth="yes"/>
      <point x="389" y="412"/>
      <point x="452" y="346"/>
      <point x="452" y="260" type="curve" smooth="yes"/>
      <point x="452" y="176"/>
      <point x="389" y="109"/>
    </contour>
    <contour>
      <point x="592" y="312" type="line"/>
      <point x="607" y="376"/>
      <point x="655" y="417"/>
      <point x="719" y="417" type="curve" smooth="yes"/>
      <point x="780" y="417"/>
      <point x="829" y="374"/>
      <point x="845" y="312" type="curve"/>
    </contour>
  </outline>
</glyph>
<glyph name="Scedilla" format="2">
  <advance width="631"/>
  <unicode hex="015E"/>
  <outline>
    <contour>
      <point x="290" y="-235" type="curve" smooth="yes"/>
      <point x="365" y="-235"/>
      <point x="422" y="-192"/>
      <point x="422" y="-134" type="curve" smooth="yes"/>
      <point x="422" y="-84"/>
      <point x="386" y="-50"/>
      <point x="327" y="-45" type="curve"/>
      <point x="337" y="-9" type="line"/>
      <point x="504" y="-2"/>
      <point x="609" y="84"/>
      <point x="609" y="214" type="curve" smooth="yes"/>
      <point x="609" y="322"/>
      <point x="539" y="388"/>
      <point x="399" y="411" type="curve" smooth="yes"/>
      <point x="267" y="433" type="line" smooth="yes"/>
      <point x="195" y="444"/>
      <point x="167" y="466"/>
      <point x="167" y="509" type="curve" smooth="yes"/>
      <point x="167" y="557"/>
      <point x="217" y="588"/>
      <point x="295" y="588" type="curve" smooth="yes"/>
      <point x="371" y="588"/>
      <point x="441" y="561"/>
      <point x="516" y="504" type="curve"/>
      <point x="594" y="612" type="line"/>
      <point x="516" y="673"/>
      <point x="407" y="710"/>
      <point x="305" y="710" type="curve" smooth="yes"/>
      <point x="135" y="710"/>
      <point x="30" y="629"/>
      <point x="30" y="498" type="curve" smooth="yes"/>
      <point x="30" y="396"/>
      <point x="92" y="331"/>
      <point x="212" y="311" type="curve" smooth="yes"/>
      <point x="351" y="287" type="line" smooth="yes"/>
      <point x="434" y="273"/>
      <point x="466" y="249"/>
      <point x="466" y="201" type="curve" smooth="yes"/>
      <point x="466" y="147"/>
      <point x="411" y="113"/>
      <point x="323" y="113" type="curve" smooth="yes"/>
      <point x="239" y="113"/>
      <point x="168" y="144"/>
      <point x="86" y="215" type="curve"/>
      <point x="3" y="111" type="line"/>
      <point x="77" y="43"/>
      <point x="173" y="1"/>
      <point x="272" y="-8" type="curve"/>
      <point x="246" y="-96" type="line"/>
      <point x="288" y="-96" type="line" smooth="yes"/>
      <point x="321" y="-96"/>
      <point x="342" y="-111"/>
      <point x="342" y="-133" type="curve" smooth="yes"/>
      <point x="342" y="-157"/>
      <point x="323" y="-171"/>
      <point x="288" y="-171" type="curve" smooth="yes"/>
      <point x="260" y="-171"/>
      <point x="234" y="-161"/>
      <point x="210" y="-142" type="curve"/>
      <point x="165" y="-190" type="line"/>
      <point x="199" y="-221"/>
      <point x="240" y="-235"/>
    </contour>
  </outline>
</glyph>
<glyph name="scedilla" format="2">
  <advance width="491"/>
  <unicode hex="015F"/>
  <outline>
    <contour>
      <point x="230" y="-236" type="curve" smooth="yes"/>
      <point x="306" y="-236"/>
      <point x="363" y="-192"/>
      <point x="363" y="-135" type="curve" smooth="yes"/>
      <point x="363" y="-85"/>
      <point x="326" y="-51"/>
      <point x="268" y="-46" type="curve"/>
      <point x="278" y="-8" type="line"/>
      <point x="394" y="2"/>
      <point x="477" y="71"/>
      <point x="477" y="162" type="curve" smooth="yes"/>
      <point x="477" y="243"/>
      <point x="420" y="296"/>
      <point x="318" y="311" type="curve" smooth="yes"/>
      <point x="218" y="326" type="line" smooth="yes"/>
      <point x="167" y="333"/>
      <point x="147" y="347"/>
      <point x="147" y="375" type="curve" smooth="yes"/>
      <point x="147" y="406"/>
      <point x="180" y="426"/>
      <point x="229" y="426" type="curve" smooth="yes"/>
      <point x="282" y="426"/>
      <point x="333" y="410"/>
      <point x="390" y="376" type="curve"/>
      <point x="456" y="464" type="line"/>
      <point x="391" y="507"/>
      <point x="318" y="529"/>
      <point x="242" y="529" type="curve" smooth="yes"/>
      <point x="109" y="529"/>
      <point x="25" y="465"/>
      <point x="25" y="364" type="curve" smooth="yes"/>
      <point x="25" y="281"/>
      <point x="80" y="229"/>
      <point x="183" y="213" type="curve" smooth="yes"/>
      <point x="283" y="198" type="line" smooth="yes"/>
      <point x="328" y="191"/>
      <point x="348" y="176"/>
      <point x="348" y="149" type="curve" smooth="yes"/>
      <point x="348" y="116"/>
      <point x="308" y="94"/>
      <point x="247" y="94" type="curve" smooth="yes"/>
      <point x="192" y="94"/>
      <point x="139" y="113"/>
      <point x="78" y="154" type="curve"/>
      <point x="10" y="62" type="line"/>
      <point x="61" y="21"/>
      <point x="132" y="-3"/>
      <point x="212" y="-9" type="curve"/>
      <point x="186" y="-97" type="line"/>
      <point x="228" y="-97" type="line" smooth="yes"/>
      <point x="262" y="-97"/>
      <point x="283" y="-111"/>
      <point x="283" y="-134" type="curve" smooth="yes"/>
      <point x="283" y="-158"/>
      <point x="263" y="-172"/>
      <point x="228" y="-172" type="curve" smooth="yes"/>
      <point x="201" y="-172"/>
      <point x="174" y="-162"/>
      <point x="150" y="-143" type="curve"/>
      <point x="105" y="-191" type="line"/>
      <point x="139" y="-221"/>
      <point x="181" y="-236"/>
    </contour>
  </outline>
</glyph>
<glyph name="Tcedilla" format="2">
  <advance width="652"/>
  <unicode hex="0162"/>
  <outline>
    <contour>
      <point x="306" y="-236" type="curve" smooth="yes"/>
      <point x="382" y="-236"/>
      <point x="439" y="-192"/>
      <point x="439" y="-135" type="curve" smooth="yes"/>
      <point x="439" y="-85"/>
      <point x="402" y="-51"/>
      <point x="344" y="-46" type="curve"/>
      <point x="357" y="0" type="line"/>
      <point x="399" y="0" type="line"/>
      <point x="399" y="572" type="line"/>
      <point x="634" y="572" type="line"/>
      <point x="634" y="700" type="line"/>
      <point x="18" y="700" type="line"/>
      <point x="18" y="572" type="line"/>
      <point x="254" y="572" type="line"/>
      <point x="254" y="0" type="line"/>
      <point x="291" y="0" type="line"/>
      <point x="262" y="-97" type="line"/>
      <point x="304" y="-97" type="line" smooth="yes"/>
      <point x="338" y="-97"/>
      <point x="359" y="-111"/>
      <point x="359" y="-134" type="curve" smooth="yes"/>
      <point x="359" y="-158"/>
      <point x="339" y="-172"/>
      <point x="304" y="-172" type="curve" smooth="yes"/>
      <point x="277" y="-172"/>
      <point x="251" y="-162"/>
      <point x="226" y="-143" type="curve"/>
      <point x="181" y="-191" type="line"/>
      <point x="215" y="-221"/>
      <point x="257" y="-236"/>
    </contour>
  </outline>
</glyph>
<glyph name="tcedilla" format="2">
  <advance width="424"/>
  <unicode hex="0163"/>
  <outline>
    <contour>
      <point x="248" y="-236" type="curve" smooth="yes"/>
      <point x="324" y="-236"/>
      <point x="380" y="-192"/>
      <point x="380" y="-135" type="curve" smooth="yes"/>
      <point x="380" y="-85"/>
      <point x="344" y="-51"/>
      <point x="285" y="-46" type="curve"/>
      <point x="297" y="-8" type="line"/>
      <point x="298" y="-8"/>
      <point x="300" y="-8"/>
      <point x="301" y="-8" type="curve" smooth="yes"/>
      <point x="331" y="-8"/>
      <point x="378" y="-1"/>
      <point x="407" y="8" type="curve"/>
      <point x="407" y="120" type="line"/>
      <point x="380" y="111"/>
      <point x="360" y="108"/>
      <point x="334" y="108" type="curve" smooth="yes"/>
      <point x="281" y="108"/>
      <point x="262" y="126"/>
      <point x="262" y="175" type="curve" smooth="yes"/>
      <point x="262" y="407" type="line"/>
      <point x="411" y="407" type="line"/>
      <point x="411" y="521" type="line"/>
      <point x="262" y="521" type="line"/>
      <point x="262" y="685" type="line"/>
      <point x="125" y="654" type="line"/>
      <point x="125" y="521" type="line"/>
      <point x="18" y="521" type="line"/>
      <point x="18" y="407" type="line"/>
      <point x="125" y="407" type="line"/>
      <point x="125" y="147" type="line" smooth="yes"/>
      <point x="125" y="67"/>
      <point x="162" y="18"/>
      <point x="233" y="0" type="curve"/>
      <point x="204" y="-97" type="line"/>
      <point x="246" y="-97" type="line" smooth="yes"/>
      <point x="280" y="-97"/>
      <point x="301" y="-111"/>
      <point x="301" y="-134" type="curve" smooth="yes"/>
      <point x="301" y="-158"/>
      <point x="281" y="-172"/>
      <point x="246" y="-172" type="curve" smooth="yes"/>
      <point x="219" y="-172"/>
      <point x="192" y="-162"/>
      <point x="168" y="-143" type="curve"/>
      <point x="123" y="-191" type="line"/>
      <point x="157" y="-221"/>
      <point x="198" y="-236"/>
    </contour>
  </outline>
</glyph>
<glyph name="Tbar" format="2">
  <advance width="652"/>
  <unicode hex="0166"/>
  <outline>
    <contour>
      <point x="254" y="0" type="line"/>
      <point x="399" y="0" type="line"/>
      <point x="399" y="280" type="line"/>
      <point x="535" y="280" type="line"/>
      <point x="535" y="395" type="line"/>
      <point x="399" y="395" type="line"/>
      <point x="399" y="572" type="line"/>
      <point x="634" y="572" type="line"/>
      <point x="634" y="700" type="line"/>
      <point x="18" y="700" type="line"/>
      <point x="18" y="572" type="line"/>
      <point x="254" y="572" type="line"/>
      <point x="254" y="395" type="line"/>
      <point x="117" y="395" type="line"/>
      <point x="117" y="280" type="line"/>
      <point x="254" y="280" type="line"/>
    </contour>
  </outline>
</glyph>
<glyph name="Uogonek" format="2">
  <advance width="725"/>
  <unicode hex="0172"/>
  <outline>
    <contour>
      <point x="382" y="-221" type="curve" smooth="yes"/>
      <point x="413" y="-221"/>
      <point x="442" y="-213"/>
      <point x="465" y="-199" type="curve"/>
      <point x="446" y="-137" type="line"/>
      <point x="435" y="-145"/>
      <point x="420" y="-149"/>
      <point x="406" y="-149" type="curve" smooth="yes"/>
      <point x="375" y="-149"/>
      <point x="356" y="-133"/>
      <point x="356" y="-105" type="curve" smooth="yes"/>
      <point x="356" y="-71"/>
      <point x="383" y="-38"/>
      <point x="443" y="-2" type="curve"/>
      <point x="585" y="28"/>
      <point x="672" y="141"/>
      <point x="672" y="302" type="curve" smooth="yes"/>
      <point x="672" y="700" type="line"/>
      <point x="527" y="700" type="line"/>
      <point x="527" y="302" type="line" smooth="yes"/>
      <point x="527" y="194"/>
      <point x="463" y="124"/>
      <point x="363" y="124" type="curve" smooth="yes"/>
      <point x="262" y="124"/>
      <point x="197" y="194"/>
      <point x="197" y="302" type="curve" smooth="yes"/>
      <point x="197" y="700" type="line"/>
      <point x="52" y="700" type="line"/>
      <point x="52" y="302" type="line" smooth="yes"/>
      <point x="52" y="113"/>
      <point x="169" y="-6"/>
      <point x="354" y="-10" type="curve"/>
      <point x="300" y="-48"/>
      <point x="277" y="-85"/>
      <point x="277" y="-129" type="curve" smooth="yes"/>
      <point x="277" y="-184"/>
      <point x="319" y="-221"/>
    </contour>
  </outline>
</glyph>
<glyph name="uogonek" format="2">
  <advance width="593"/>
  <unicode hex="0173"/>
  <outline>
    <contour>
      <point x="477" y="-221" type="curve" smooth="yes"/>
      <point x="508" y="-221"/>
      <point x="537" y="-213"/>
      <point x="560" y="-199" type="curve"/>
      <point x="541" y="-137" type="line"/>
      <point x="530" y="-145"/>
      <point x="515" y="-149"/>
      <point x="501" y="-149" type="curve" smooth="yes"/>
      <point x="470" y="-149"/>
      <point x="451" y="-133"/>
      <point x="451" y="-105" type="curve" smooth="yes"/>
      <point x="451" y="-70"/>
      <point x="477" y="-36"/>
      <point x="540" y="1" type="curve"/>
      <point x="540" y="521" type="line"/>
      <point x="403" y="521" type="line"/>
      <point x="403" y="160" type="line"/>
      <point x="378" y="127"/>
      <point x="342" y="108"/>
      <point x="295" y="108" type="curve" smooth="yes"/>
      <point x="230" y="108"/>
      <point x="187" y="151"/>
      <point x="187" y="218" type="curve" smooth="yes"/>
      <point x="187" y="521" type="line"/>
      <point x="50" y="521" type="line"/>
      <point x="50" y="198" type="line" smooth="yes"/>
      <point x="50" y="75"/>
      <point x="135" y="-10"/>
      <point x="256" y="-10" type="curve" smooth="yes"/>
      <point x="314" y="-10"/>
      <point x="364" y="8"/>
      <point x="403" y="42" type="curve"/>
      <point x="403" y="0" type="line"/>
      <point x="462" y="0" type="line"/>
      <point x="399" y="-41"/>
      <point x="372" y="-81"/>
      <point x="372" y="-129" type="curve" smooth="yes"/>
      <point x="372" y="-184"/>
      <point x="413" y="-221"/>
    </contour>
  </outline>
</glyph>
<glyph name="dotlessj" format="2">
  <advance width="244"/>
  <unicode hex="0237"/>
  <anchor x="122" y="521" name="top"/>
  <outline>
    <contour>
      <point x="23" y="-214" type="curve" smooth="yes"/>
      <point x="130" y="-214"/>
      <point x="191" y="-158"/>
      <point x="191" y="-60" type="curve" smooth="yes"/>
      <point x="191" y="521" type="line"/>
      <point x="54" y="521" type="line"/>
      <point x="54" y="-51" type="line" smooth="yes"/>
      <point x="54" y="-88"/>
      <point x="36" y="-104"/>
      <point x="-4" y="-104" type="curve" smooth="yes"/>
      <point x="-22" y="-104"/>
      <point x="-34" y="-103"/>
      <point x="-49" y="-100" type="curve"/>
      <point x="-49" y="-205" type="line"/>
      <point x="-33" y="-210"/>
      <point x="-2" y="-214"/>
    </contour>
  </outline>
</glyph>
<glyph name="circumflex" format="2">
  <advance width="600"/>
  <unicode hex="02C6"/>
  <outline>
    <contour>
      <point x="372" y="605" type="line"/>
      <point x="485" y="605" type="line"/>
      <point x="370" y="741" type="line"/>
      <point x="230" y="741" type="line"/>
      <point x="115" y="605" type="line"/>
      <point x="225" y="605" type="line"/>
      <point x="298" y="679" type="line"/>
    </contour>
  </outline>
</glyph>
<glyph name="caron" format="2">
  <advance width="600"/>
  <unicode hex="02C7"/>
  <outline>
    <contour>
      <point x="228" y="741" type="line"/>
      <point x="115" y="741" type="line"/>
      <point x="230" y="606" type="line"/>
      <point x="370" y="606" type="line"/>
      <point x="485" y="741" type="line"/>
      <point x="375" y="741" type="line"/>
      <point x="301" y="668" type="line"/>
    </contour>
  </outline>
</glyph>
<glyph name="breve" format="2">
  <advance width="600"/>
  <unicode hex="02D8"/>
  <outline>
    <contour>
      <point x="300" y="600" type="curve"/>
      <point x="390" y="600"/>
      <point x="454" y="649"/>
      <point x="475" y="735" type="curve"/>
      <point x="391" y="757" type="line"/>
      <point x="376" y="704"/>
      <point x="345" y="678"/>
      <point x="300" y="678" type="curve"/>
      <point x="255" y="678"/>
      <point x="225" y="703"/>
      <point x="209" y="757" type="curve"/>
      <point x="125" y="735" type="line"/>
      <point x="146" y="649"/>
      <point x="209" y="600"/>
    </contour>
  </outline>
</glyph>
<glyph name="dotaccent" format="2">
  <advance width="600"/>
  <unicode hex="02D9"/>
  <outline>
    <contour>
      <point x="300" y="602" type="curve" smooth="yes"/>
      <point x="343" y="602"/>
      <point x="375" y="633"/>
      <point x="375" y="675" type="curve" smooth="yes"/>
      <point x="375" y="716"/>
      <point x="343" y="747"/>
      <point x="300" y="747" type="curve" smooth="yes"/>
      <point x="257" y="747"/>
      <point x="225" y="716"/>
      <point x="225" y="675" type="curve" smooth="yes"/>
      <point x="225" y="633"/>
      <point x="257" y="602"/>
    </contour>
  </outline>
</glyph>
<glyph name="ring" format="2">
  <advance width="600"/>
  <unicode hex="02DA"/>
  <outline>
    <contour>
      <point x="300" y="585" type="curve" smooth="yes"/>
      <point x="368" y="585"/>
      <point x="423" y="639"/>
      <point x="423" y="705" type="curve" smooth="yes"/>
      <point x="423" y="771"/>
      <point x="368" y="826"/>
      <point x="300" y="826" type="curve" smooth="yes"/>
      <point x="232" y="826"/>
      <point x="177" y="771"/>
      <point x="177" y="705" type="curve" smooth="yes"/>
      <point x="177" y="639"/>
      <point x="232" y="585"/>
    </contour>
    <contour>
      <point x="300" y="643" type="curve" smooth="yes"/>
      <point x="265" y="643"/>
      <point x="237" y="671"/>
      <point x="237" y="705" type="curve"/>
      <point x="237" y="740"/>
      <point x="265" y="768"/>
      <point x="300" y="768" type="curve" smooth="yes"/>
      <point x="335" y="768"/>
      <point x="363" y="740"/>
      <point x="363" y="705" type="curve" smooth="yes"/>
      <point x="363" y="671"/>
      <point x="335" y="643"/>
    </contour>
  </outline>
</glyph>
<glyph name="ogonek" format="2">
  <advance width="600"/>
  <unicode hex="02DB"/>
  <outline>
    <contour>
      <point x="301" y="-221" type="curve" smooth="yes"/>
      <point x="332" y="-221"/>
      <point x="362" y="-213"/>
      <point x="384" y="-199" type="curve"/>
      <point x="365" y="-137" type="line"/>
      <point x="354" y="-145"/>
      <point x="339" y="-149"/>
      <point x="326" y="-149" type="curve" smooth="yes"/>
      <point x="294" y="-149"/>
      <point x="276" y="-133"/>
      <point x="276" y="-105" type="curve" smooth="yes"/>
      <point x="276" y="-70"/>
      <point x="304" y="-37"/>
      <point x="366" y="0" type="curve"/>
      <point x="321" y="20" type="line"/>
      <point x="234" y="-28"/>
      <point x="196" y="-73"/>
      <point x="196" y="-129" type="curve" smooth="yes"/>
      <point x="196" y="-184"/>
      <point x="238" y="-221"/>
    </contour>
  </outline>
</glyph>
<glyph name="tilde" format="2">
  <advance width="600"/>
  <unicode hex="02DC"/>
  <outline>
    <contour>
      <point x="190" y="597" type="line"/>
      <point x="198" y="635"/>
      <point x="210" y="650"/>
      <point x="232" y="650" type="curve"/>
      <point x="271" y="650"/>
      <point x="326" y="600"/>
      <point x="380" y="600" type="curve" smooth="yes"/>
      <point x="439" y="600"/>
      <point x="477" y="640"/>
      <point x="493" y="722" type="curve"/>
      <point x="411" y="740" type="line"/>
      <point x="401" y="700"/>
      <point x="390" y="686"/>
      <point x="367" y="686" type="curve"/>
      <point x="330" y="686"/>
      <point x="276" y="736"/>
      <point x="220" y="736" type="curve" smooth="yes"/>
      <point x="161" y="736"/>
      <point x="124" y="697"/>
      <point x="106" y="615" type="curve"/>
    </contour>
  </outline>
</glyph>
<glyph name="hungarumlaut" format="2">
  <advance width="600"/>
  <unicode hex="02DD"/>
  <outline>
    <contour>
      <point x="132" y="610" type="line"/>
      <point x="237" y="610" type="line"/>
      <point x="369" y="737" type="line"/>
      <point x="233" y="737" type="line"/>
    </contour>
    <contour>
      <point x="339" y="610" type="line"/>
      <point x="436" y="610" type="line"/>
      <point x="578" y="737" type="line"/>
      <point x="440" y="737" type="line"/>
    </contour>
  </outline>
</glyph>
<glyph name="emdash" format="2">
  <advance width="708"/>
  <unicode hex="2014"/>
  <outline>
    <contour>
      <point x="41" y="227" type="line"/>
      <point x="667" y="227" type="line"/>
      <point x="667" y="343" type="line"/>
      <point x="41" y="343" type="line"/>
    </contour>
  </outline>
</glyph>
<glyph name="uni2015" format="2">
  <advance width="958"/>
  <unicode hex="2015"/>
  <outline>
    <contour>
      <point x="41" y="227" type="line"/>
      <point x="917" y="227" type="line"/>
      <point x="917" y="343" type="line"/>
      <point x="41" y="343" type="line"/>
    </contour>
  </outline>
</glyph>
<glyph name="daggerdbl" format="2">
  <advance width="449"/>
  <unicode hex="2021"/>
  <outline>
    <contour>
      <point x="169" y="0" type="line"/>
      <point x="280" y="0" type="line"/>
      <point x="280" y="181" type="line"/>
      <point x="401" y="181" type="line"/>
      <point x="401" y="287" type="line"/>
      <point x="280" y="287" type="line"/>
      <point x="280" y="413" type="line"/>
      <point x="401" y="413" type="line"/>
      <point x="401" y="519" type="line"/>
      <point x="280" y="519" type="line"/>
      <point x="280" y="700" type="line"/>
      <point x="169" y="700" type="line"/>
      <point x="169" y="519" type="line"/>
      <point x="48" y="519" type="line"/>
      <point x="48" y="413" type="line"/>
      <point x="169" y="413" type="line"/>
      <point x="169" y="287" type="line"/>
      <point x="48" y="287" type="line"/>
      <point x="48" y="181" type="line"/>
      <point x="169" y="181" type="line"/>
    </contour>
  </outline>
</glyph>
<glyph name="bullet" format="2">
  <advance width="355"/>
  <unicode hex="2022"/>
  <outline>
    <contour>
      <point x="177" y="215" type="curve" smooth="yes"/>
      <point x="244" y="215"/>
      <point x="295" y="267"/>
      <point x="295" y="331" type="curve" smooth="yes"/>
      <point x="295" y="396"/>
      <point x="243" y="448"/>
      <point x="177" y="448" type="curve" smooth="yes"/>
      <point x="112" y="448"/>
      <point x="60" y="396"/>
      <point x="60" y="331" type="curve" smooth="yes"/>
      <point x="60" y="267"/>
      <point x="112" y="215"/>
    </contour>
  </outline>
</glyph>
<glyph name="guilsinglleft" format="2">
  <advance width="431"/>
  <unicode hex="2039"/>
  <outline>
    <contour>
      <point x="261" y="0" type="line"/>
      <point x="404" y="0" type="line"/>
      <point x="165" y="262" type="line"/>
      <point x="401" y="521" type="line"/>
      <point x="261" y="521" type="line"/>
      <point x="19" y="261" type="line"/>
    </contour>
  </outline>
</glyph>
<glyph name="fraction" format="2">
  <advance width="577"/>
  <unicode hex="2044"/>
  <outline>
    <contour>
      <point x="18" y="0" type="line"/>
      <point x="120" y="0" type="line"/>
      <point x="516" y="700" type="line"/>
      <point x="414" y="700" type="line"/>
    </contour>
  </outline>
</glyph>
<glyph name="uni2070" format="2">
  <advance width="362"/>
  <unicode hex="2070"/>
  <outline>
    <contour>
      <point x="182" y="345" type="curve" smooth="yes"/>
      <point x="278" y="345"/>
      <point x="341" y="417"/>
      <point x="341" y="526" type="curve" smooth="yes"/>
      <point x="341" y="633"/>
      <point x="277" y="706"/>
      <point x="182" y="706" type="curve" smooth="yes"/>
      <point x="86" y="706"/>
      <point x="22" y="633"/>
      <point x="22" y="526" type="curve" smooth="yes"/>
      <point x="22" y="417"/>
      <point x="85" y="345"/>
    </contour>
    <contour>
      <point x="182" y="418" type="curve" smooth="yes"/>
      <point x="133" y="418"/>
      <point x="105" y="459"/>
      <point x="104" y="526" type="curve" smooth="yes"/>
      <point x="105" y="591"/>
      <point x="134" y="633"/>
      <point x="182" y="633" type="curve" smooth="yes"/>
      <point x="229" y="633"/>
      <point x="259" y="591"/>
      <point x="259" y="526" type="curve" smooth="yes"/>
      <point x="259" y="459"/>
      <point x="230" y="418"/>
    </contour>
  </outline>
</glyph>
<glyph name="uni2074" format="2">
  <advance width="356"/>
  <unicode hex="2074"/>
  <outline>
    <contour>
      <point x="218" y="350" type="line"/>
      <point x="302" y="350" type="line"/>
      <point x="302" y="427" type="line"/>
      <point x="346" y="427" type="line"/>
      <point x="346" y="496" type="line"/>
      <point x="302" y="496" type="line"/>
      <point x="302" y="700" type="line"/>
      <point x="204" y="700" type="line"/>
      <point x="21" y="495" type="line"/>
      <point x="21" y="427" type="line"/>
      <point x="218" y="427" type="line"/>
    </contour>
    <contour>
      <point x="116" y="496" type="line"/>
      <point x="218" y="609" type="line"/>
      <point x="218" y="496" type="line"/>
    </contour>
  </outline>
</glyph>
<glyph name="uni2075" format="2">
  <advance width="324"/>
  <unicode hex="2075"/>
  <outline>
    <contour>
      <point x="153" y="344" type="curve" smooth="yes"/>
      <point x="243" y="344"/>
      <point x="304" y="392"/>
      <point x="304" y="464" type="curve" smooth="yes"/>
      <point x="304" y="530"/>
      <point x="252" y="574"/>
      <point x="171" y="574" type="curve" smooth="yes"/>
      <point x="151" y="574"/>
      <point x="133" y="571"/>
      <point x="112" y="565" type="curve"/>
      <point x="115" y="629" type="line"/>
      <point x="284" y="629" type="line"/>
      <point x="284" y="700" type="line"/>
      <point x="47" y="700" type="line"/>
      <point x="39" y="512" type="line"/>
      <point x="95" y="495" type="line"/>
      <point x="113" y="504"/>
      <point x="135" y="508"/>
      <point x="152" y="508" type="curve" smooth="yes"/>
      <point x="191" y="508"/>
      <point x="217" y="489"/>
      <point x="217" y="463" type="curve" smooth="yes"/>
      <point x="217" y="434"/>
      <point x="194" y="416"/>
      <point x="156" y="416" type="curve" smooth="yes"/>
      <point x="125" y="416"/>
      <point x="100" y="426"/>
      <point x="71" y="450" type="curve"/>
      <point x="20" y="391" type="line"/>
      <point x="55" y="361"/>
      <point x="102" y="344"/>
    </contour>
  </outline>
</glyph>
<glyph name="uni2076" format="2">
  <advance width="338"/>
  <unicode hex="2076"/>
  <outline>
    <contour>
      <point x="182" y="344" type="curve" smooth="yes"/>
      <point x="260" y="344"/>
      <point x="318" y="394"/>
      <point x="318" y="461" type="curve" smooth="yes"/>
      <point x="318" y="524"/>
      <point x="267" y="568"/>
      <point x="195" y="568" type="curve" smooth="yes"/>
      <point x="160" y="568"/>
      <point x="128" y="554"/>
      <point x="105" y="531" type="curve"/>
      <point x="109" y="598"/>
      <point x="139" y="632"/>
      <point x="191" y="632" type="curve" smooth="yes"/>
      <point x="220" y="632"/>
      <point x="241" y="625"/>
      <point x="262" y="607" type="curve"/>
      <point x="312" y="667" type="line"/>
      <point x="285" y="690"/>
      <point x="240" y="706"/>
      <point x="198" y="706" type="curve" smooth="yes"/>
      <point x="92" y="706"/>
      <point x="21" y="632"/>
      <point x="21" y="521" type="curve" smooth="yes"/>
      <point x="21" y="415"/>
      <point x="86" y="344"/>
    </contour>
    <contour>
      <point x="182" y="502" type="curve" smooth="yes"/>
      <point x="214" y="502"/>
      <point x="235" y="485"/>
      <point x="235" y="459" type="curve" smooth="yes"/>
      <point x="235" y="434"/>
      <point x="211" y="416"/>
      <point x="178" y="416" type="curve" smooth="yes"/>
      <point x="147" y="416"/>
      <point x="122" y="437"/>
      <point x="112" y="471" type="curve"/>
      <point x="131" y="491"/>
      <point x="154" y="502"/>
    </contour>
  </outline>
</glyph>
<glyph name="uni2077" format="2">
  <advance width="320"/>
  <unicode hex="2077"/>
  <outline>
    <contour>
      <point x="60" y="350" type="line"/>
      <point x="162" y="350" type="line"/>
      <point x="308" y="638" type="line"/>
      <point x="308" y="700" type="line"/>
      <point x="18" y="700" type="line"/>
      <point x="18" y="627" type="line"/>
      <point x="211" y="627" type="line"/>
    </contour>
  </outline>
</glyph>
<glyph name="uni2078" format="2">
  <advance width="336"/>
  <unicode hex="2078"/>
  <outline>
    <contour>
      <point x="168" y="344" type="curve" smooth="yes"/>
      <point x="253" y="344"/>
      <point x="312" y="387"/>
      <point x="312" y="450" type="curve" smooth="yes"/>
      <point x="312" y="484"/>
      <point x="291" y="513"/>
      <point x="258" y="528" type="curve"/>
      <point x="285" y="545"/>
      <point x="302" y="572"/>
      <point x="302" y="603" type="curve" smooth="yes"/>
      <point x="302" y="661"/>
      <point x="244" y="706"/>
      <point x="167" y="706" type="curve" smooth="yes"/>
      <point x="91" y="706"/>
      <point x="34" y="661"/>
      <point x="34" y="603" type="curve" smooth="yes"/>
      <point x="34" y="572"/>
      <point x="52" y="545"/>
      <point x="78" y="528" type="curve"/>
      <point x="45" y="513"/>
      <point x="24" y="484"/>
      <point x="24" y="450" type="curve" smooth="yes"/>
      <point x="24" y="387"/>
      <point x="82" y="344"/>
    </contour>
    <contour>
      <point x="168" y="558" type="curve" smooth="yes"/>
      <point x="139" y="558"/>
      <point x="117" y="575"/>
      <point x="117" y="597" type="curve" smooth="yes"/>
      <point x="117" y="620"/>
      <point x="139" y="637"/>
      <point x="168" y="637" type="curve" smooth="yes"/>
      <point x="198" y="637"/>
      <point x="219" y="620"/>
      <point x="219" y="597" type="curve" smooth="yes"/>
      <point x="219" y="575"/>
      <point x="197" y="558"/>
    </contour>
    <contour>
      <point x="168" y="414" type="curve" smooth="yes"/>
      <point x="133" y="414"/>
      <point x="109" y="430"/>
      <point x="109" y="455" type="curve" smooth="yes"/>
      <point x="109" y="479"/>
      <point x="133" y="496"/>
      <point x="168" y="496" type="curve" smooth="yes"/>
      <point x="203" y="496"/>
      <point x="228" y="479"/>
      <point x="228" y="455" type="curve" smooth="yes"/>
      <point x="228" y="430"/>
      <point x="203" y="414"/>
    </contour>
  </outline>
</glyph>
<glyph name="uni2079" format="2">
  <advance width="338"/>
  <unicode hex="2079"/>
  <outline>
    <contour>
      <point x="156" y="706" type="curve" smooth="yes"/>
      <point x="78" y="706"/>
      <point x="20" y="656"/>
      <point x="20" y="589" type="curve" smooth="yes"/>
      <point x="20" y="526"/>
      <point x="71" y="482"/>
      <point x="143" y="482" type="curve" smooth="yes"/>
      <point x="178" y="482"/>
      <point x="210" y="496"/>
      <point x="233" y="519" type="curve"/>
      <point x="229" y="452"/>
      <point x="199" y="418"/>
      <point x="147" y="418" type="curve" smooth="yes"/>
      <point x="118" y="418"/>
      <point x="97" y="425"/>
      <point x="76" y="443" type="curve"/>
      <point x="26" y="383" type="line"/>
      <point x="53" y="360"/>
      <point x="98" y="344"/>
      <point x="140" y="344" type="curve" smooth="yes"/>
      <point x="246" y="344"/>
      <point x="317" y="418"/>
      <point x="317" y="529" type="curve" smooth="yes"/>
      <point x="317" y="635"/>
      <point x="252" y="706"/>
    </contour>
    <contour>
      <point x="156" y="548" type="curve" smooth="yes"/>
      <point x="124" y="548"/>
      <point x="103" y="565"/>
      <point x="103" y="591" type="curve" smooth="yes"/>
      <point x="103" y="616"/>
      <point x="127" y="634"/>
      <point x="160" y="634" type="curve" smooth="yes"/>
      <point x="191" y="634"/>
      <point x="216" y="613"/>
      <point x="226" y="579" type="curve"/>
      <point x="207" y="559"/>
      <point x="184" y="548"/>
    </contour>
  </outline>
</glyph>
<glyph name="uni2080" format="2">
  <advance width="362"/>
  <unicode hex="2080"/>
  <outline>
    <contour>
      <point x="182" y="-5" type="curve" smooth="yes"/>
      <point x="278" y="-5"/>
      <point x="341" y="67"/>
      <point x="341" y="176" type="curve" smooth="yes"/>
      <point x="341" y="283"/>
      <point x="277" y="356"/>
      <point x="182" y="356" type="curve" smooth="yes"/>
      <point x="86" y="356"/>
      <point x="22" y="283"/>
      <point x="22" y="176" type="curve" smooth="yes"/>
      <point x="22" y="67"/>
      <point x="85" y="-5"/>
    </contour>
    <contour>
      <point x="182" y="68" type="curve" smooth="yes"/>
      <point x="133" y="68"/>
      <point x="105" y="109"/>
      <point x="104" y="176" type="curve" smooth="yes"/>
      <point x="105" y="241"/>
      <point x="134" y="283"/>
      <point x="182" y="283" type="curve" smooth="yes"/>
      <point x="229" y="283"/>
      <point x="259" y="241"/>
      <point x="259" y="176" type="curve" smooth="yes"/>
      <point x="259" y="109"/>
      <point x="230" y="68"/>
    </contour>
  </outline>
</glyph>
<glyph name="uni2081" format="2">
  <advance width="195"/>
  <unicode hex="2081"/>
  <outline>
    <contour>
      <point x="89" y="0" type="line"/>
      <point x="174" y="0" type="line"/>
      <point x="174" y="350" type="line"/>
      <point x="121" y="350" type="line"/>
      <point x="16" y="308" type="line"/>
      <point x="16" y="236" type="line"/>
      <point x="89" y="265" type="line"/>
    </contour>
  </outline>
</glyph>
<glyph name="uni2082" format="2">
  <advance width="307"/>
  <unicode hex="2082"/>
  <outline>
    <contour>
      <point x="27" y="0" type="line"/>
      <point x="288" y="0" type="line"/>
      <point x="288" y="70" type="line"/>
      <point x="150" y="70" type="line"/>
      <point x="220" y="132" type="line" smooth="yes"/>
      <point x="266" y="170"/>
      <point x="285" y="203"/>
      <point x="285" y="243" type="curve" smooth="yes"/>
      <point x="285" y="310"/>
      <point x="230" y="354"/>
      <point x="151" y="355" type="curve" smooth="yes"/>
      <point x="99" y="354"/>
      <point x="51" y="334"/>
      <point x="8" y="296" type="curve"/>
      <point x="55" y="240" type="line"/>
      <point x="89" y="270"/>
      <point x="115" y="283"/>
      <point x="148" y="283" type="curve" smooth="yes"/>
      <point x="180" y="283"/>
      <point x="203" y="264"/>
      <point x="203" y="238" type="curve" smooth="yes"/>
      <point x="203" y="219"/>
      <point x="191" y="201"/>
      <point x="168" y="181" type="curve" smooth="yes"/>
      <point x="27" y="60" type="line"/>
    </contour>
  </outline>
</glyph>
<glyph name="uni2083" format="2">
  <advance width="329"/>
  <unicode hex="2083"/>
  <outline>
    <contour>
      <point x="159" y="-5" type="curve" smooth="yes"/>
      <point x="244" y="-5"/>
      <point x="306" y="38"/>
      <point x="306" y="99" type="curve" smooth="yes"/>
      <point x="306" y="134"/>
      <point x="283" y="161"/>
      <point x="248" y="174" type="curve"/>
      <point x="278" y="193"/>
      <point x="297" y="221"/>
      <point x="296" y="255" type="curve" smooth="yes"/>
      <point x="297" y="315"/>
      <point x="241" y="356"/>
      <point x="161" y="356" type="curve" smooth="yes"/>
      <point x="107" y="356"/>
      <point x="52" y="332"/>
      <point x="18" y="294" type="curve"/>
      <point x="75" y="242" type="line"/>
      <point x="104" y="272"/>
      <point x="124" y="282"/>
      <point x="158" y="282" type="curve" smooth="yes"/>
      <point x="189" y="282"/>
      <point x="211" y="267"/>
      <point x="211" y="245" type="curve" smooth="yes"/>
      <point x="211" y="221"/>
      <point x="189" y="204"/>
      <point x="156" y="204" type="curve" smooth="yes"/>
      <point x="132" y="204" type="line"/>
      <point x="132" y="137" type="line"/>
      <point x="165" y="137" type="line" smooth="yes"/>
      <point x="200" y="137"/>
      <point x="220" y="125"/>
      <point x="220" y="106" type="curve" smooth="yes"/>
      <point x="220" y="83"/>
      <point x="196" y="67"/>
      <point x="158" y="67" type="curve" smooth="yes"/>
      <point x="119" y="67"/>
      <point x="99" y="76"/>
      <point x="72" y="104" type="curve"/>
      <point x="15" y="52" type="line"/>
      <point x="47" y="16"/>
      <point x="101" y="-5"/>
    </contour>
  </outline>
</glyph>
<glyph name="uni2084" format="2">
  <advance width="356"/>
  <unicode hex="2084"/>
  <outline>
    <contour>
      <point x="218" y="0" type="line"/>
      <point x="302" y="0" type="line"/>
      <point x="302" y="77" type="line"/>
      <point x="346" y="77" type="line"/>
      <point x="346" y="146" type="line"/>
      <point x="302" y="146" type="line"/>
      <point x="302" y="350" type="line"/>
      <point x="204" y="350" type="line"/>
      <point x="21" y="145" type="line"/>
      <point x="21" y="77" type="line"/>
      <point x="218" y="77" type="line"/>
    </contour>
    <contour>
      <point x="116" y="146" type="line"/>
      <point x="218" y="259" type="line"/>
      <point x="218" y="146" type="line"/>
    </contour>
  </outline>
</glyph>
<glyph name="uni2085" format="2">
  <advance width="324"/>
  <unicode hex="2085"/>
  <outline>
    <contour>
      <point x="153" y="-6" type="curve" smooth="yes"/>
      <point x="243" y="-6"/>
      <point x="304" y="42"/>
      <point x="304" y="114" type="curve" smooth="yes"/>
      <point x="304" y="180"/>
      <point x="252" y="224"/>
      <point x="171" y="224" type="curve" smooth="yes"/>
      <point x="151" y="224"/>
      <point x="133" y="221"/>
      <point x="112" y="215" type="curve"/>
      <point x="115" y="279" type="line"/>
      <point x="284" y="279" type="line"/>
      <point x="284" y="350" type="line"/>
      <point x="47" y="350" type="line"/>
      <point x="39" y="162" type="line"/>
      <point x="95" y="145" type="line"/>
      <point x="113" y="154"/>
      <point x="135" y="158"/>
      <point x="152" y="158" type="curve" smooth="yes"/>
      <point x="191" y="158"/>
      <point x="217" y="139"/>
      <point x="217" y="113" type="curve" smooth="yes"/>
      <point x="217" y="84"/>
      <point x="194" y="66"/>
      <point x="156" y="66" type="curve" smooth="yes"/>
      <point x="125" y="66"/>
      <point x="100" y="76"/>
      <point x="71" y="100" type="curve"/>
      <point x="20" y="41" type="line"/>
      <point x="55" y="11"/>
      <point x="102" y="-6"/>
    </contour>
  </outline>
</glyph>
<glyph name="uni2086" format="2">
  <advance width="338"/>
  <unicode hex="2086"/>
  <outline>
    <contour>
      <point x="182" y="-6" type="curve" smooth="yes"/>
      <point x="260" y="-6"/>
      <point x="318" y="44"/>
      <point x="318" y="111" type="curve" smooth="yes"/>
      <point x="318" y="174"/>
      <point x="267" y="218"/>
      <point x="195" y="218" type="curve" smooth="yes"/>
      <point x="160" y="218"/>
      <point x="128" y="204"/>
      <point x="105" y="181" type="curve"/>
      <point x="109" y="248"/>
      <point x="139" y="282"/>
      <point x="191" y="282" type="curve" smooth="yes"/>
      <point x="220" y="282"/>
      <point x="241" y="275"/>
      <point x="262" y="257" type="curve"/>
      <point x="312" y="317" type="line"/>
      <point x="285" y="340"/>
      <point x="240" y="356"/>
      <point x="198" y="356" type="curve" smooth="yes"/>
      <point x="92" y="356"/>
      <point x="21" y="282"/>
      <point x="21" y="171" type="curve" smooth="yes"/>
      <point x="21" y="65"/>
      <point x="86" y="-6"/>
    </contour>
    <contour>
      <point x="182" y="152" type="curve" smooth="yes"/>
      <point x="214" y="152"/>
      <point x="235" y="135"/>
      <point x="235" y="109" type="curve" smooth="yes"/>
      <point x="235" y="84"/>
      <point x="211" y="66"/>
      <point x="178" y="66" type="curve" smooth="yes"/>
      <point x="147" y="66"/>
      <point x="122" y="87"/>
      <point x="112" y="121" type="curve"/>
      <point x="131" y="141"/>
      <point x="154" y="152"/>
    </contour>
  </outline>
</glyph>
<glyph name="uni2087" format="2">
  <advance width="320"/>
  <unicode hex="2087"/>
  <outline>
    <contour>
      <point x="60" y="0" type="line"/>
      <point x="162" y="0" type="line"/>
      <point x="308" y="288" type="line"/>
      <point x="308" y="350" type="line"/>
      <point x="18" y="350" type="line"/>
      <point x="18" y="277" type="line"/>
      <point x="211" y="277" type="line"/>
    </contour>
  </outline>
</glyph>
<glyph name="uni2088" format="2">
  <advance width="336"/>
  <unicode hex="2088"/>
  <outline>
    <contour>
      <point x="168" y="-6" type="curve" smooth="yes"/>
      <point x="253" y="-6"/>
      <point x="312" y="37"/>
      <point x="312" y="100" type="curve" smooth="yes"/>
      <point x="312" y="134"/>
      <point x="291" y="163"/>
      <point x="258" y="178" type="curve"/>
      <point x="285" y="195"/>
      <point x="302" y="222"/>
      <point x="302" y="253" type="curve" smooth="yes"/>
      <point x="302" y="311"/>
      <point x="244" y="356"/>
      <point x="167" y="356" type="curve" smooth="yes"/>
      <point x="91" y="356"/>
      <point x="34" y="311"/>
      <point x="34" y="253" type="curve" smooth="yes"/>
      <point x="34" y="222"/>
      <point x="52" y="195"/>
      <point x="78" y="178" type="curve"/>
      <point x="45" y="163"/>
      <point x="24" y="134"/>
      <point x="24" y="100" type="curve" smooth="yes"/>
      <point x="24" y="37"/>
      <point x="82" y="-6"/>
    </contour>
    <contour>
      <point x="168" y="208" type="curve" smooth="yes"/>
      <point x="139" y="208"/>
      <point x="117" y="225"/>
      <point x="117" y="247" type="curve" smooth="yes"/>
      <point x="117" y="270"/>
      <point x="139" y="287"/>
      <point x="168" y="287" type="curve" smooth="yes"/>
      <point x="198" y="287"/>
      <point x="219" y="270"/>
      <point x="219" y="247" type="curve" smooth="yes"/>
      <point x="219" y="225"/>
      <point x="197" y="208"/>
    </contour>
    <contour>
      <point x="168" y="64" type="curve" smooth="yes"/>
      <point x="133" y="64"/>
      <point x="109" y="80"/>
      <point x="109" y="105" type="curve" smooth="yes"/>
      <point x="109" y="129"/>
      <point x="133" y="146"/>
      <point x="168" y="146" type="curve" smooth="yes"/>
      <point x="203" y="146"/>
      <point x="228" y="129"/>
      <point x="228" y="105" type="curve" smooth="yes"/>
      <point x="228" y="80"/>
      <point x="203" y="64"/>
    </contour>
  </outline>
</glyph>
<glyph name="Euro" format="2">
  <advance width="790"/>
  <unicode hex="20AC"/>
  <outline>
    <contour>
      <point x="472" y="-11" type="curve" smooth="yes"/>
      <point x="592" y="-11"/>
      <point x="691" y="34"/>
      <point x="755" y="118" type="curve"/>
      <point x="664" y="187" type="line"/>
      <point x="625" y="134"/>
      <point x="551" y="101"/>
      <point x="472" y="101" type="curve" smooth="yes"/>
      <point x="368" y="101"/>
      <point x="291" y="158"/>
      <point x="258" y="249" type="curve"/>
      <point x="438" y="249" type="line"/>
      <point x="465" y="319" type="line"/>
      <point x="242" y="319" type="line"/>
      <point x="241" y="329"/>
      <point x="241" y="340"/>
      <point x="241" y="350" type="curve" smooth="yes"/>
      <point x="241" y="361"/>
      <point x="241" y="371"/>
      <point x="242" y="381" type="curve"/>
      <point x="487" y="381" type="line"/>
      <point x="514" y="452" type="line"/>
      <point x="258" y="452" type="line"/>
      <point x="291" y="543"/>
      <point x="369" y="599"/>
      <point x="473" y="599" type="curve" smooth="yes"/>
      <point x="553" y="599"/>
      <point x="624" y="567"/>
      <point x="663" y="512" type="curve"/>
      <point x="756" y="582" type="line"/>
      <point x="693" y="667"/>
      <point x="595" y="711"/>
      <point x="472" y="711" type="curve" smooth="yes"/>
      <point x="297" y="711"/>
      <point x="165" y="608"/>
      <point x="125" y="452" type="curve"/>
      <point x="35" y="452" type="line"/>
      <point x="35" y="381" type="line"/>
      <point x="114" y="381" type="line"/>
      <point x="113" y="371"/>
      <point x="112" y="361"/>
      <point x="112" y="350" type="curve" smooth="yes"/>
      <point x="112" y="340"/>
      <point x="113" y="329"/>
      <point x="114" y="319" type="curve"/>
      <point x="35" y="319" type="line"/>
      <point x="35" y="249" type="line"/>
      <point x="124" y="249" type="line"/>
      <point x="164" y="92"/>
      <point x="297" y="-11"/>
    </contour>
  </outline>
</glyph>
<glyph name="trademark" format="2">
  <advance width="689"/>
  <unicode hex="2122"/>
  <outline>
    <contour>
      <point x="328" y="421" type="line"/>
      <point x="392" y="421" type="line"/>
      <point x="391" y="617" type="line"/>
      <point x="486" y="439" type="line"/>
      <point x="579" y="618" type="line"/>
      <point x="577" y="421" type="line"/>
      <point x="644" y="421" type="line"/>
      <point x="644" y="700" type="line"/>
      <point x="559" y="700" type="line"/>
      <point x="486" y="552" type="line"/>
      <point x="413" y="700" type="line"/>
      <point x="328" y="700" type="line"/>
    </contour>
    <contour>
      <point x="119" y="421" type="line"/>
      <point x="190" y="421" type="line"/>
      <point x="190" y="641" type="line"/>
      <point x="283" y="641" type="line"/>
      <point x="283" y="700" type="line"/>
      <point x="26" y="700" type="line"/>
      <point x="26" y="641" type="line"/>
      <point x="119" y="641" type="line"/>
    </contour>
  </outline>
</glyph>
<glyph name="minus" format="2">
  <advance width="600"/>
  <unicode hex="2212"/>
  <outline>
    <contour>
      <point x="83" y="307" type="line"/>
      <point x="517" y="307" type="line"/>
      <point x="517" y="410" type="line"/>
      <point x="83" y="410" type="line"/>
    </contour>
  </outline>
</glyph>
<glyph name="uni2215" format="2">
  <advance width="577"/>
  <unicode hex="2215"/>
  <outline>
    <contour>
      <point x="19" y="0" type="line"/>
      <point x="118" y="0" type="line"/>
      <point x="515" y="700" type="line"/>
      <point x="415" y="700" type="line"/>
    </contour>
  </outline>
</glyph>
<glyph name="notequal" format="2">
  <advance width="600"/>
  <unicode hex="2260"/>
  <outline>
    <contour>
      <point x="89" y="93" type="line"/>
      <point x="191" y="93" type="line"/>
      <point x="262" y="206" type="line"/>
      <point x="517" y="206" type="line"/>
      <point x="517" y="309" type="line"/>
      <point x="324" y="309" type="line"/>
      <point x="379" y="397" type="line"/>
      <point x="517" y="397" type="line"/>
      <point x="517" y="500" type="line"/>
      <point x="442" y="500" type="line"/>
      <point x="511" y="612" type="line"/>
      <point x="410" y="612" type="line"/>
      <point x="341" y="500" type="line"/>
      <point x="83" y="500" type="line"/>
      <point x="83" y="397" type="line"/>
      <point x="278" y="397" type="line"/>
      <point x="222" y="309" type="line"/>
      <point x="83" y="309" type="line"/>
      <point x="83" y="206" type="line"/>
      <point x="160" y="206" type="line"/>
    </contour>
  </outline>
</glyph>
<glyph name="uniFFFD" format="2">
  <advance width="538"/>
  <unicode hex="FFFD"/>
  <outline>
    <contour>
      <point x="72" y="-100" type="line"/>
      <point x="466" y="-100" type="line"/>
      <point x="466" y="750" type="line"/>
      <point x="72" y="750" type="line"/>
    </contour>
  </outline>
</glyph>
<glyph name="acutecomb" format="2">
  <anchor x="300" y="521" name="_top"/>
  <outline>
    <contour>
      <point x="211" y="608" type="line"/>
      <point x="322" y="608" type="line"/>
      <point x="457" y="738" type="line"/>
      <point x="301" y="738" type="line"/>
    </contour>
  </outline>
</glyph>
<glyph name="aogonek.school" format="2">
  <advance width="632"/>
  <outline>
    <contour>
      <point x="513" y="-221" type="curve" smooth="yes"/>
      <point x="544" y="-221"/>
      <point x="574" y="-213"/>
      <point x="596" y="-199" type="curve"/>
      <point x="577" y="-137" type="line"/>
      <point x="566" y="-145"/>
      <point x="551" y="-149"/>
      <point x="538" y="-149" type="curve" smooth="yes"/>
      <point x="506" y="-149"/>
      <point x="488" y="-133"/>
      <point x="488" y="-105" type="curve" smooth="yes"/>
      <point x="488" y="-70"/>
      <point x="516" y="-37"/>
      <point x="578" y="0" type="curve"/>
      <point x="578" y="521" type="line"/>
      <point x="441" y="521" type="line"/>
      <point x="441" y="487" type="line"/>
      <point x="399" y="514"/>
      <point x="350" y="528"/>
      <point x="299" y="528" type="curve" smooth="yes"/>
      <point x="148" y="528"/>
      <point x="30" y="411"/>
      <point x="30" y="261" type="curve" smooth="yes"/>
      <point x="30" y="111"/>
      <point x="147" y="-7"/>
      <point x="295" y="-7" type="curve" smooth="yes"/>
      <point x="350" y="-7"/>
      <point x="401" y="10"/>
      <point x="443" y="43" type="curve"/>
      <point x="443" y="0" type="line"/>
      <point x="498" y="0" type="line"/>
      <point x="436" y="-41"/>
      <point x="408" y="-81"/>
      <point x="408" y="-129" type="curve" smooth="yes"/>
      <point x="408" y="-184"/>
      <point x="450" y="-221"/>
    </contour>
    <contour>
      <point x="165" y="261" type="curve" smooth="yes"/>
      <point x="165" y="347"/>
      <point x="231" y="412"/>
      <point x="317" y="412" type="curve" smooth="yes"/>
      <point x="366" y="412"/>
      <point x="411" y="394"/>
      <point x="441" y="363" type="curve"/>
      <point x="441" y="160" type="line"/>
      <point x="410" y="127"/>
      <point x="367" y="110"/>
      <point x="317" y="110" type="curve" smooth="yes"/>
      <point x="231" y="110"/>
      <point x="165" y="176"/>
    </contour>
  </outline>
</glyph>
<glyph name="caronSlovak" format="2">
  <advance width="600"/>
  <outline>
    <contour>
      <point x="306" y="501" type="line"/>
      <point x="385" y="501" type="line"/>
      <point x="421" y="721" type="line"/>
      <point x="310" y="700" type="line"/>
    </contour>
  </outline>
</glyph>
<glyph name="commaaccent" format="2">
  <advance width="600"/>
  <guideline x="299" y="-8" angle="90.0" identifier="TB9epO5wox"/>
  <outline>
    <contour>
      <point x="184" y="-286" type="line"/>
      <point x="283" y="-286" type="line"/>
      <point x="364" y="-81" type="line"/>
      <point x="235" y="-81" type="line"/>
    </contour>
  </outline>
</glyph>
<glyph name="cordinal" format="2">
  <advance width="419"/>
  <outline>
    <contour>
      <point x="235" y="302" type="curve" smooth="yes"/>
      <point x="299" y="302"/>
      <point x="359" y="328"/>
      <point x="399" y="373" type="curve"/>
      <point x="333" y="442" type="line"/>
      <point x="304" y="411"/>
      <point x="274" y="396"/>
      <point x="238" y="396" type="curve" smooth="yes"/>
      <point x="180" y="396"/>
      <point x="137" y="444"/>
      <point x="137" y="506" type="curve" smooth="yes"/>
      <point x="137" y="569"/>
      <point x="180" y="616"/>
      <point x="238" y="616" type="curve" smooth="yes"/>
      <point x="274" y="616"/>
      <point x="304" y="602"/>
      <point x="333" y="570" type="curve"/>
      <point x="399" y="640" type="line"/>
      <point x="359" y="685"/>
      <point x="299" y="711"/>
      <point x="235" y="711" type="curve" smooth="yes"/>
      <point x="119" y="711"/>
      <point x="29" y="621"/>
      <point x="29" y="506" type="curve" smooth="yes"/>
      <point x="29" y="391"/>
      <point x="119" y="302"/>
    </contour>
  </outline>
</glyph>
<glyph name="eight.tab" format="2">
  <advance width="600"/>
  <outline>
    <contour>
      <point x="300" y="-11" type="curve" smooth="yes"/>
      <point x="457" y="-11"/>
      <point x="566" y="74"/>
      <point x="566" y="195" type="curve" smooth="yes"/>
      <point x="566" y="273"/>
      <point x="508" y="337"/>
      <point x="425" y="362" type="curve"/>
      <point x="496" y="388"/>
      <point x="544" y="446"/>
      <point x="544" y="514" type="curve" smooth="yes"/>
      <point x="544" y="627"/>
      <point x="439" y="711"/>
      <point x="300" y="711" type="curve" smooth="yes"/>
      <point x="161" y="711"/>
      <point x="56" y="627"/>
      <point x="56" y="514" type="curve" smooth="yes"/>
      <point x="56" y="446"/>
      <point x="104" y="388"/>
      <point x="175" y="362" type="curve"/>
      <point x="92" y="337"/>
      <point x="34" y="273"/>
      <point x="34" y="195" type="curve" smooth="yes"/>
      <point x="34" y="74"/>
      <point x="143" y="-11"/>
    </contour>
    <contour>
      <point x="300" y="408" type="curve" smooth="yes"/>
      <point x="234" y="408"/>
      <point x="185" y="449"/>
      <point x="185" y="505" type="curve" smooth="yes"/>
      <point x="185" y="561"/>
      <point x="234" y="603"/>
      <point x="300" y="603" type="curve" smooth="yes"/>
      <point x="366" y="603"/>
      <point x="415" y="561"/>
      <point x="415" y="505" type="curve" smooth="yes"/>
      <point x="415" y="449"/>
      <point x="366" y="408"/>
    </contour>
    <contour>
      <point x="300" y="98" type="curve" smooth="yes"/>
      <point x="222" y="98"/>
      <point x="166" y="143"/>
      <point x="166" y="204" type="curve" smooth="yes"/>
      <point x="166" y="265"/>
      <point x="222" y="311"/>
      <point x="300" y="311" type="curve" smooth="yes"/>
      <point x="378" y="311"/>
      <point x="434" y="265"/>
      <point x="434" y="204" type="curve" smooth="yes"/>
      <point x="434" y="143"/>
      <point x="378" y="98"/>
    </contour>
  </outline>
</glyph>
<glyph name="five.tab" format="2">
  <advance width="600"/>
  <outline>
    <contour>
      <point x="282" y="-11" type="curve" smooth="yes"/>
      <point x="446" y="-11"/>
      <point x="557" y="85"/>
      <point x="557" y="228" type="curve" smooth="yes"/>
      <point x="557" y="356"/>
      <point x="464" y="441"/>
      <point x="323" y="441" type="curve" smooth="yes"/>
      <point x="273" y="441"/>
      <point x="226" y="430"/>
      <point x="181" y="407" type="curve"/>
      <point x="189" y="588" type="line"/>
      <point x="520" y="588" type="line"/>
      <point x="520" y="700" type="line"/>
      <point x="79" y="700" type="line"/>
      <point x="63" y="331" type="line"/>
      <point x="154" y="304" type="line"/>
      <point x="198" y="328"/>
      <point x="240" y="339"/>
      <point x="283" y="339" type="curve" smooth="yes"/>
      <point x="365" y="339"/>
      <point x="424" y="290"/>
      <point x="424" y="222" type="curve" smooth="yes"/>
      <point x="424" y="150"/>
      <point x="369" y="102"/>
      <point x="288" y="102" type="curve" smooth="yes"/>
      <point x="222" y="102"/>
      <point x="169" y="123"/>
      <point x="109" y="174" type="curve"/>
      <point x="31" y="83" type="line"/>
      <point x="101" y="21"/>
      <point x="186" y="-11"/>
    </contour>
  </outline>
</glyph>
<glyph name="four.tab" format="2">
  <advance width="600"/>
  <outline>
    <contour>
      <point x="376" y="0" type="line"/>
      <point x="502" y="0" type="line"/>
      <point x="502" y="166" type="line"/>
      <point x="586" y="166" type="line"/>
      <point x="586" y="277" type="line"/>
      <point x="502" y="277" type="line"/>
      <point x="502" y="700" type="line"/>
      <point x="359" y="700" type="line"/>
      <point x="15" y="273" type="line"/>
      <point x="15" y="166" type="line"/>
      <point x="376" y="166" type="line"/>
    </contour>
    <contour>
      <point x="152" y="277" type="line"/>
      <point x="376" y="559" type="line"/>
      <point x="376" y="277" type="line"/>
    </contour>
  </outline>
</glyph>
